/* XPM */
static char *result[] = {
/* columns rows colors chars-per-pixel */
"32 32 15 1 ",
"  c #211F30",
". c #62677A",
"X c #BA570B",
"o c #9C1B4D",
"O c #CC3048",
"+ c #E44A4A",
"@ c #CE8B16",
"# c #E1CA33",
"$ c #F18B72",
"% c #858D99",
"& c #F7EC8A",
"* c #AFBBC3",
"= c #FAF7CD",
"- c white",
"; c None",
/* pixels */
";;;;;;;;;;;;;;;;;;;;;;;;;;;;;;;;",
";;;;;;;;;;;;;;;;;;;;;;;;;;;;;;;;",
";;;;;;;;;;;;;;;;;;;;;;;;;;;;;;;;",
";;;;;;;;;;;;;;;;;;;;;;;;;;;;;;;;",
";;;;;;;;;;;;;;;;;;;;;;;;;;;;;;;;",
";;;;;;;    ;;;;;;;;;;;;;;;;;;;;;",
";;;;;; $$$+ ;;;;;;;;;;;;;;;;;;;;",
";;;;; $+++Oo  ;;;;;;;;;;;;;;;;;;",
";;;; +OOOOOoO+ ;;;;;;;;;;;;;;;;;",
";;;; O    OO++$ ;;;;;;;;;;;;;;;;",
";;;;  ----  OOoo ;;;;;;;;;;;;;;;",
";;; -------* OO++ ;;;;;;;;;;;;;;",
";; ---------* OOO$ ;;;;;;;;;;;;;",
";; ---------* OOO+ ;;;;;;;;;;;;;",
";; ..--....--* OOO ;;;;;;    ;;;",
";; ..--....--* OOO ;;;;;;    ;;;",
";;   ..*..*--* OO ;;;;;; --- ;;;",
"; =&###.**---*%         ---%*  ;",
" &######.*---*%--------*%--*-- ;",
" ##XXXXX *--*%-----------*---* ;",
" #X@@@@@ -------------------* ;;",
" #X @@@ -----%%------- *----%- ;",
";  ; X -----%------*--- *-*--* ;",
";;;; ------%--------**%% -%** ;;",
";;;; ------%-----------* *%  ;;;",
";;;;; -----%----------* *  ;;;;;",
";;;;; *----* -------** ** ;;;;;;",
";;;;;; ******         ** ;;;;;;;",
";;;;;;;  ************** ;;;;;;;;",
";;;;;;;;;              ;;;;;;;;;",
";;;;;;;;;; @ ;;;;;; # ;;;;;;;;;;",
";;;;;;;;;   ;;;;;;   ;;;;;;;;;;;"
};
