/* XPM */
static char *result[] = {
/* columns rows colors chars-per-pixel */
"32 32 7 1 ",
"  c #11596E",
". c #30B173",
"X c #1C8C82",
"o c #64D88C",
"O c #B1F6B8",
"+ c white",
"@ c None",
/* pixels */
"@@@@@@@@@@@@@@@@@@@@@@@@@@@@@@@@",
"@@@@@@@@@@@@@@@@@@@@@@@@@@@@@@@@",
"@@@@@@@@@@@@@@@@@@@@@@@@@@@@@@@@",
"@@@@@@@@@@@@@@@@@@@@@@@@@@@@@@@@",
"@@@@@@@@@@@@@@@@@@@@@@@@@@@@@@@@",
"@@@@@@@@@@@@@@@@@@@@@@@@@@@@@@@@",
"@@@@@@@@@@@@@@@@@@@@@@@@@@@@@@@@",
"@@@@@@@@@@@@@@@@@@@@@@@@@@@@@@@@",
"@@@@@@@@@@@@@@@@@@@@@@@@@@@@@@@@",
"@@@@@@@@@@@@@@@@@@@@@@@@@@@@@@@@",
"@@@@@@@@@@@@@@@@@@@@@@@@@@@@@@@@",
"@@@@@@@@@@@@@@     @@@@@@@@@@@@@",
"@@@@@@@@@@  oooooOooo  @@@@@@@@@",
"@@@@@@@@@@.oooooooooooo@@@@@@@@@",
"@@@@@@@@@ oooooooooooOO @@@@@@@@",
"@@@@@@@ ..oOoooooooOoooo. @@@@@@",
"@@@@@@@ ..oooooooooooo o. @@@@@@",
"@@@@@@ ..oOooooo ++oo + o.@@@@@@",
"@@@@@@ ..ooooooo ++oo + o.@@@@@@",
"@@@@@@..oooooooo ++oo + oo @@@@@",
"@@@@@@..oooooooo.  oo. .oo @@@@@",
"@@@@@@..oooooooooooooooooo @@@@@",
"@@@@@@..ooooo X  X  X oXX  @@@@@",
"@@@@@@..ooooo X  .XXX O.X  @@@@@",
"@@@@@@..ooooo X  ...X O.X  @@@@@",
"@@@@@@..oo.oo XXX...X O.X  @@@@@",
"@@@@@@..o...o X.....X O.X  @@@@@",
"@@@@@ ...o.oo X..  .X o.X . @@@@",
"@@@@@ ....oo..   oO  .o  .. @@@@",
"@@@@ ..oO .  .oooooooooo..   @@@",
"@@@@  .oo  .o ..........  .o @@@",
"@@@                          @@@"
};
