/* XPM */
static char *result[] = {
/* columns rows colors chars-per-pixel */
"32 32 7 1 ",
"  c #11596E",
". c #30B173",
"X c #1C8C82",
"o c #64D88C",
"O c #B1F6B8",
"+ c white",
"@ c None",
/* pixels */
"@@@@@@@@@@@@@@@@@@@@@@@@@@@@@@@@",
"@@@@@@@@@@@@@@@@@@@@@@@@@@@@@@@@",
"@@@@@@@@@@@@@@@@@@@@@@@@@@@@@@@@",
"@@@@@@@@@@@@@@@@@@@@@@@@@@@@@@@@",
"@@@@@@@@@@@@@@@@@@@@@@@@@@@@@@@@",
"@@@@@@@@@@@@@@@@@@@@@@@@@@@@@@@@",
"@@@@@@@@@@@@@@@@@@@@@@@@@@@@@@@@",
"@@@@@@@@@@@@@@@@@@@@@@@@@@@@@@@@",
"@@@@@@@@@@@@@@@@@@@@@@@@@@@@@@@@",
"@@@@@@@@@@@@@@@@@@@@@@@@@@@@@@@@",
"@@@@@@@@@@@@@@@@@@@@@@@@@@@@@@@@",
"@@@@@@@@@@@@@@@@@@@@@@@@@@@@@@@@",
"@@@@@@@@@@@@@@@@@@@@@@@@@@@@@@@@",
"@@@@@@@@@@@@@@@@@@@@@@@@@@@@@@@@",
"@@@@@@@@@@@@        @@@@@@@@@@@@",
"@@@@@@@@@ ooooooooOooo  @@@@@@@@",
"@@@@@@@@ ooooooooooooooo @@@@@@@",
"@@@@@@ ..oooooooooooooOOo @@@@@@",
"@@@@@@..oOoooooooooooOooo. @@@@@",
"@@@@@ .oOoooooo    oo ++ o. @@@@",
"@@@@@ .oOoooooo ++ oo ++ o. @@@@",
"@@@@@ .oooooooo ++ oo ++ o. @@@@",
"@@@@ .ooooooooooooooooooooo.@@@@",
"@@@@ .ooooooo     o  oo  oo.@@@@",
"@@@@ .oooooo X  .. XX  .Xoo.@@@@",
"@@@@ .oo.ooo X  ....X  .Xoo.@@@@",
"@@@@ .o...oo XXX....X  .Xoo.@@@@",
"@@@ ...o.ooo X... ..X  .Xoo. @@@",
"@@@ ....oo.o.    o   ..  oo. @@@",
"@@ . .O .  .ooooooooooooo...  @@",
"@@   .o  .o .............   o @@",
"@@                             @"
};
