/* XPM */
static char *result[] = {
/* columns rows colors chars-per-pixel */
"32 32 7 1 ",
"  c #11596E",
". c #30B173",
"X c #1C8C82",
"o c #64D88C",
"O c #B1F6B8",
"+ c white",
"@ c None",
/* pixels */
"@@@@@@@@@@@@@@@@@@@@@@@@@@@@@@@@",
"@@@@@@@@@@@@@@@@@@@@@@@@@@@@@@@@",
"@@@@@@@@@@@@@@@@@@@@@@@@@@@@@@@@",
"@@@@@@@@@@@@@@@@@@@@@@@@@@@@@@@@",
"@@@@@@@@@@@@@@@@@@@@@@@@@@@@@@@@",
"@@@@@@@@@@@@@@@@@@@@@@@@@@@@@@@@",
"@@@@@@@@@@@@@@@@@@@@@@@@@@@@@@@@",
"@@@@@@@@@@@@@@@@@@@@@@@@@@@@@@@@",
"@@@@@@@@@@@@@@@@@@@@@@@@@@@@@@@@",
"@@@@@@@@@@@@@@@@@@@@@@@@@@@@@@@@",
"@@@@@@@@@@@@@@@@@@@@@@@@@@@@@@@@",
"@@@@@@@@@@@@@@@@@@@@@@@@@@@@@@@@",
"@@@@@@@@@@@@@@@@@@@@@@@@@@@@@@@@",
"@@@@@@@@@@@@@@@@@@@@@@@@@@@@@@@@",
"@@@@@@@@@@@@@@@@@@@@@@@@@@@@@@@@",
"@@@@@@@@@@@@@@@@@@@@@@@@@@@@@@@@",
"@@@@@@@@@@@           @@@@@@@@@@",
"@@@@@@@  oooooooooooOooo  @@@@@@",
"@@@@@@ .oooooooooooooooooo@@@@@@",
"@@@@@ .oooooooooooooooooOO. @@@@",
"@@@@ .ooOoooooooooooooooooo. @@@",
"@@@@ .oooooooooooooooo    o. @@@",
"@@@ ..OOoooooo ++++oo ++++oo.@@@",
"@@@ ..oooooooo.    oo.    oo.@@@",
"@@@..ooooooo o   o   oo   ooo @@",
"@@@..o..ooo XO X O XX oXXX oo @@",
"@@@..o...oo X X.....X O... oo @@",
"@@ .....ooo X... ...X o... oo. @",
"@@ ...ooo.o.    O    .o   .oo. @",
"@ ..oO..  .ooooooooooooooo...   ",
"@  .oo  .o ...............   .o ",
"                                "
};
