/* XPM */
static char *result[] = {
/* columns rows colors chars-per-pixel */
"32 32 7 1 ",
"  c #11596E",
". c #30B173",
"X c #1C8C82",
"o c #64D88C",
"O c #B1F6B8",
"+ c white",
"@ c None",
/* pixels */
"@@@@@@@@@@@@@@@@@@@@@@@@@@@@@@@@",
"@@@@@@@@@@@@@@@@@@@@@@@@@@@@@@@@",
"@@@@@@@@@@@@@@@@@@@@@@@@@@@@@@@@",
"@@@@@@@@@@@@@@@@@@@@@@@@@@@@@@@@",
"@@@@@@@@@@@@@@@@@@@@@@@@@@@@@@@@",
"@@@@@@@@@@@@@@@@@@@@@@@@@@@@@@@@",
"@@@@@@@@@@@@@@@@@@@@@@@@@@@@@@@@",
"@@@@@@@@@@@@@@@@@@@@@@@@@@@@@@@@",
"@@@@@@@@@@@@@@@@@@@@@@@@@@@@@@@@",
"@@@@@@@@@@@@@@@@@@@@@@@@@@@@@@@@",
"@@@@@@@@@@@@@@@@@@@@@@@@@@@@@@@@",
"@@@@@@@@@@@@@@@@@@@@@@@@@@@@@@@@",
"@@@@@@@@@@@@@      @@@@@@@@@@@@@",
"@@@@@@@@@@   oooooo  @@@@@@@@@@@",
"@@@@@@@@@ oooooooOooo  @@@@@@@@@",
"@@@@@@@ .ooooooooooooOO @@@@@@@@",
"@@@@@@@..ooooooooooooOO. @@@@@@@",
"@@@@@@ .ooooooooooooo  o. @@@@@@",
"@@@@@ .oOOoooooo   o ++oo.@@@@@@",
"@@@@@ .ooooooooo + o ++oo.@@@@@@",
"@@@@ ..oOooooooo + o ++ooo @@@@@",
"@@@@ ..ooooooooo. .o.  ooo @@@@@",
"@@@@ ..ooooooo o  o ooo oo @@@@@",
"@@@@ ..oooooo  o  O  o X o @@@@@",
"@@@@ ..oooooo  O ... O X o @@@@@",
"@@@@ ..o..ooo  O ... O X o @@@@@",
"@@@@ .....ooo ...... O X o @@@@@",
"@@@@...o..ooo ... .. o X o. @@@@",
"@@@@....oo.oo.   O  .o. .o. @@@@",
"@@@  .o .. ..ooooooooooo..   @@@",
"@@@  .o   o  ...........  .o @@@",
"@@                            @@"
};
