/* XPM */
static char *result[] = {
/* columns rows colors chars-per-pixel */
"32 32 7 1 ",
"  c #11596E",
". c #30B173",
"X c #1C8C82",
"o c #64D88C",
"O c #B1F6B8",
"+ c white",
"@ c None",
/* pixels */
"@@@@@@@@@@@@@@@@@@@@@@@@@@@@@@@@",
"@@@@@@@@@@@@@@@@@@@@@@@@@@@@@@@@",
"@@@@@@@@@@@@@@@@@@@@@@@@@@@@@@@@",
"@@@@@@@@@@@@@@@@@@@@@@@@@@@@@@@@",
"@@@@@@@@@@@@@@@@@@@@@@@@@@@@@@@@",
"@@@@@@@@@@@@@@@@@@@@@@@@@@@@@@@@",
"@@@@@@@@@@@@@@@@@@@@@@@@@@@@@@@@",
"@@@@@@@@@@@@@@@@@@@@@@@@@@@@@@@@",
"@@@@@@@@@@@@@@@@@@@@@@@@@@@@@@@@",
"@@@@@@@@@@@@@@@@@@@@@@@@@@@@@@@@",
"@@@@@@@@@@@@@@@@@@@@@@@@@@@@@@@@",
"@@@@@@@@@@@@@@    @@@@@@@@@@@@@@",
"@@@@@@@@@@ ooooooOooo @@@@@@@@@@",
"@@@@@@@@@ .ooooooooooo @@@@@@@@@",
"@@@@@@@@ .oooooooooooOo @@@@@@@@",
"@@@@@@@ .ooooooooooOoooo @@@@@@@",
"@@@@@@@ .oooooooooooo  o @@@@@@@",
"@@@@@@ .oOOooooo + oo++ . @@@@@@",
"@@@@@@ .oooooooo + oo++ . @@@@@@",
"@@@@@ ..oooooooo + oo++ o. @@@@@",
"@@@@@ ..oooooooo. .oo  .o. @@@@@",
"@@@@@ ..ooooooooooooooooo. @@@@@",
"@@@@@ ..ooooo  o XO Xo X . @@@@@",
"@@@@@ ..ooooo  O . XXO . . @@@@@",
"@@@@@ ..ooooo  O ...XO . . @@@@@",
"@@@@@ ..o..oo X X...XO . . @@@@@",
"@@@@@ .....oo ......XO . . @@@@@",
"@@@@@...o..oo ... ..Xo . ..@@@@@",
"@@@@@....oo.o.   o   o. ...@@@@@",
"@@@@  .o .. ..oooooooooo..  @@@@",
"@@@@  .o   o  ..........  . @@@@",
"@@@                          @@@"
};
