/* XPM */
static char *result[] = {
/* columns rows colors chars-per-pixel */
"32 32 7 1 ",
"  c #11596E",
". c #30B173",
"X c #1C8C82",
"o c #64D88C",
"O c #B1F6B8",
"+ c white",
"@ c None",
/* pixels */
"@@@@@@@@@@@@@@@@@@@@@@@@@@@@@@@@",
"@@@@@@@@@@@@@@@@@@@@@@@@@@@@@@@@",
"@@@@@@@@@@@@@@@@@@@@@@@@@@@@@@@@",
"@@@@@@@@@@@@@@@@@@@@@@@@@@@@@@@@",
"@@@@@@@@@@@@@@@@@@@@@@@@@@@@@@@@",
"@@@@@@@@@@@@@@@@@@@@@@@@@@@@@@@@",
"@@@@@@@@@@@@@@@@@@@@@@@@@@@@@@@@",
"@@@@@@@@@@@@@@@@@@@@@@@@@@@@@@@@",
"@@@@@@@@@@@@@@@@@@@@@@@@@@@@@@@@",
"@@@@@@@@@@@@@@@@@@@@@@@@@@@@@@@@",
"@@@@@@@@@@@@@@@@@@@@@@@@@@@@@@@@",
"@@@@@@@@@@@@@@@@@@@@@@@@@@@@@@@@",
"@@@@@@@@@@@@@@@@@@@@@@@@@@@@@@@@",
"@@@@@@@@@@@@@@@@@@@@@@@@@@@@@@@@",
"@@@@@@@@@@@@@@@@@@@@@@@@@@@@@@@@",
"@@@@@@@@@@@         @@@@@@@@@@@@",
"@@@@@@@@@  ooooooooo   @@@@@@@@@",
"@@@@@@@.oooooooooooooooo @@@@@@@",
"@@@@@@ ooooooooooooooooOo @@@@@@",
"@@@@ ..oOooooooooooooOoooo @@@@@",
"@@@@ ..oooooooooooooo   oo @@@@@",
"@@@@..oOoooooo     o +++ o. @@@@",
"@@@@..oooooooo +++ o +++ o. @@@@",
"@@@ .ooooooooo.   .o.   .oo. @@@",
"@@@ .ooooooo     o  ooo  oo. @@@",
"@@@ .oo.ooo X  XXO X o XX o. @@@",
"@@@ .o...oo XXX..... O .X o. @@@",
"@@ ...o.ooo X... ... o .X o.. @@",
"@@ ....oo.o.    o   .o.  .o.. @@",
"@ . oO .  .oooooooooooooo...  @@",
"@   oo  .o ..............   .o@@",
"@                              @"
};
