/* XPM */
static char *result[] = {
/* columns rows colors chars-per-pixel */
"32 32 7 1 ",
"  c #11596E",
". c #30B173",
"X c #1C8C82",
"o c #64D88C",
"O c #B1F6B8",
"+ c white",
"@ c None",
/* pixels */
"@@@@@@@@@@@@@@@@@@@@@@@@@@@@@@@@",
"@@@@@@@@@@@@@@@@@@@@@@@@@@@@@@@@",
"@@@@@@@@@@@@@@@@@@@@@@@@@@@@@@@@",
"@@@@@@@@@@@@@@@@@@@@@@@@@@@@@@@@",
"@@@@@@@@@@@@@@@@@@@@@@@@@@@@@@@@",
"@@@@@@@@@@@@@@@@@@@@@@@@@@@@@@@@",
"@@@@@@@@@@@@@@@@@@@@@@@@@@@@@@@@",
"@@@@@@@@@@@@@@@@@@@@@@@@@@@@@@@@",
"@@@@@@@@@@@@@@@@@@@@@@@@@@@@@@@@",
"@@@@@@@@@@@@@@@@@@@@@@@@@@@@@@@@",
"@@@@@@@@@@@@@@@@@@@@@@@@@@@@@@@@",
"@@@@@@@@@@@@@@@@@@@@@@@@@@@@@@@@",
"@@@@@@@@@@@@@@@@@@@@@@@@@@@@@@@@",
"@@@@@@@@@@@@@@@@@@@@@@@@@@@@@@@@",
"@@@@@@@@@@@@@@@@@@@@@@@@@@@@@@@@",
"@@@@@@@@@@  ooooooooo  @@@@@@@@@",
"@@@@@@@@  ooooooooooooo  @@@@@@@",
"@@@@@@@.oooooooooooooooOOo @@@@@",
"@@@@@@ .oooooooooooooooOOo.@@@@@",
"@@@@@ .ooooooooooooooo   oo @@@@",
"@@@@ ..OOoooooo     o +++ o. @@@",
"@@@@ ..OOoooooo +++ o +++ o. @@@",
"@@@@..oOooooooo.   .o.   .oo. @@",
"@@@@..oooooooooooooooooooooo. @@",
"@@@@..oooooo Xo X O X oXXX o. @@",
"@@@@..o..ooo XO .X XX O..X o. @@",
"@@@@..o...oo X X....X O..X o. @@",
"@@@ .....ooo X... ..X o..X o..@@",
"@@@ ...ooooo.    O   .o   .o..@@",
"@@ ..oO.. ..oooooooooooooo...  @",
"@@  .oo  .  ..............   . @",
"@                               "
};
