/* XPM */
static char *result[] = {
/* columns rows colors chars-per-pixel */
"32 32 7 1 ",
"  c #11596E",
". c #30B173",
"X c #1C8C82",
"o c #64D88C",
"O c #B1F6B8",
"+ c white",
"@ c None",
/* pixels */
"@@@@@@@@@@@@@@@@@@@@@@@@@@@@@@@@",
"@@@@@@@@@@@@@@@@@@@@@@@@@@@@@@@@",
"@@@@@@@@@@@@@@@@@@@@@@@@@@@@@@@@",
"@@@@@@@@@@@@@@@@@@@@@@@@@@@@@@@@",
"@@@@@@@@@@@@@@@@@@@@@@@@@@@@@@@@",
"@@@@@@@@@@@@@@@@@@@@@@@@@@@@@@@@",
"@@@@@@@@@@@@@@@@@@@@@@@@@@@@@@@@",
"@@@@@@@@@@@@@@@@@@@@@@@@@@@@@@@@",
"@@@@@@@@@@@@@@@@@@@@@@@@@@@@@@@@",
"@@@@@@@@@@@@@@@@@@@@@@@@@@@@@@@@",
"@@@@@@@@@@@@@@@@@@@@@@@@@@@@@@@@",
"@@@@@@@@@@@@@@@@@@@@@@@@@@@@@@@@",
"@@@@@@@@@@@@@@@@@@@@@@@@@@@@@@@@",
"@@@@@@@@@@@@@@@@@@@@@@@@@@@@@@@@",
"@@@@@@@@@@@@@@@@@@@@@@@@@@@@@@@@",
"@@@@@@@@@@@@@@@@@@@@@@@@@@@@@@@@",
"@@@@@@@@@@@          @@@@@@@@@@@",
"@@@@@@@ ooooooooooooOooo @@@@@@@",
"@@@@@@ .ooooooooooooooooo @@@@@@",
"@@@@@..oooooooooooooooooOo.@@@@@",
"@@@@ .ooooooooooooooooOoooo @@@@",
"@@@@ .ooooooooooooooo    oo @@@@",
"@@@ .oOOoooooo++++ oo++++ o. @@@",
"@@@ .ooooooooo    .oo    .o. @@@",
"@@ ..oooooo  o   o   oo   oo. @@",
"@@ ..o..oooX OXX OXXXo XXX o. @@",
"@@ .....oooXX ......XO ..X o. @@",
"@ ...o..oooX...  ...Xo ..X o.. @",
"@ ....oo.oo    oO    o.   .o.. @",
"@. .o .. ..ooooooooooooooo...  @",
"@  .o   o  ...............   .o@",
"                                "
};
