/* XPM */
static char *result[] = {
/* columns rows colors chars-per-pixel */
"32 32 232 2 ",
"   c #211F30",
".  c #261F31",
"X  c #341E34",
"o  c #28222E",
"O  c #3E2A29",
"+  c #3E312C",
"@  c #222030",
"#  c #232030",
"$  c #232132",
"%  c #272430",
"&  c #2A2131",
"*  c #332433",
"=  c #332836",
"-  c #352936",
";  c #743D1C",
":  c #681F3F",
">  c #492D26",
",  c #4F3025",
"<  c #44332A",
"1  c #553F28",
"2  c #472335",
"3  c #472635",
"4  c #482535",
"5  c #5B2538",
"6  c #4B313B",
"7  c #4D313B",
"8  c #57383F",
"9  c #7B313C",
"0  c #5D4427",
"q  c #5F542F",
"w  c #4D4631",
"e  c #654926",
"r  c #6D4E25",
"t  c #754522",
"y  c #735224",
"u  c #7A5622",
"i  c #77682F",
"p  c #6A6031",
"a  c #6B6131",
"s  c #6C6231",
"d  c #6D6334",
"f  c #313040",
"g  c #353545",
"h  c #393746",
"j  c #383849",
"k  c #404153",
"l  c #454452",
"z  c #464756",
"x  c #504F5C",
"c  c #4D505E",
"v  c #4F505E",
"b  c #53515F",
"n  c #6A4E5D",
"m  c #6F6A51",
"M  c #555360",
"N  c #525563",
"B  c #5C5B67",
"V  c #5B5E6C",
"C  c #6E5766",
"Z  c #675F6D",
"A  c #5D616E",
"S  c #5E626F",
"D  c #606471",
"F  c #626774",
"G  c #646875",
"H  c #646975",
"J  c #656976",
"K  c #696E7A",
"L  c #6A6F7B",
"P  c #84293E",
"I  c #BE620F",
"U  c #A16E1E",
"Y  c #835920",
"T  c #887B32",
"R  c #C47415",
"E  c #901C4A",
"W  c #862F44",
"Q  c #902A40",
"!  c #912A40",
"~  c #992B41",
"^  c #843F51",
"/  c #A62C43",
"(  c #AF244B",
")  c #B52E45",
"_  c #BD2A4A",
"`  c #BB2F4B",
"'  c #C12B49",
"]  c #C73047",
"[  c #C83B47",
"{  c #CC3048",
"}  c #CD3148",
"|  c #CE3248",
" . c #D33A48",
".. c #D53A49",
"X. c #D93E49",
"o. c #82514F",
"O. c #965752",
"+. c #AF6F40",
"@. c #DC4149",
"#. c #DD4349",
"$. c #DF454A",
"%. c #E44A4A",
"&. c #E54E4D",
"*. c #E7675C",
"=. c #E9645A",
"-. c #E9655B",
";. c #B8A533",
":. c #CA8114",
">. c #C98817",
",. c #CD8916",
"<. c #CA861B",
"1. c #DCC636",
"2. c #E1CA33",
"3. c #E2CB36",
"4. c #AFA556",
"5. c #9F9861",
"6. c #EF816C",
"7. c #DFCF5E",
"8. c #E5D042",
"9. c #C9C17F",
"0. c #696E80",
"q. c #6A6F81",
"w. c #757C87",
"e. c #7B7A84",
"r. c #7A7C87",
"t. c #7E7D87",
"y. c #7D7F89",
"u. c #7C838E",
"i. c #80818A",
"p. c #928F82",
"a. c #818792",
"s. c #858D97",
"d. c #898891",
"f. c #8A8992",
"g. c #868E99",
"h. c #878F99",
"j. c #878F9A",
"k. c #89919B",
"l. c #88909E",
"z. c #8E929F",
"x. c #92919A",
"c. c #90969F",
"v. c #8E96A0",
"b. c #9196A3",
"n. c #9497A4",
"m. c #9299A3",
"M. c #919AA5",
"N. c #949BA7",
"B. c #969DA7",
"V. c #989EA7",
"C. c #969FA9",
"Z. c #969FAA",
"A. c #989FA9",
"S. c #97A1AA",
"D. c #97A0AB",
"F. c #98A2AD",
"G. c #9CA6AF",
"H. c #9FAAB3",
"J. c #A4A5AF",
"K. c #A8A8AE",
"L. c #A2A5B0",
"P. c #A6A9B4",
"I. c #A3ADB6",
"U. c #A3AEB6",
"Y. c #A5ACB5",
"T. c #A5ADB7",
"R. c #A8B3BB",
"E. c #B1B6BE",
"W. c #AFBBC3",
"Q. c #B3B9C0",
"!. c #B3BDC5",
"~. c #B8BEC5",
"^. c #BBC0C7",
"/. c #BEC3C9",
"(. c #BFC4CA",
"). c #BDC5CC",
"_. c #C9CBD1",
"`. c #C8CDD2",
"'. c #CACED4",
"]. c #CCCFD4",
"[. c #CAD0D5",
"{. c #CDD0D5",
"}. c #CBD2D8",
"|. c #CBD3D8",
" X c #CDD3D8",
".X c #CED5DA",
"XX c #CFD6DB",
"oX c #D0D0D4",
"OX c #D3D3D6",
"+X c #D5D7DC",
"@X c #D7D9DD",
"#X c #D4DBDF",
"$X c #D5DBDF",
"%X c #D9D9DB",
"&X c #DCDCDF",
"*X c #D9DFE3",
"=X c #DADFE3",
"-X c #E1E2E5",
";X c #E1E3E6",
":X c #E2E5E8",
">X c #E2E7E9",
",X c #E6E7EA",
"<X c #E8E7E9",
"1X c #E8EBEE",
"2X c #E8ECEE",
"3X c #E9ECEF",
"4X c #ECECEE",
"5X c #ECEFF1",
"6X c #EEEFF1",
"7X c #EDF0F1",
"8X c #EFF2F3",
"9X c #F0F2F3",
"0X c #F1F2F3",
"qX c #F2F4F5",
"wX c #F3F5F6",
"eX c #F4F4F4",
"rX c #F4F4F5",
"tX c #F4F5F7",
"yX c #F4F6F7",
"uX c #F6F8F8",
"iX c #F7F8F9",
"pX c #F8F8F9",
"aX c #F8F9F9",
"sX c #F9FAFA",
"dX c #F9FAFB",
"fX c #FAFBFB",
"gX c #FBFBFC",
"hX c #FBFCFC",
"jX c #FDFDFD",
"kX c #FEFEFE",
"lX c white",
"zX c None",
/* pixels */
"zXzXzXzXzXzXzXzXzXzXzXzXzXzXzXzXzXzXzXzXzXzXzXzXzXzXzXzXzXzXzXzX",
"zXzXzXzXzXzXzXzXzXzX= - * zXzXzXzXzXzXzXzXzXzXzXzXzXzXzXzXzXzXzX",
"zXzXzXzXzXzXzXzXzXzXO.6.&.X zXzXzXzXzXzXzXzXzXzXzXzXzXzXzXzXzXzX",
"zXzXzXzXzXzXzXzXzX8 =.%.$.E 4 7 zXzXzXzXzXzXzXzXzXzXzXzXzXzXzXzX",
"zXzXzXzXzXzXzXzXzX9 #.#.} ( X.-.6 zXzXzXzXzXzXzXzXzXzXzXzXzXzXzX",
"zXzXzXzXzXzXzXzX& [ ! ! ] | @.@.3 zXzXzXzXzXzXzXzXzXzXzXzXzXzXzX",
"zXzXzXzXzXzXzXzX. ^ e.e.W Q { ' : zXzXzXzXzXzXzXzXzXzXzXzXzXzXzX",
"zXzXzXzXzXzXzXzXd.K.lXlXx.Z ~ _ ` o.zXzXzXzXzXzXzXzXzXzXzXzXzXzX",
"zXzXzXzXzXzXzXk lXlXlXlXlX[.C / ..*.  zXzXzXzXzXzXzXzXzXzXzXzXzX",
"zXzXzXzXzXzX  J.P.,XL.L.L.tXu.P {  .  zXzXzXzXzXzXzXzXzXzXzXzXzX",
"zXzXzXzXzXzX  %X0.+Xn._.q.hX(.n ) 5 zXzXzXzXzXzXzXzXzXzXzXzXzXzX",
"zXzXzXzXzXzX  M j b.N.z.F.lX>XA 2 zXzXzXzXzXzXzXzXzXzXzXzXzXzXzX",
"zXzXzXzXzXzXp.9.;.4.l.'.5XlX>XA zXzXzXzXzXzXzX  zXzXzXzXzXzXzXzX",
"zXzXzXzXzXm 7.8.2.1.5.T.fXlX>XA zXzXzXzXzXzXh &Xt.  zXzXzXzXzXzX",
"zXzXzXzXzXd 3.R I I t h.sXlX>XM.g           4XlXeXx zXzXzXzXzXzX",
"zXzXzXzXzXs <.:.,.,.u s.sXlX>XD.-XpXpXpXpX!.B.lX/.I.$   zXzXzXzX",
"zXzXzXzXzXa p   >.U K 1XlXyXI.{.lXlXlXlXlXlXiX|.$X7XjX  zXzXzXzX",
"zXzXzXzXzXzX  zXo +.=XlXlXlXlXaXrXlXlXlXlXlXlXlXlXdXU.  zXzXzXzX",
"zXzXzXzXzXzXzXzXzXB lXlXlXlXaX^.A.lXlXlX<X9XlXhXdX).l zXzXzXzXzX",
"zXzXzXzXzXzXzXzXzXB lXlXlXgX].@XlXlXqXlXf.k.8X:X XY.5X  zXzXzXzX",
"zXzXzXzXzXzXzXzXzXB lXlXlX6XE.lXlXkX.X2X;Xv m.`.g.j.j.  zXzXzXzX",
"zXzXzXzXzXzXzXzXzXB lXlXlX6XE.lXlXlXwX}.~.Z.f C.z     zXzXzXzXzX",
"zXzXzXzXzXzXzXzXzXb oXlXlX6XE.lXlXlXlXlX3Xa.S F zXzXzXzXzXzXzXzX",
"zXzXzXzXzXzXzXzXzXzXr.yXlX0XV.OXlXlXuX*Xc.J H.  zXzXzXzXzXzXzXzX",
"zXzXzXzXzXzXzXzXzXzXc Q.#XXXS.y.d.d.i.G L R.D zXzXzXzXzXzXzXzXzX",
"zXzXzXzXzXzXzXzXzXzXzXN V W.W.v.w.w.w.w.G.H zXzXzXzXzXzXzXzXzXzX",
"zXzXzXzXzXzXzXzXzXzXzXzXzXN N N N N N N N zXzXzXzXzXzXzXzXzXzXzX",
"zXzXzXzXzXzXzXzXzXzXzXzXzXzX> , zXzX+ e   zXzXzXzXzXzXzXzXzXzXzX",
"zXzXzXzXzXzXzXzXzXzXzXzXzXzXzX; O zXzXy 1 zXzXzXzXzXzXzXzXzXzXzX",
"zXzXzXzXzXzXzXzXzXzXzXzXzXzXzXY < zXzXi q zXzXzXzXzXzXzXzXzXzXzX",
"zXzXzXzXzXzXzXzXzXzXzXzXzXzX0 r zXzXw T zXzXzXzXzXzXzXzXzXzXzXzX",
"zXzXzXzXzXzXzXzXzXzXzXzXzX  # zXzX  @ % zXzXzXzXzXzXzXzXzXzXzXzX"
};
