/* XPM */
static char *result[] = {
/* columns rows colors chars-per-pixel */
"32 32 229 2 ",
"   c #211F30",
".  c #2C1F33",
"X  c #24212F",
"o  c #26222F",
"O  c #29242F",
"+  c #30252C",
"@  c #3F2A29",
"#  c #392E2C",
"$  c #272031",
"%  c #242230",
"&  c #272232",
"*  c #282232",
"=  c #2A2730",
"-  c #3E2434",
";  c #332836",
":  c #67391F",
">  c #4A1E3A",
",  c #40332B",
"<  c #42342B",
"1  c #45352B",
"2  c #49372A",
"3  c #533124",
"4  c #462335",
"5  c #412E39",
"6  c #5A2538",
"7  c #5C2538",
"8  c #5F2B38",
"9  c #4E3932",
"0  c #5C5431",
"q  c #614726",
"w  c #725224",
"e  c #716631",
"r  c #786C31",
"t  c #7F7331",
"y  c #313041",
"u  c #353343",
"i  c #353545",
"p  c #731E42",
"a  c #693245",
"s  c #733F51",
"d  c #464553",
"f  c #4A4C5B",
"g  c #4D4F5D",
"h  c #694447",
"j  c #6D4859",
"k  c #7E4E5E",
"l  c #525563",
"z  c #545765",
"x  c #545666",
"c  c #565967",
"v  c #5A5865",
"b  c #575868",
"n  c #585C69",
"m  c #5A5E6B",
"M  c #5B5F6C",
"N  c #676672",
"B  c #646875",
"V  c #656A76",
"C  c #6D6C77",
"Z  c #6C717D",
"A  c #6C717E",
"S  c #72717B",
"D  c #75747F",
"F  c #8C4616",
"G  c #B37518",
"H  c #896020",
"J  c #8E6320",
"K  c #C06911",
"L  c #C47416",
"P  c #912A40",
"I  c #9C2B41",
"U  c #9C3841",
"Y  c #AA2D43",
"T  c #B32E44",
"R  c #B42E45",
"E  c #B4254B",
"W  c #B9294A",
"Q  c #BE2A49",
"!  c #A13442",
"~  c #BA3645",
"^  c #B4304C",
"/  c #C12F46",
"(  c #C42F47",
")  c #C42D49",
"_  c #CC3048",
"`  c #CD3148",
"'  c #D33849",
"]  c #D23D4A",
"[  c #925551",
"{  c #BF4145",
"}  c #AF5651",
"|  c #DA414B",
" . c #DD4349",
".. c #DF444A",
"X. c #E44A4A",
"o. c #E75752",
"O. c #C46F61",
"+. c #ED7665",
"@. c #AC952F",
"#. c #B1A139",
"$. c #CB8214",
"%. c #CC8615",
"&. c #CE8B16",
"*. c #C9841B",
"=. c #D2BE3B",
"-. c #D9C53C",
";. c #E1CA33",
":. c #9A9363",
">. c #97946E",
",. c #868779",
"<. c #B38E71",
"1. c #B9B06A",
"2. c #F0856E",
"3. c #E5D144",
"4. c #E3D258",
"5. c #717682",
"6. c #717783",
"7. c #727783",
"8. c #767883",
"9. c #757C87",
"0. c #797882",
"q. c #7B7A84",
"w. c #777E8A",
"e. c #787E8A",
"r. c #7D8590",
"t. c #85858E",
"y. c #808793",
"u. c #828695",
"i. c #808893",
"p. c #838B96",
"a. c #848B96",
"s. c #848C97",
"d. c #898891",
"f. c #878F99",
"g. c #878F9A",
"h. c #8B939F",
"j. c #8C939D",
"k. c #B0AE98",
"l. c #919BA7",
"z. c #9699A6",
"x. c #9A9AA1",
"c. c #989BA3",
"v. c #979CA8",
"b. c #969DA9",
"n. c #989BA8",
"m. c #97A1AB",
"M. c #9BA1AA",
"N. c #9CA3AD",
"B. c #9CA6B0",
"V. c #A0A6B0",
"C. c #A0A8B0",
"Z. c #A3A9B2",
"A. c #A5AAB2",
"S. c #A4AAB3",
"D. c #A2ADB6",
"F. c #A9ACB6",
"G. c #ACAEB8",
"H. c #A5B0B9",
"J. c #A6B1B9",
"K. c #AAB2BB",
"L. c #AEB2B9",
"P. c #ACB2BA",
"I. c #ADB3BB",
"U. c #B0B6BD",
"Y. c #ACB8C0",
"T. c #ADB9C1",
"R. c #AFBBC3",
"E. c #B4B7C0",
"W. c #B7BCC3",
"Q. c #BBBCC1",
"!. c #BFBEC3",
"~. c #B8BDC4",
"^. c #BDBFC7",
"/. c #BFC1C9",
"(. c #BCC5CC",
"). c #BFC9CF",
"_. c #C3C3C7",
"`. c #C7C9D0",
"'. c #C5CDD3",
"]. c #C9CFD5",
"[. c #CCCFD4",
"{. c #CBD2D8",
"}. c #CCD3D9",
"|. c #D1D3D8",
" X c #D2D3D9",
".X c #D3D6DA",
"XX c #D3D9DD",
"oX c #D4D8DC",
"OX c #D4DBDF",
"+X c #DCDCDF",
"@X c #D8DDE1",
"#X c #D9DFE3",
"$X c #DEDEE0",
"%X c #DDE0E3",
"&X c #DDE2E6",
"*X c #DEE3E6",
"=X c #E0E5E8",
"-X c #E1E5E8",
";X c #E4E8EB",
":X c #EAEAEB",
">X c #E8ECEE",
",X c #E9ECEE",
"<X c #ECEFF0",
"1X c #EEEEF0",
"2X c #EEEFF1",
"3X c #EDF0F1",
"4X c #EDF0F2",
"5X c #EEF0F2",
"6X c #F0F0F1",
"7X c #F2F2F3",
"8X c #F1F3F5",
"9X c #F2F2F4",
"0X c #F3F4F5",
"qX c #F4F4F6",
"wX c #F4F5F6",
"eX c #F4F6F7",
"rX c #F5F6F7",
"tX c #F6F8F9",
"yX c #F7F8F9",
"uX c #F7F9F9",
"iX c #F8F8F9",
"pX c #F9FAFA",
"aX c #FAFBFB",
"sX c #FBFCFC",
"dX c #FCFDFD",
"fX c #FDFDFD",
"gX c #FEFFFF",
"hX c white",
"jX c None",
/* pixels */
"jXjXjXjXjXjXjXjXjXjX& * $ jXjXjXjXjXjXjXjXjXjXjXjXjXjXjXjXjXjXjX",
"jXjXjXjXjXjXjXjXjX; O.2.{ . jXjXjXjXjXjXjXjXjXjXjXjXjXjXjXjXjXjX",
"jXjXjXjXjXjXjXjXjX[ o.X.] p - 5 jXjXjXjXjXjXjXjXjXjXjXjXjXjXjXjX",
"jXjXjXjXjXjXjXjXjXU ....) W  .+.  jXjXjXjXjXjXjXjXjXjXjXjXjXjXjX",
"jXjXjXjXjXjXjXjX8 ~ I I _ '  . .  jXjXjXjXjXjXjXjXjXjXjXjXjXjXjX",
"jXjXjXjXjXjXjXjX4 k C C P Y _ Q > jXjXjXjXjXjXjXjXjXjXjXjXjXjXjX",
"jXjXjXjXjXjXjXjXq._.hXhXD j T E ^ h jXjXjXjXjXjXjXjXjXjXjXjXjXjX",
"jXjXjXjXjXjXjXx hXhXhXhXtXA.s / | } jXjXjXjXjXjXjXjXjXjXjXjXjXjX",
"jXjXjXjXjXjX  E.`.|.G.G.^.&Xz R ` ! jXjXjXjXjXjXjXjXjXjXjXjXjXjX",
"jXjXjXjXjXjX  1Xz.F.F./.u.8XM.a ( 7 jXjXjXjXjXjXjXjXjXjXjXjXjXjX",
"jXjXjXjXjXjX  N b b.v.n.K.hX}.i 6 jXjXjXjXjXjXjXjXjXjXjXjXjXjXjX",
"jXjXjXjXjXjXk.1.#.>.l. X4XhX}.i jXjXjXjXjXjXjXjXjXjXjXjXjXjXjXjX",
"jXjXjXjXjX:.4.3.;.=.,.).hXhX}.i jXjXjXjXjXjXjX      jXjXjXjXjXjX",
"jXjXjXjXe -.L K K K 9 T.hXhX}.i jXjXjXjXjXjXS +X+X  jXjXjXjXjXjX",
"jXjXjXjXr *.$.%.%.%.2 T.hXhX}.p.          d 7XhXZ.B.  jXjXjXjXjX",
"jXjXjXjXjXo o # &.w j.sXhXhX}.h.iXiXiXiXiXH.W.hX(.dX!.  jXjXjXjX",
"jXjXjXjXjXjXjXjX3 <.3XhXhX*Xm.2XhXhXhXhXhXhX-X-XhXpXf.jXjXjXjXjX",
"jXjXjXjXjXjXjXjXjXx.hXhXhXhXhXrXwXhXhXhXhXhXhXhXhXJ.u jXjXjXjXjX",
"jXjXjXjXjXjXjXjXjXx.hXhXhXhX0XS.V.hXhXhX$XrXhXuXfXN.Q.  jXjXjXjX",
"jXjXjXjXjXjXjXjXjXx.hXhXhXqX~.9XhXaXyXhXv C.eX].-X,Xw.jXjXjXjXjX",
"jXjXjXjXjXjXjXjXjXx.hXhXhX[..XhXhX5X@X>X%Xf I.P.g.a.  jXjXjXjXjX",
"jXjXjXjXjXjXjXjXjXx.hXhXhX[..XhXhXhX;X{.U.y.n i.y   jXjXjXjXjXjX",
"jXjXjXjXjXjXjXjXjX0.:XhXhX[..XhXhXhXhXhX=X6.V g jXjXjXjXjXjXjXjX",
"jXjXjXjXjXjXjXjXjX  L.gXhXoXc.6XhXhX<X#X7.5.e.jXjXjXjXjXjXjXjXjX",
"jXjXjXjXjXjXjXjXjXjXM XXOX'.s.t.d.d.8.B A D.z jXjXjXjXjXjXjXjXjX",
"jXjXjXjXjXjXjXjXjXjXjXm Z R.R.r.9.9.9.9.Y.c jXjXjXjXjXjXjXjXjXjX",
"jXjXjXjXjXjXjXjXjXjXjXjXjXl l l l l l l l jXjXjXjXjXjXjXjXjXjXjX",
"jXjXjXjXjXjXjXjXjXjXjXjXjX  : + jXjXq < jXjXjXjXjXjXjXjXjXjXjXjX",
"jXjXjXjXjXjXjXjXjXjXjXjXjXjX@ F   jX, J O jXjXjXjXjXjXjXjXjXjXjX",
"jXjXjXjXjXjXjXjXjXjXjXjXjXjX  G   jX  @.= jXjXjXjXjXjXjXjXjXjXjX",
"jXjXjXjXjXjXjXjXjXjXjXjXjXjXH 1 jXjXt 0 jXjXjXjXjXjXjXjXjXjXjXjX",
"jXjXjXjXjXjXjXjXjXjXjXjXjX  X jXjX  % jXjXjXjXjXjXjXjXjXjXjXjXjX"
};
