/* XPM */
static char *result[] = {
/* columns rows colors chars-per-pixel */
"32 32 227 2 ",
"   c #211F30",
".  c #25212F",
"X  c #39282A",
"o  c #3C2B2A",
"O  c #3C302C",
"+  c #262031",
"@  c #242230",
"#  c #242233",
"$  c #292031",
"%  c #2F2232",
"&  c #282533",
"*  c #282635",
"=  c #2F2E3F",
"-  c #3F2634",
";  c #312B3C",
":  c #343134",
">  c #32303C",
",  c #491E39",
"<  c #402334",
"1  c #512437",
"2  c #5C2538",
"3  c #633720",
"4  c #612539",
"5  c #662E39",
"6  c #534B31",
"7  c #564E31",
"8  c #5A5231",
"9  c #343342",
"0  c #363443",
"q  c #3E3E4E",
"w  c #3E3F4E",
"e  c #701C43",
"r  c #593C42",
"t  c #703C41",
"y  c #57514F",
"u  c #404150",
"i  c #414352",
"p  c #474654",
"a  c #474857",
"s  c #494B59",
"d  c #4B4D5C",
"f  c #574857",
"g  c #4E505E",
"h  c #644245",
"j  c #754A4A",
"k  c #764B4B",
"l  c #6B5B48",
"z  c #7C5743",
"x  c #505260",
"c  c #525563",
"v  c #535563",
"b  c #555866",
"n  c #575967",
"m  c #5D5C68",
"M  c #5C606D",
"N  c #5D616F",
"B  c #6E6C63",
"V  c #6C606E",
"C  c #7D616E",
"Z  c #616572",
"A  c #626774",
"S  c #6D6C77",
"D  c #666A78",
"F  c #666B78",
"G  c #64687A",
"H  c #676C7E",
"J  c #686D79",
"K  c #71727D",
"L  c #72747F",
"P  c #8D2A3F",
"I  c #902B3F",
"U  c #85323D",
"Y  c #92661F",
"T  c #9A631B",
"R  c #9C691D",
"E  c #9D6D1D",
"W  c #BE620D",
"Q  c #A8731C",
"!  c #B37217",
"~  c #B0781A",
"^  c #8A7C32",
"/  c #C57715",
"(  c #8C2145",
")  c #A42C42",
"_  c #AC224B",
"`  c #B52E45",
"'  c #BF2F46",
"]  c #A53142",
"[  c #AE3943",
"{  c #C12F46",
"}  c #C22C49",
"|  c #C72E49",
" . c #C03E47",
".. c #C8334A",
"X. c #C9334A",
"o. c #CC3048",
"O. c #D03448",
"+. c #D33949",
"@. c #D43949",
"#. c #D53A49",
"$. c #D63B49",
"%. c #9F4145",
"&. c #925A54",
"*. c #A25D56",
"=. c #D2474E",
"-. c #D84E55",
";. c #E1474A",
":. c #E3494A",
">. c #E44A4A",
",. c #E65651",
"<. c #C26259",
"1. c #EB6B5E",
"2. c #EB6D5F",
"3. c #A29232",
"4. c #CE8B16",
"5. c #C8AB2E",
"6. c #DBB82D",
"7. c #E1CA33",
"8. c #9B935A",
"9. c #E1C442",
"0. c #EBD959",
"q. c #6A7081",
"w. c #787781",
"e. c #7B7C86",
"r. c #717788",
"t. c #82828B",
"y. c #818594",
"u. c #848C96",
"i. c #858D97",
"p. c #888891",
"a. c #878F9A",
"s. c #8B8F98",
"d. c #88909A",
"f. c #8A919B",
"g. c #88919C",
"h. c #8A929C",
"j. c #8D929C",
"k. c #8B949F",
"l. c #8F93A0",
"z. c #8E96A1",
"x. c #8F98A2",
"c. c #919AA4",
"v. c #939CA6",
"b. c #97A1AA",
"n. c #97A1AB",
"m. c #99A0AA",
"M. c #9DA0A8",
"N. c #9EA8B0",
"B. c #A2A5B0",
"V. c #A9B1B9",
"C. c #A9B2BA",
"Z. c #ACB2B9",
"A. c #AFB2B9",
"S. c #ABB4BC",
"D. c #AFB4BC",
"F. c #B8B8BD",
"G. c #BBB9BE",
"H. c #C4C09B",
"J. c #F5E985",
"K. c #AFBBC3",
"L. c #B5BBC2",
"P. c #B6BDC3",
"I. c #B3BEC6",
"U. c #BABFC6",
"Y. c #BAC0C6",
"T. c #BEC0C5",
"R. c #BDC2C8",
"E. c #BEC7CD",
"W. c #BEC8CF",
"Q. c #C1C0C5",
"!. c #C0C4CA",
"~. c #C2C6CC",
"^. c #C2C7CD",
"/. c #CACACE",
"(. c #C3CBD1",
"). c #C3CCD2",
"_. c #C7CDD2",
"`. c #C6CFD4",
"'. c #C7CFD5",
"]. c #CECED2",
"[. c #C8D0D6",
"{. c #CAD2D8",
"}. c #CED5DA",
"|. c #D1D1D4",
" X c #D2D4D8",
".X c #D5D4D8",
"XX c #D3D8DC",
"oX c #D5D8DC",
"OX c #D5DADD",
"+X c #D4DADF",
"@X c #D8D8DB",
"#X c #D5DBE0",
"$X c #D8DEE2",
"%X c #D9DFE3",
"&X c #DDDFE2",
"*X c #DBE1E4",
"=X c #DFE1E4",
"-X c #DDE2E6",
";X c #DEE3E6",
":X c #E1E0E3",
">X c #E1E1E3",
",X c #E1E5E8",
"<X c #E4E8EA",
"1X c #E5E8EB",
"2X c #E7E8EB",
"3X c #E7EAED",
"4X c #E9EBED",
"5X c #EBECEE",
"6X c #EFF1F3",
"7X c #EFF2F3",
"8X c #F2F3F4",
"9X c #F3F5F6",
"0X c gray96",
"qX c #F5F6F7",
"wX c #F6F7F8",
"eX c #F7F8F9",
"rX c #F8F8F9",
"tX c #F8F9FA",
"yX c #F9FAFA",
"uX c #F9FAFB",
"iX c #FBFBFC",
"pX c #FCFCFD",
"aX c #FDFDFD",
"sX c #FEFEFE",
"dX c #FEFEFF",
"fX c white",
"gX c None",
/* pixels */
"gXgXgXgXgXgXgXgXgXgXgXgXgXgXgXgXgXgXgXgXgXgXgXgXgXgXgXgXgXgXgXgX",
"gXgXgXgXgXgXgXgXgXgXgXgXgXgXgXgXgXgXgXgXgXgXgXgXgXgXgXgXgXgXgXgX",
"gXgXgXgXgXgXgXgXgXgXgXgXgXgXgXgXgXgXgXgXgXgXgXgXgXgXgXgXgXgXgXgX",
"gXgXgXgXgXgXgXgXgXgXgXgXgXgXgXgXgXgXgXgXgXgXgXgXgXgXgXgXgXgXgXgX",
"gXgXgXgXgXgXgXgXgXgXgXgXgXgXgXgXgXgXgXgXgXgXgXgXgXgXgXgXgXgXgXgX",
"gXgXgXgXgXgXgXgXgXgXgXgXgXgXgXgXgXgXgXgXgXgXgXgXgXgXgXgXgXgXgXgX",
"gXgXgXgXgXgXgXgXgXh k j 5 gXgXgXgXgXgXgXgXgXgXgXgXgXgXgXgXgXgXgX",
"gXgXgXgXgXgXgXgXr <.2.1. ., gXgXgXgXgXgXgXgXgXgXgXgXgXgXgXgXgXgX",
"gXgXgXgXgXgXgXgXt ,.>.:...( U % gXgXgXgXgXgXgXgXgXgXgXgXgXgXgXgX",
"gXgXgXgXgXgXgX- [ $.$.#.| X.;.*.  gXgXgXgXgXgXgXgXgXgXgXgXgXgXgX",
"gXgXgXgXgXgXgX< ] 2 2 4 o.O.@.-.  gXgXgXgXgXgXgXgXgXgXgXgXgXgXgX",
"gXgXgXgXgXgXgX$ C Q.Q.G.1 P o._ e gXgXgXgXgXgXgXgXgXgXgXgXgXgXgX",
"gXgXgXgXgXgX  ].>XfXfXaXT.V ) } =.&.gXgXgXgXgXgXgXgXgXgXgXgXgXgX",
"gXgXgXgXgX  .XfXfXfXfXfXpX_.f { +.%.gXgXgXgXgXgXgXgXgXgXgXgXgXgX",
"gXgXgXgXgX  0XfXfXfXfXfXfX$Xd ' o.I gXgXgXgXgXgX      gXgXgXgXgX",
"gXgXgXgXgX  G y.fXB.H H l.sX(.; ` + gXgXgXgXgX  >X:X  gXgXgXgXgX",
"gXgXgXgXgX* & > D c.r.q.`.fX'.=   gXgXgXgXgXgXF.fXk.u.# gXgXgXgX",
"gXgXgXgX: H.J.7.7.8.N.tXfXfX'.g.0 0 0 0 0 9 p.iXfXW.aXt.gXgXgXgX",
"gXgXgX8 0.9.6.6.6.6.B I.fXyXE.m.fXfXfXfXfX7XS.oXsXsXOXM gXgXgXgX",
"gXgXgX7 5./ W W W W o I.fX,XV.rXfXfXfXfXfXfXfX#XtXqXf.p gXgXgXgX",
"gXgXgXgX3 T E 4.4.~ y [.fXfX2X&XfXfXfXfXsX/.9XfXfXqXR.e.gXgXgXgX",
"gXgXgXgXgX    R ! l P.fXfX5XU.D.fXfX6XuXaXK Z.wX3XpX^.b gXgXgXgX",
"gXgXgXgXgXgXgXX z A.eXfX8X~.4XfXfXfX<X*X;XA.N  XC.XXA gXgXgXgXgX",
"gXgXgXgXgXgXgXgXw.fXfXfX=X!.fXfXfXfXfX-X+XL.A M.z.J gXgXgXgXgXgX",
"gXgXgXgXgXgXgXgXm |.fXfX=X!.fXfXfXfXfXfXdXY.J F c gXgXgXgXgXgXgX",
"gXgXgXgXgXgXgXgXgXs.eXfX1Xj.@XfXfXfXfX%X}.Z x.x gXgXgXgXgXgXgXgX",
"gXgXgXgXgXgXgXgXgXs P.{.).n.L S S S S n v h.i.q gXgXgXgXgXgXgXgX",
"gXgXgXgXgXgXgXgXgXgXa g K.K.v.a.a.a.a.a.d.b.i gXgXgXgXgXgXgXgXgX",
"gXgXgXgXgXgXgXgXgXgXgXgXu u u u u u u u u w gXgXgXgXgXgXgXgXgXgX",
"gXgXgXgXgXgXgXgXgXgXgXgXgXgX  Q   gX  3.  gXgXgXgXgXgXgXgXgXgXgX",
"gXgXgXgXgXgXgXgXgXgXgXgXgXgXY O gXgX^ 6 gXgXgXgXgXgXgXgXgXgXgXgX",
"gXgXgXgXgXgXgXgXgXgXgXgXgX  . gXgX  @ gXgXgXgXgXgXgXgXgXgXgXgXgX"
};
