/* XPM */
static char *result[] = {
/* columns rows colors chars-per-pixel */
"32 32 209 2 ",
"   c #211F30",
".  c #232030",
"X  c #272430",
"o  c #282636",
"O  c #2E2D3D",
"+  c #302735",
"@  c #332F31",
"#  c #35333B",
"$  c #621D3F",
"%  c #4D2B3D",
"&  c #512437",
"*  c #5E2639",
"=  c #42303B",
"-  c #602D38",
";  c #74273C",
":  c #5E4527",
">  c #4F4831",
",  c #6E4120",
"<  c #7F5922",
"1  c #6D653F",
"2  c #7B6F31",
"3  c #343242",
"4  c #363646",
"5  c #373746",
"6  c #373747",
"7  c #3D3D4D",
"8  c #3E3F4E",
"9  c #513041",
"0  c #523840",
"q  c #42414F",
"w  c #404150",
"e  c #444250",
"r  c #494B59",
"t  c #494C5E",
"y  c #4F4F5D",
"u  c #4D4F5E",
"i  c #50515E",
"p  c #7F694C",
"a  c #555966",
"s  c #5C5B67",
"d  c #585B69",
"f  c #585C69",
"g  c #5F5E6A",
"h  c #5A5E6C",
"j  c #5B5F6C",
"k  c #5D616E",
"l  c #5E626F",
"z  c #616572",
"x  c #646875",
"c  c #646976",
"v  c #666B77",
"b  c #606578",
"n  c #62677A",
"m  c #63687B",
"M  c #646A7C",
"N  c #6E7073",
"B  c #6E727E",
"V  c #89293F",
"C  c #89373F",
"Z  c #8B521B",
"A  c #93661F",
"S  c #84673E",
"D  c #C0660E",
"F  c #C17413",
"G  c #9A1E4B",
"H  c #8F2A40",
"J  c #892049",
"K  c #9C2B41",
"L  c #973140",
"P  c #A32E44",
"I  c #AF2D44",
"U  c #B52E45",
"Y  c #A53D43",
"T  c #BC3450",
"R  c #C62F47",
"E  c #C42E49",
"W  c #C72E48",
"Q  c #C93647",
"!  c #CC3048",
"~  c #CD3148",
"^  c #CE3248",
"/  c #CF364A",
"(  c #D13648",
")  c #D43949",
"_  c #D73D4A",
"`  c #D53F4A",
"'  c #905853",
"]  c #B14044",
"[  c #BF4245",
"{  c #AF695D",
"}  c #B36158",
"|  c #D74952",
" . c #C85F57",
".. c #E0464A",
"X. c #E9645A",
"o. c #BC8019",
"O. c #9A802D",
"+. c #C68617",
"@. c #CE8B16",
"#. c #CD8D1D",
"$. c #D8B12A",
"%. c #DFC331",
"&. c #E1CA33",
"*. c #E4CE3D",
"=. c #94834B",
"-. c #8E8A70",
";. c #C1B145",
":. c #D4A37F",
">. c #E7CF57",
",. c #696F81",
"<. c #6F7582",
"1. c #767682",
"2. c #787983",
"3. c #7A7A85",
"4. c #787C87",
"5. c #787E8A",
"6. c #7F8489",
"7. c #85848E",
"8. c #898A94",
"9. c #898C95",
"0. c #898C97",
"q. c #8D9394",
"w. c #8A939D",
"e. c #88909E",
"r. c #8D959F",
"t. c #91919A",
"y. c #8C95A0",
"u. c #9099A3",
"i. c #929BA4",
"p. c #959CA6",
"a. c #959DA7",
"s. c #959FA9",
"d. c #97A1AB",
"f. c #9AA0A8",
"g. c #98A0AA",
"h. c #9BA1AA",
"j. c #9AA1AB",
"k. c #9FA7AF",
"l. c #9FAAB3",
"z. c #A6A5AC",
"x. c #A6A6AC",
"c. c #A2AAB3",
"v. c #A3AEB6",
"b. c #AAA9B0",
"n. c #ACABB2",
"m. c #AFAFB5",
"M. c #A8B3BC",
"N. c #B0B8BF",
"B. c #BABABF",
"V. c #F4EA91",
"C. c #ACB8C0",
"Z. c #AFBBC3",
"A. c #B5B9C0",
"S. c #B7BBC2",
"D. c #B3BEC5",
"F. c #B5BDC4",
"G. c #BFBFC3",
"H. c #BAC1C8",
"J. c #BFC6CC",
"K. c #C1C3C9",
"L. c #C0C4CB",
"P. c #C0C5CB",
"I. c #C0C6CB",
"U. c #C6C5C9",
"Y. c #C5C8CE",
"T. c #C1CBD1",
"R. c #C5CED4",
"E. c #CECED2",
"W. c #CECFD5",
"Q. c #CDD1D6",
"!. c #CAD2D8",
"~. c #D2D6DA",
"^. c #D1D7DC",
"/. c #D5D8DC",
"(. c #D8D8DB",
"). c #D8DADE",
"_. c #D8DEE2",
"`. c #D9DFE3",
"'. c #DADFE3",
"]. c #DEDEE0",
"[. c #DFDFE1",
"{. c #DDDFE2",
"}. c #DAE0E3",
"|. c #DEE3E6",
" X c #E0E4E8",
".X c #E5E9EB",
"XX c #E5E9EC",
"oX c #E9ECEE",
"OX c #EAEEF0",
"+X c #EFF0F1",
"@X c #EDF0F2",
"#X c #EFF2F3",
"$X c #F0F1F3",
"%X c #F1F3F5",
"&X c #F3F3F5",
"*X c #F3F5F6",
"=X c #F5F7F8",
"-X c #F6F7F8",
";X c #F7F7F8",
":X c #F6F8F8",
">X c #F8F8F9",
",X c #FAFAFB",
"<X c #FBFCFC",
"1X c gray99",
"2X c #FCFCFD",
"3X c #FCFDFD",
"4X c #FEFEFE",
"5X c white",
"6X c None",
/* pixels */
"6X6X6X6X6X6X6X6X6X6X6X6X6X6X6X6X6X6X6X6X6X6X6X6X6X6X6X6X6X6X6X6X",
"6X6X6X6X6X6X6X6X6X6X6X6X6X6X6X6X6X6X6X6X6X6X6X6X6X6X6X6X6X6X6X6X",
"6X6X6X6X6X6X6X6X6X6X6X6X6X6X6X6X6X6X6X6X6X6X6X6X6X6X6X6X6X6X6X6X",
"6X6X6X6X6X6X6X6X6X6X6X6X6X6X6X6X6X6X6X6X6X6X6X6X6X6X6X6X6X6X6X6X",
"6X6X6X6X6X6X6X6X6X6X6X6X6X6X6X6X6X6X6X6X6X6X6X6X6X6X6X6X6X6X6X6X",
"6X6X6X6X6X6X6X6X6X6X6X6X6X6X6X6X6X6X6X6X6X6X6X6X6X6X6X6X6X6X6X6X",
"6X6X6X6X6X6X6X6X6X6X6X6X6X6X6X6X6X6X6X6X6X6X6X6X6X6X6X6X6X6X6X6X",
"6X6X6X6X6X6X6X6X6X6X6X6X6X6X6X6X6X6X6X6X6X6X6X6X6X6X6X6X6X6X6X6X",
"6X6X6X6X6X6X6X6X6X0 ' ' C 6X6X6X6X6X6X6X6X6X6X6X6X6X6X6X6X6X6X6X",
"6X6X6X6X6X6X6X6X+ } X.X._ $   6X6X6X6X6X6X6X6X6X6X6X6X6X6X6X6X6X",
"6X6X6X6X6X6X6X  Y | ) ) ! G L - 6X6X6X6X6X6X6X6X6X6X6X6X6X6X6X6X",
"6X6X6X6X6X6X6X  Q & & & R E .. .= 6X6X6X6X6X6X6X6X6X6X6X6X6X6X6X",
"6X6X6X6X6X6X6X  9 E.E.E.% * ( T J   6X6X6X6X6X6X6X6X6X6X6X6X6X6X",
"6X6X6X6X6X6X  U.[.5X5X5X].0.; W ` [   6X6X6X6X6X6X6X6X6X6X6X6X6X",
"6X6X6X6X6X6Xx.1X5X5X5X5X5XoX1.H ^ / { 6X6X6X6X6X6X6X6X6X6X6X6X6X",
"6X6X6X6X6X6Xm.5X5X5X5X5X5X%X5.V ! ~ ]   6X6X6X6X6X6X6X6X6X6X6X6X",
"6X6X6X6X6X6Xt b ,XW.m n M 5X Xf I ! K 6X6X6X6X6Xo o o   6X6X6X6X",
"6X6X6X6X6X6X# @ N 6.e.,.D.5X Xl P U   6X6X6X6X6Xb.5X$XO 6X6X6X6X",
"6X6X6X6X6X-.V.*.&.;.q.C.<X5X Xs.y e e e e e q 2.;X5Xy.k.3 6X6X6X",
"6X6X6X6X1 >.$.$.$.$.=.d.<X2X^.c.+X5X5X5X5X5X:XF.Q.<XT.<Xt.6X6X6X",
"6X6X6X  %.#.D D D D , f.3X=XH.{.5X5X5X5X5X5X5X5X|.*X5X~.z   6X6X",
"6X6X6X  O.Z A +.@.o.p (.5X5X+X/.>X5X5X5X5X5XB.@X5X5X4Xp.s 6X6X6X",
"6X6X6X6X      < F S G.5X5X-XY.S.&X5X5X#X=X5X3.h.%XXX4XP.8.6X6X6X",
"6X6X6X6X6X6X6X  :.n.5X5X5XY.).5X5X5X5XOX_.`.A.h K.N.`.I.a 6X6X6X",
"6X6X6X6X6X6X6X  5X5X5X5X5Xj.5X5X5X5X5X5X.X'.L.<.9.a.x j 6X6X6X6X",
"6X6X6X6X6X6X6X6X7.5X5X5X5Xj.5X5X5X5X5X5X5X5XJ.c v u 6X6X6X6X6X6X",
"6X6X6X6X6X6X6X6XO }.5X5X5Xg.z.5X5X5X5X5X}.!.d u.k 6X6X6X6X6X6X6X",
"6X6X6X6X6X6X6X6X6XB R.R.R.M.4.g g g g g i r r.w.8 6X6X6X6X6X6X6X",
"6X6X6X6X6X6X6X6X6X6Xw i.Z.Z.v.u.u.u.u.u.u.u.l.7 6X6X6X6X6X6X6X6X",
"6X6X6X6X6X6X6X6X6X6X6X4 6 6 6 6 6 6 6 6 6 6 5 6X6X6X6X6X6X6X6X6X",
"6X6X6X6X6X6X6X6X6X6X6X6X6X6X: : 6X6X> 2 6X6X6X6X6X6X6X6X6X6X6X6X",
"6X6X6X6X6X6X6X6X6X6X6X6X6X  . 6X6X  . X 6X6X6X6X6X6X6X6X6X6X6X6X"
};
