/* XPM */
static char *result[] = {
/* columns rows colors chars-per-pixel */
"32 32 227 2 ",
"   c #211F30",
".  c #231F30",
"X  c #2C1F33",
"o  c #23202F",
"O  c #26222F",
"+  c #3A2F2C",
"@  c #222030",
"#  c #232030",
"$  c #242030",
"%  c #272131",
"&  c #272330",
"*  c #272430",
"=  c #282232",
"-  c #282637",
";  c #2C2B3B",
":  c #3D2334",
">  c #3B3630",
",  c #3C3730",
"<  c #723C1D",
"1  c #452C27",
"2  c #432B28",
"3  c #49362A",
"4  c #533124",
"5  c #4E2336",
"6  c #4D2736",
"7  c #412B37",
"8  c #51353D",
"9  c #51363E",
"0  c #66203E",
"q  c #68263A",
"w  c #6E2F3A",
"e  c #7F283D",
"r  c #584128",
"t  c #594228",
"y  c #474131",
"u  c #694C25",
"i  c #7D4D24",
"p  c #65592F",
"a  c #705024",
"s  c #715124",
"d  c #7E5621",
"f  c #7F5721",
"g  c #71632F",
"h  c #323040",
"j  c #383848",
"k  c #3B3A49",
"l  c #39394B",
"z  c #3C3D4F",
"x  c #484959",
"c  c #4E4C5A",
"v  c #4C4E5C",
"b  c #53515E",
"n  c #774A4B",
"m  c #6D4D5D",
"M  c #67624D",
"N  c #515462",
"B  c #525563",
"V  c #555461",
"C  c #545562",
"Z  c #5F5967",
"A  c #5E5C69",
"S  c #5B5E6C",
"D  c #6C5362",
"F  c #5D616E",
"G  c #626570",
"H  c #616572",
"J  c #616673",
"K  c #646875",
"L  c #646976",
"P  c #656976",
"I  c #6D6C77",
"U  c #676B78",
"Y  c #64697C",
"T  c #696E7B",
"R  c #A7721C",
"E  c #8D7F32",
"W  c #B46E37",
"Q  c #C06911",
"!  c #C67712",
"~  c #911C4A",
"^  c #982B41",
"/  c #9C2B41",
"(  c #9D2B41",
")  c #8D3146",
"_  c #893A4D",
"`  c #A82C43",
"'  c #AB224C",
"]  c #B42E45",
"[  c #B72C4C",
"{  c #BC294A",
"}  c #C72F47",
"|  c #C32C49",
" . c #CC3048",
".. c #CE3248",
"X. c #CE3D48",
"o. c #D63B49",
"O. c #D73C49",
"+. c #895350",
"@. c #DD4349",
"#. c #DF444A",
"$. c #E1464A",
"%. c #E44A4A",
"&. c #E5504E",
"*. c #EA665B",
"=. c #EA685C",
"-. c #EB6C5F",
";. c #AB9A32",
":. c #CC8615",
">. c #CE8B16",
",. c #CF9425",
"<. c #D4A526",
"1. c #CFBB38",
"2. c #DAC537",
"3. c #E1CA33",
"4. c #ADA358",
"5. c #87857A",
"6. c #A09A63",
"7. c #BBB47A",
"8. c #F0856E",
"9. c #E6D249",
"0. c #DACB63",
"q. c #6C7183",
"w. c #757681",
"e. c #757C87",
"r. c #7B7A84",
"t. c #7C7E88",
"y. c #81828B",
"u. c #808893",
"i. c #848A95",
"p. c #848C97",
"a. c #898891",
"s. c #8A8992",
"d. c #868E99",
"f. c #878F99",
"g. c #878F9A",
"h. c #878F9D",
"j. c #908F97",
"k. c #8C909E",
"l. c #8F96A0",
"z. c #8F98A2",
"x. c #9499A2",
"c. c #9799A3",
"v. c #9299A4",
"b. c #939CA7",
"n. c #949DA7",
"m. c #9A99A1",
"M. c #979CA8",
"N. c #969DA9",
"B. c #959EAA",
"V. c #989BA8",
"C. c #989EA8",
"Z. c #989FA9",
"A. c #97A0AA",
"S. c #98A2AC",
"D. c #99A3AC",
"F. c #9AA4AE",
"G. c #9DA7B0",
"H. c #A4AFB8",
"J. c #A7AFB9",
"K. c #ACAEB8",
"L. c #A6B1B9",
"P. c #ADB0B9",
"I. c #ADB2BA",
"U. c #AFB5BC",
"Y. c #AEB9C1",
"T. c #AFBBC3",
"R. c #B3B8C0",
"E. c #B5BFC7",
"W. c #B9BFC6",
"Q. c #BCC1C7",
"!. c #BFC1C9",
"~. c #BEC2C9",
"^. c #C0C4CB",
"/. c #C6CACF",
"(. c #C1CAD0",
"). c #C9CDD2",
"_. c #CECDD1",
"`. c #C8CED4",
"'. c #D0CFD3",
"]. c #CBD0D5",
"[. c #C9D1D6",
"{. c #CBD2D7",
"}. c #CED1D6",
"|. c #CBD2D8",
" X c #CDD4D9",
".X c #D2D2D5",
"XX c #D4D7DB",
"oX c #D0D7DC",
"OX c #D4DBDF",
"+X c #D5DBDF",
"@X c #DCDCDF",
"#X c #DADBE0",
"$X c #D9DFE3",
"%X c #DDDFE2",
"&X c #E1E4E7",
"*X c #E2E6E9",
"=X c #E5E8EA",
"-X c #E5E9EB",
";X c #E6E9EC",
":X c #E9E9EA",
">X c #E8EBED",
",X c #E8ECEE",
"<X c #EBECEE",
"1X c #EAEDEF",
"2X c #ECECED",
"3X c #EDF0F2",
"4X c #EEF0F2",
"5X c #EFF1F2",
"6X c #EFF1F3",
"7X c #F1F3F5",
"8X c #F2F3F4",
"9X c #F3F5F6",
"0X c #F4F4F5",
"qX c #F4F5F6",
"wX c #F4F6F7",
"eX c #F6F8F8",
"rX c #F7F8F9",
"tX c #F7F9F9",
"yX c #F8F8F9",
"uX c #F8F9FA",
"iX c #F9F9FA",
"pX c #F9FAFA",
"aX c #FBFCFC",
"sX c #FCFCFD",
"dX c #FDFDFE",
"fX c white",
"gX c None",
/* pixels */
"gXgXgXgXgXgXgXgXgXgXgX= % gXgXgXgXgXgXgXgXgXgXgXgXgXgXgXgXgXgXgX",
"gXgXgXgXgXgXgXgXgXgX+.8.&.X gXgXgXgXgXgXgXgXgXgXgXgXgXgXgXgXgXgX",
"gXgXgXgXgXgXgXgXgX9 =.%.$.~ : 7 gXgXgXgXgXgXgXgXgXgXgXgXgXgXgXgX",
"gXgXgXgXgXgXgXgXgXw #.#...' O.*.8 gXgXgXgXgXgXgXgXgXgXgXgXgXgXgX",
"gXgXgXgXgXgXgXgX$ X./ / } ..@.@.6 gXgXgXgXgXgXgXgXgXgXgXgXgXgXgX",
"gXgXgXgXgXgXgXgX. _ I I ) ^  .| 0 gXgXgXgXgXgXgXgXgXgXgXgXgXgXgX",
"gXgXgXgXgXgXgXgXr.m.fXfXs.Z ( { [ n gXgXgXgXgXgXgXgXgXgXgXgXgXgX",
"gXgXgXgXgXgXgXz fXfXfXfXfX`.D ` o.-.  gXgXgXgXgXgXgXgXgXgXgXgXgX",
"gXgXgXgXgXgX  c.P.<XK.K.K.eXu.e  .O.  gXgXgXgXgXgXgXgXgXgXgXgXgX",
"gXgXgXgXgXgX  .XY #Xk.!.q.aXQ.m ] q gXgXgXgXgXgXgXgXgXgXgXgXgXgX",
"gXgXgXgXgXgX  A l M.N.V.B.fX-XJ 5 gXgXgXgXgXgXgXgXgXgXgXgXgXgXgX",
"gXgXgXgXgXgX5.7.;.4.h.^.;XfX-XJ gXgXgXgXgXgXgXgXgXgXgXgXgXgXgXgX",
"gXgXgXgXgXM 0.9.3.2.6.J.uXfX-XJ gXgXgXgXgXgXgX      gXgXgXgXgXgX",
"gXgXgXgX> 1.,.Q Q Q i p.eXfX-XJ gXgXgXgXgXgXh @X@Xb gXgXgXgXgXgX",
"gXgXgXgX, <.! :.:.:.f u.eXfX-Xb.j           2XfX/.G.-   gXgXgXgX",
"gXgXgXgXgX& O O >.R G *XfXfX-XS.%XyXyXyXyXE.v.fX+X>XyX  gXgXgXgX",
"gXgXgXgXgXgXgXgXo W +XfXfXrXH.).fXfXfXfXfXfXpX[.fXdXY.  gXgXgXgX",
"gXgXgXgXgXgXgXgXgXV fXfXfXfXfXiX0XfXfXfXfXfXfXfXfX(.k gXgXgXgXgX",
"gXgXgXgXgXgXgXgXgXV fXfXfXfXiX~.Z.dXfXfX:X5XfXaXpXR.4X  gXgXgXgX",
"gXgXgXgXgXgXgXgXgXV fXfXfXsX}.XXfXfX7XfXj.f.6X=X{.3Xn.  gXgXgXgX",
"gXgXgXgXgXgXgXgXgXV fXfXfX8XI.fXfXfX X,X&XC l.].d.g.- gXgXgXgXgX",
"gXgXgXgXgXgXgXgXgXV fXfXfX8XI.fXfXfXwX|.W.A.; S.x   gXgXgXgXgXgX",
"gXgXgXgXgXgXgXgXgXc _.fXfX8XI.fXfXfXfXfX1Xi.F L gXgXgXgXgXgXgXgX",
"gXgXgXgXgXgXgXgXgXgXw.9XfXqXC.'.fXfXtX$Xx.P H.  gXgXgXgXgXgXgXgX",
"gXgXgXgXgXgXgXgXgXgXv U.OXoXD.t.a.a.y.K T L.H gXgXgXgXgXgXgXgXgX",
"gXgXgXgXgXgXgXgXgXgXgXN S T.T.z.e.e.e.e.F.U gXgXgXgXgXgXgXgXgXgX",
"gXgXgXgXgXgXgXgXgXgXgXgXgXB B B B B B B B gXgXgXgXgXgXgXgXgXgXgX",
"gXgXgXgXgXgXgXgXgXgXgXgXgXgX1 4 gXgX+ u   gXgXgXgXgXgXgXgXgXgXgX",
"gXgXgXgXgXgXgXgXgXgXgXgXgXgXgX< 2 gXgXa t gXgXgXgXgXgXgXgXgXgXgX",
"gXgXgXgXgXgXgXgXgXgXgXgXgXgXgXd 3 gXgXg p gXgXgXgXgXgXgXgXgXgXgX",
"gXgXgXgXgXgXgXgXgXgXgXgXgXgXr s gXgXy E gXgXgXgXgXgXgXgXgXgXgXgX",
"gXgXgXgXgXgXgXgXgXgXgXgXgX  # gXgX  @ * gXgXgXgXgXgXgXgXgXgXgXgX"
};
