/* XPM */
static char *result[] = {
/* columns rows colors chars-per-pixel */
"32 32 215 2 ",
"   c #211F30",
".  c #26222F",
"X  c #31292E",
"o  c #222031",
"O  c #232132",
"+  c #242233",
"@  c #242333",
"#  c #252333",
"$  c #262430",
"%  c #282532",
"&  c #282635",
"*  c #282636",
"=  c #282637",
"-  c #372133",
";  c #3C2534",
":  c #3D2436",
">  c #332F30",
",  c #3E2E39",
"<  c #353238",
"1  c #5E1D3E",
"2  c #45362B",
"3  c #563223",
"4  c #452537",
"5  c #482335",
"6  c #512437",
"7  c #5C2538",
"8  c #5D2538",
"9  c #602D38",
"0  c #632D39",
"q  c #642E39",
"w  c #722B3B",
"e  c #313040",
"r  c #323141",
"t  c #363443",
"y  c #373747",
"u  c #383948",
"i  c #3A3B4A",
"p  c #583E4F",
"a  c #404150",
"s  c #424150",
"d  c #414251",
"f  c #444451",
"g  c #454452",
"h  c #494B59",
"j  c #4A4C5B",
"k  c #4C4E5D",
"l  c #52505E",
"z  c #59575B",
"x  c #505260",
"c  c #525563",
"v  c #575967",
"b  c #5F6370",
"n  c #7B6761",
"m  c #7A7A6C",
"M  c #646975",
"N  c #686B77",
"B  c #6D6C77",
"V  c #616678",
"C  c #666A78",
"Z  c #656A7C",
"A  c #676C7E",
"S  c #686D7A",
"D  c #6A6F7B",
"F  c #6E6C78",
"G  c #6A6F7C",
"H  c #6A707C",
"J  c #6B707C",
"K  c #6C727E",
"L  c #76747F",
"P  c #80263F",
"I  c #81293D",
"U  c #832B3E",
"Y  c #8B2E3F",
"T  c #95383F",
"R  c #844318",
"E  c #BA570B",
"W  c #95681F",
"Q  c #BE620D",
"!  c #A46C1B",
"~  c #AA6F19",
"^  c #A3701D",
"/  c #A9741C",
"(  c #BC7F19",
")  c #8D7F32",
"_  c #9B2A45",
"`  c #A3234B",
"'  c #B43344",
"]  c #C72F47",
"[  c #C32C49",
"{  c #C52D49",
"}  c #C53648",
"|  c #CA3048",
" . c #CC3048",
".. c #CD3148",
"X. c #D33749",
"o. c #D43B49",
"O. c #8D4D4C",
"+. c #895551",
"@. c #905853",
"#. c #965C55",
"$. c #BF504E",
"%. c #DC424A",
"&. c #D94C54",
"*. c #D25056",
"=. c #DB5559",
"-. c #E44A4A",
";. c #D8655F",
":. c #B6A432",
">. c #B9A632",
",. c #BAA732",
"<. c #CE8B16",
"1. c #D8B02A",
"2. c #DBB82D",
"3. c #E1CA33",
"4. c #C9BE6D",
"5. c #F0E26F",
"6. c #767984",
"7. c #757B88",
"8. c #7A7D88",
"9. c #787C8C",
"0. c #7A818D",
"q. c #7F8695",
"w. c #83858F",
"e. c #818894",
"r. c #898C96",
"t. c #878F9A",
"y. c #9C8D96",
"u. c #88909A",
"i. c #8A929C",
"p. c #939CA6",
"a. c #97A1AB",
"s. c #9AA0A8",
"d. c #9BA4AE",
"f. c #9EA4AD",
"g. c #A8A7AE",
"h. c #A0A6B0",
"j. c #A1A9B2",
"k. c #A0AAB3",
"l. c #ACAEB9",
"z. c #A5B0B9",
"x. c #A9B2BB",
"c. c #ABB2BA",
"v. c #ACB1B8",
"b. c #ADB2BA",
"n. c #ADB3BA",
"m. c #AAB5BD",
"M. c #AEB6BD",
"N. c #ACB7BF",
"B. c #B6B6BB",
"V. c #B0B5BD",
"C. c #F8F3BE",
"Z. c #AFBBC3",
"A. c #B1BBC3",
"S. c #B4BBC2",
"D. c #B0BCC4",
"F. c #BABCC5",
"G. c #BFC0C5",
"H. c #BCC0C7",
"J. c #BCC1C7",
"K. c #BCC3C9",
"L. c #BFC3CA",
"P. c #BBC6CC",
"I. c #C1C0C5",
"U. c #C2CBD1",
"Y. c #C3CCD2",
"T. c #C6CCD2",
"R. c #C9CED2",
"E. c #CECED2",
"W. c #CAD0D5",
"Q. c #C9D1D7",
"!. c #CAD2D8",
"~. c #CFD4D8",
"^. c #CED4D9",
"/. c #CFD6DB",
"(. c #CFD7DB",
"). c #D4D3D7",
"_. c #D1D6DA",
"`. c #D5D7DA",
"'. c #D0D7DC",
"]. c #D5DBDF",
"[. c #D6DCE0",
"{. c #D8DEE2",
"}. c #D9DEE2",
"|. c #DBDFE3",
" X c #DDDFE3",
".X c #DCE1E5",
"XX c #DFE1E4",
"oX c #DEE3E7",
"OX c #E0E2E5",
"+X c #E2E4E7",
"@X c #E4E4E6",
"#X c #E4E5E8",
"$X c #E4E6E8",
"%X c #E7EBED",
"&X c #E8ECEE",
"*X c #EBECEE",
"=X c #ECECEE",
"-X c #EFEFF0",
";X c #EEF0F2",
":X c #F2F2F3",
">X c #F2F4F6",
",X c #F3F5F6",
"<X c #F5F5F6",
"1X c #F5F7F8",
"2X c #F7F9F9",
"3X c #F9F9F9",
"4X c #F8F9FA",
"5X c #F9FAFB",
"6X c #FAFBFB",
"7X c #FDFDFD",
"8X c #FDFDFE",
"9X c #FEFEFE",
"0X c #FEFEFF",
"qX c white",
"wX c None",
/* pixels */
"wXwXwXwXwXwXwXwXwXwXwXwXwXwXwXwXwXwXwXwXwXwXwXwXwXwXwXwXwXwXwXwX",
"wXwXwXwXwXwXwXwXwXwXwXwXwXwXwXwXwXwXwXwXwXwXwXwXwXwXwXwXwXwXwXwX",
"wXwXwXwXwXwXwXwXwXwXwXwXwXwXwXwXwXwXwXwXwXwXwXwXwXwXwXwXwXwXwXwX",
"wXwXwXwXwXwXwXwXwXwXwXwXwXwXwXwXwXwXwXwXwXwXwXwXwXwXwXwXwXwXwXwX",
"wXwXwXwXwXwXwXwXwXwXwXwXwXwXwXwXwXwXwXwXwXwXwXwXwXwXwXwXwXwXwXwX",
"wXwXwXwXwXwXwXwXwXwXwXwXwXwXwXwXwXwXwXwXwXwXwXwXwXwXwXwXwXwXwXwX",
"wXwXwXwXwXwXwXwXwXwXwXwXwXwXwXwXwXwXwXwXwXwXwXwXwXwXwXwXwXwXwXwX",
"wXwXwXwXwXwXwXwXwXwXwXwXwXwXwXwXwXwXwXwXwXwXwXwXwXwXwXwXwXwXwXwX",
"wXwXwXwXwXwXwXwXwX  +.@.O.9     wXwXwXwXwXwXwXwXwXwXwXwXwXwXwXwX",
"wXwXwXwXwXwXwXwXq Y *.=.&._ P T wXwXwXwXwXwXwXwXwXwXwXwXwXwXwXwX",
"wXwXwXwXwXwXwXwXw U 7 7 I [ o.-.#.wXwXwXwXwXwXwXwXwXwXwXwXwXwXwX",
"wXwXwXwXwXwXwXwX- y.I.I.y.6 ' X.$.  wXwXwXwXwXwXwXwXwXwXwXwXwXwX",
"wXwXwXwXwXwXwXl E.-XqXqX-Xv.p | ` 1 wXwXwXwXwXwXwXwXwXwXwXwXwXwX",
"wXwXwXwXwXwX+ @XqXqXqXqXqX4XM.: { } 0 wXwXwXwXwXwXwXwXwXwXwXwXwX",
"wXwXwXwXwXwX@ qXqXqXqXqXqXqXU.O  ...;., wXwXwXwXwXwXwXwXwXwXwXwX",
"wXwXwXwXwXwXo A l.qX9.A A F.8XN.5  .%.; wXwXwXwX      wXwXwXwXwX",
"wXwXwXwXwXwX& % f C z.Z q..XqXD.4 ] 8 wXwXwXwX* <X9Xg.wXwXwXwXwX",
"wXwXwXwXwX< C.5.3.3.m A.6XqXqXD.7.t t t t t r G.0X*Xd.N # wXwXwX",
"wXwXwXwX  4.3.2.2.2.2.V Q.qX1Xm.b.qXqXqXqXqX.Xj.;X,X[.2Xg wXwXwX",
"wXwXwXwXwX,.1.Q Q Q Q e Q.qX/.h.qXqXqXqXqXqXqXqXY.qX4XS.u wXwXwX",
"wXwXwXwXwX,.E / <.<.^ v {.qXqX X#XqXqXqXqX=X`.5XqXqX|.8.wXwXwXwX",
"wXwXwXwXwX) R 2 ~ ! z '.qXqXXXV.L.qXqX%XqX).6.R.9X&XOX~.s wXwXwX",
"wXwXwXwXwXwX  wX3 n T.qXqX$XH.9XqXqXqX[.oX}.r.D 3Xx.oXf.y wXwXwX",
"wXwXwXwXwXwXwXwXwXB.qXqXqXJ.+XqXqXqXqXqX].^.c.d _.e.K j wXwXwXwX",
"wXwXwXwXwXwXwXwXwXL :XqXqXJ.+XqXqXqXqXqXqX>Xs.G M k wXwXwXwXwXwX",
"wXwXwXwXwXwXwXwXwX  K.qXqXW.w.7XqXqXqXqX(.n.S k.= wXwXwXwXwXwXwX",
"wXwXwXwXwXwXwXwXwXwXx !.!.P.i.F B B B B c b a.J wXwXwXwXwXwXwXwX",
"wXwXwXwXwXwXwXwXwXwXwXh H Z.Z.u.t.t.t.t.t.p.0.wXwXwXwXwXwXwXwXwX",
"wXwXwXwXwXwXwXwXwXwXwXwXwXa a a a a a a a a i wXwXwXwXwXwXwXwXwX",
"wXwXwXwXwXwXwXwXwXwXwXwXwXwXwX  W   wX  :.  wXwXwXwXwXwXwXwXwXwX",
"wXwXwXwXwXwXwXwXwXwXwXwXwXwX  ( X wX  >.> wXwXwXwXwXwXwXwXwXwXwX",
"wXwXwXwXwXwXwXwXwXwXwXwXwX    . wXwX  $ wXwXwXwXwXwXwXwXwXwXwXwX"
};
