/* XPM */
static char *result[] = {
/* columns rows colors chars-per-pixel */
"32 32 225 2 ",
"   c #211F30",
".  c #25212F",
"X  c #392E2C",
"o  c #232030",
"O  c #242230",
"+  c #262435",
"@  c #2C2032",
"#  c #2E2D3D",
"$  c #3A2133",
"%  c #3B2334",
"&  c #3C2234",
"*  c #421E38",
"=  c #5E1D3E",
"-  c #402B29",
";  c #41332B",
":  c #533124",
">  c #432634",
",  c #532A37",
"<  c #4B3F36",
"1  c #4D363E",
"2  c #52383F",
"3  c #6D2D3A",
"4  c #71273B",
"5  c #7C283D",
"6  c #7D283D",
"7  c #7B333C",
"8  c #585031",
"9  c #755732",
"0  c #313040",
"q  c #343241",
"w  c #4E3041",
"e  c #403E4D",
"r  c #403F4D",
"t  c #5B3D42",
"y  c #5C3D43",
"u  c #7B3B41",
"i  c #484959",
"p  c #484A58",
"a  c #494B59",
"s  c #4D4C59",
"d  c #4E4C5A",
"f  c #4D505E",
"g  c #4E505E",
"h  c #6D4748",
"j  c #754849",
"k  c #674555",
"l  c #7F4F5F",
"z  c #4F5260",
"x  c #505260",
"c  c #525563",
"v  c #555866",
"b  c #5B5E6C",
"n  c #6F5564",
"m  c #5D616E",
"M  c #62616D",
"N  c #7D7D6E",
"B  c #656A77",
"V  c #696B77",
"C  c #676C79",
"Z  c #686D79",
"A  c #6A6F7C",
"S  c #6B707C",
"D  c #76757F",
"F  c #8B4616",
"G  c #BB590B",
"H  c #A55613",
"J  c #BD600E",
"K  c #B87817",
"L  c #BC7D18",
"P  c #886020",
"I  c #8E6320",
"U  c #847832",
"Y  c #842044",
"T  c #9F3141",
"R  c #A22E42",
"E  c #AB2D43",
"W  c #B92E45",
"Q  c #BB284A",
"!  c #B73645",
"~  c #BA3946",
"^  c #C02F46",
"/  c #C12B49",
"(  c #C32F4A",
")  c #C62D49",
"_  c #C1324B",
"`  c #C1374A",
"'  c #CC3048",
"]  c #D43949",
"[  c #D73C49",
"{  c #D53F4C",
"}  c #DA3F49",
"|  c #994448",
" . c #B56058",
".. c #C6484F",
"X. c #DE5053",
"o. c #E0454A",
"O. c #EA695D",
"+. c #EC7464",
"@. c #ED7564",
"#. c #988932",
"$. c #B29A2F",
"%. c #A89732",
"&. c #C58517",
"*. c #CE8B16",
"=. c #C08218",
"-. c #D1BC35",
";. c #DFC834",
":. c #E0C732",
">. c #E1CA33",
",. c #E2CB35",
"<. c #E3CD3E",
"1. c #979163",
"2. c #B4AC6E",
"3. c #E0D476",
"4. c #737985",
"5. c #757B87",
"6. c #7B7A84",
"7. c #7B7F8F",
"8. c #79808B",
"9. c #7A818C",
"0. c #7A818D",
"q. c #7E8590",
"w. c #7E8691",
"e. c #7F8692",
"r. c #838897",
"t. c #848B96",
"y. c #878B99",
"u. c #878F9B",
"i. c #88909B",
"p. c #8F929B",
"a. c #8E929F",
"s. c #96949C",
"d. c #97969E",
"f. c #B09480",
"g. c #8D95A0",
"h. c #929AA6",
"j. c #9A9BA3",
"k. c #979EA8",
"l. c #9A9EAA",
"z. c #9BA2AB",
"x. c #9DA5AF",
"c. c #9BA5B0",
"v. c #9EA8B1",
"b. c #9FA9B3",
"n. c #A1A1A8",
"m. c #A4A7B2",
"M. c #A1A9B1",
"N. c #A7ADB6",
"B. c #A7AEB6",
"V. c #A9ABB6",
"C. c #A9AFB6",
"Z. c #AFAFB5",
"A. c #ADAFB6",
"S. c #A7B1BA",
"D. c #AAB0B8",
"F. c #ACB2BA",
"G. c #A9B4BD",
"H. c #AFB6BD",
"J. c #B0B5BC",
"K. c #B8B8BE",
"L. c #D8D5B4",
"P. c #AEBAC2",
"I. c #AFBBC3",
"U. c #B7B9C2",
"Y. c #B6BBC2",
"T. c #B7BCC3",
"R. c #B0BCC4",
"E. c #B3BEC6",
"W. c #BDBDC2",
"Q. c #B9BDC4",
"!. c #BABEC5",
"~. c #B9C1C8",
"^. c #B8C2C9",
"/. c #BEC0C8",
"(. c #C5C5C9",
"). c #C4C6CD",
"_. c #C1CAD0",
"`. c #C4CBD1",
"'. c #C8CBD1",
"]. c #CBCDD3",
"[. c #CFCFD2",
"{. c #C8D0D5",
"}. c #C9D1D7",
"|. c #CFD7DB",
" X c #D0D7DB",
".X c #D2D6DB",
"XX c #D5D8DC",
"oX c #D4DBDF",
"OX c #D7DADE",
"+X c #DBDCE0",
"@X c #D8DEE2",
"#X c #DAE0E3",
"$X c #DBE0E4",
"%X c #DEE3E6",
"&X c #DFE3E6",
"*X c #E0E5E8",
"=X c #E3E8EA",
"-X c #E5E9EB",
";X c #E5E9EC",
":X c #EAEAEB",
">X c #EAEAEC",
",X c #E8EBEE",
"<X c #EBEEF0",
"1X c #EDEEF0",
"2X c #EEEFF1",
"3X c #EEF0F2",
"4X c #EFF0F2",
"5X c #F0F1F3",
"6X c #F2F2F3",
"7X c #F1F3F5",
"8X c #F2F4F5",
"9X c #F3F4F5",
"0X c #F4F5F7",
"qX c #F5F6F7",
"wX c #F7F8F9",
"eX c #F8F9F9",
"rX c #F9F9F9",
"tX c #F9FAFA",
"yX c #F9FAFB",
"uX c #FBFBFB",
"iX c #FDFDFD",
"pX c #FEFEFE",
"aX c #FEFFFF",
"sX c white",
"dX c None",
/* pixels */
"dXdXdXdXdXdXdXdXdXdXdXdXdXdXdXdXdXdXdXdXdXdXdXdXdXdXdXdXdXdXdXdX",
"dXdXdXdXdXdXdXdXdXdXdXdXdXdXdXdXdXdXdXdXdXdXdXdXdXdXdXdXdXdXdXdX",
"dXdXdXdXdXdXdXdXdXdXdXdXdXdXdXdXdXdXdXdXdXdXdXdXdXdXdXdXdXdXdXdX",
"dXdXdXdXdXdXdXdXdXdXdXdXdXdXdXdXdXdXdXdXdXdXdXdXdXdXdXdXdXdXdXdX",
"dXdXdXdXdXdXdXdXdX2 y t , dXdXdXdXdXdXdXdXdXdXdXdXdXdXdXdXdXdXdX",
"dXdXdXdXdXdXdXdX1  .@.+.~ * dXdXdXdXdXdXdXdXdXdXdXdXdXdXdXdXdXdX",
"dXdXdXdXdXdXdXdX| X.} } / Y 3 j dXdXdXdXdXdXdXdXdXdXdXdXdXdXdXdX",
"dXdXdXdXdXdXdX% ! 5 5 6 ) ( o.O.  dXdXdXdXdXdXdXdXdXdXdXdXdXdXdX",
"dXdXdXdXdXdXdX@ l d.d.s.4 T [ _ = dXdXdXdXdXdXdXdXdXdXdXdXdXdXdX",
"dXdXdXdXdXdXdXq (.sXsXpXj.n E Q ` 7 dXdXdXdXdXdXdXdXdXdXdXdXdXdX",
"dXdXdXdXdXdX  W.sXsXsXsXtXY.k ^ ] ..h dXdXdXdXdXdXdXdXdXdXdXdXdX",
"dXdXdXdXdXdX  a.U./.a.a.V.$Xx W ' { u dXdXdXdXdXdXdXdXdXdXdXdXdX",
"dXdXdXdXdXdX  ].l.m.).+Xy.wXH.w ' R > dXdXdXdXdXdXdXdXdXdXdXdXdX",
"dXdXdXdXdXdX  r i h.r.7.~.sX}.0 & $ dXdXdXdXdX  dXdXdXdXdXdXdXdX",
"dXdXdXdXdX  L.3.-.1.c.5XyXsX}.0 dXdXdXdXdXdX6.>Xe   dXdXdXdXdXdX",
"dXdXdXdXdX2.<.,.>.;.N E.sXsX}.u.          d uXsXrX  dXdXdXdXdXdX",
"dXdXdXdXdX%.:.G G G - R.sXpX{.g.sXsXsXsXsXG.!.pXk.S.+ dXdXdXdXdX",
"dXdXdXdXdX%.J =.*.&.< ^.sX%Xx.9XsXsXsXsXsXsX*X-X_.aXK.dXdXdXdXdX",
"dXdXdXdXdX#.H X L 9 M.sXsXsXsX2X2XsXsXsXsXsXsXsXsX<X8.dXdXdXdXdX",
"dXdXdXdXdX    dX: f.8XsXsXsX1XN.D.sXsXsX[.7XsX0XiXb.s dXdXdXdXdX",
"dXdXdXdXdXdXdXdXdXn.sXsXsX4XQ.qXsXeXqXsXM z.8X`.&XF.A.dXdXdXdXdX",
"dXdXdXdXdXdXdXdXdXn.sXsXsX'.OXsXsX3X@X=XXXz C.B.e.Z.A dXdXdXdXdX",
"dXdXdXdXdXdXdXdXdXn.sXsXsX'.OXsXsXsX;X XT.w.m 0.#   dXdXdXdXdXdX",
"dXdXdXdXdXdXdXdXdXD :XsXsX'.OXsXsXsXsXsX#XS C p dXdXdXdXdXdXdXdX",
"dXdXdXdXdXdXdXdXdX  J.sXsX.Xp.6XsXsX,XoXB 9.4.dXdXdXdXdXdXdXdXdX",
"dXdXdXdXdXdXdXdXdXdXv |.|._.i.6.6.6.V b 5.v.f dXdXdXdXdXdXdXdXdX",
"dXdXdXdXdXdXdXdXdXdXdXc Z I.I.t.q.q.q.q.P.g dXdXdXdXdXdXdXdXdXdX",
"dXdXdXdXdXdXdXdXdXdXdXdXdXa a a a a a a a dXdXdXdXdXdXdXdXdXdXdX",
"dXdXdXdXdXdXdXdXdXdXdXdXdXdX  F   dX  P o dXdXdXdXdXdXdXdXdXdXdX",
"dXdXdXdXdXdXdXdXdXdXdXdXdXdX  K   dX  $.O dXdXdXdXdXdXdXdXdXdXdX",
"dXdXdXdXdXdXdXdXdXdXdXdXdXdXI ; dXdXU 8 dXdXdXdXdXdXdXdXdXdXdXdX",
"dXdXdXdXdXdXdXdXdXdXdXdXdX  . dXdX  O dXdXdXdXdXdXdXdXdXdXdXdXdX"
};
