/* XPM */
static char *result[] = {
/* columns rows colors chars-per-pixel */
"32 32 214 2 ",
"   c #211F30",
".  c #3F1E37",
"X  c #26222F",
"o  c #2D272E",
"O  c #222031",
"+  c #272430",
"@  c #282031",
"#  c #2A2131",
"$  c #282636",
"%  c #392433",
"&  c #3E2234",
"*  c #343034",
"=  c #35333D",
"-  c #462335",
";  c #472335",
":  c #512437",
">  c #532437",
",  c #542437",
"<  c #5F2539",
"1  c #79283C",
"2  c #4A4331",
"3  c #664A26",
"4  c #333343",
"5  c #363646",
"6  c #373747",
"7  c #363648",
"8  c #3E3D4C",
"9  c #3F3D4C",
"0  c #792142",
"q  c #752C40",
"w  c #40404F",
"e  c #56524B",
"r  c #404150",
"t  c #444250",
"y  c #454756",
"u  c #494B59",
"i  c #51515F",
"p  c #764B4B",
"a  c #515463",
"s  c #525563",
"d  c #575764",
"f  c #5F5E6A",
"g  c #5C606D",
"h  c #606164",
"j  c #77606D",
"k  c #676672",
"l  c #636674",
"z  c #646875",
"x  c #666975",
"c  c #676A77",
"v  c #696873",
"b  c #6A6974",
"n  c #6B6A75",
"m  c #606578",
"M  c #62677A",
"N  c #666B78",
"B  c #64697B",
"V  c #64697C",
"C  c #6E7073",
"Z  c #71707B",
"A  c #85353D",
"S  c #8C363E",
"D  c #874719",
"F  c #9F5715",
"G  c #8F641F",
"H  c #93661F",
"J  c #B77115",
"K  c #B37A1A",
"L  c #895F20",
"P  c #8B6731",
"I  c #C0660E",
"U  c #A31E4C",
"Y  c #922B40",
"T  c #97274E",
"R  c #A02C42",
"E  c #BC2E46",
"W  c #A93243",
"Q  c #C72F47",
"!  c #C02B49",
"~  c #CA2F48",
"^  c #C7354C",
"/  c #CC3048",
"(  c #CD3148",
")  c #CE3248",
"_  c #CF3348",
"`  c #CF384A",
"'  c #D13648",
"]  c #D43949",
"[  c #8B4245",
"{  c #905853",
"}  c #9B5F57",
"|  c #CB4347",
" . c #DE4349",
".. c #DD4A4F",
"X. c #D84F56",
"o. c #D65450",
"O. c #E34B4B",
"+. c #E9645A",
"@. c #DD7D6A",
"#. c #7F827E",
"$. c #968732",
"%. c #B19F32",
"&. c #BE9F37",
"*. c #CE8B16",
"=. c #D4A225",
"-. c #D8B12A",
";. c #CCB733",
":. c #E1CA33",
">. c #AF866B",
",. c #E9D754",
"<. c #EFDF6F",
"1. c #696F81",
"2. c #6D7380",
"3. c #6E7480",
"4. c #6F7581",
"5. c #797782",
"6. c #7A808C",
"7. c #7A818F",
"8. c #7C838F",
"9. c #808893",
"0. c #848B96",
"q. c #858D97",
"w. c #8A8891",
"e. c #8F8E97",
"r. c #88909A",
"t. c #89929C",
"y. c #929199",
"u. c #96959D",
"i. c #9397A0",
"p. c #9099A3",
"a. c #969DA7",
"s. c #969FA9",
"d. c #99A1AB",
"f. c #9BA4AF",
"g. c #9BA5B0",
"h. c #A2ABB3",
"j. c #A3ADB7",
"k. c #A4AEB7",
"l. c #ABAAB0",
"z. c #A4AFB8",
"x. c #A8B2BA",
"c. c #A8B3BC",
"v. c #AAB5BD",
"b. c #AAB6BE",
"n. c #AEB4BC",
"m. c #AEB5BD",
"M. c #AEB7BF",
"N. c #F5EDA2",
"B. c #ADB8C0",
"V. c #AFBBC3",
"C. c #B4BAC1",
"Z. c #B7BBC2",
"A. c #B2BEC5",
"S. c #C0BFC4",
"D. c #BCC1C7",
"F. c #B8C2C9",
"G. c #BFC8CF",
"H. c #C1C5CB",
"J. c #C3C7CD",
"K. c #C4C8CD",
"L. c #CBCBCE",
"P. c #CCCBCF",
"I. c #C3CCD2",
"U. c #C5CED4",
"Y. c #C7CED4",
"T. c #C9CDD3",
"R. c #CECED2",
"E. c #CCCFD4",
"W. c #C8D0D5",
"Q. c #CED1D6",
"!. c #CAD2D8",
"~. c #CFD4D8",
"^. c #D1D3D7",
"/. c #D1D4D8",
"(. c #D6D7DC",
"). c #D3DADE",
"_. c #D5D8DC",
"`. c #DCDCDF",
"'. c #D6DDE1",
"]. c #D8DEE1",
"[. c #D9DFE3",
"{. c #DADFE3",
"}. c #DCDEE2",
"|. c #E1E6E9",
" X c #E2E7E9",
".X c #E5E9EB",
"XX c #E7EBED",
"oX c #E9E9EA",
"OX c #E9EAED",
"+X c #E8EBED",
"@X c #EBECEE",
"#X c #EAEDEF",
"$X c #EAEDF0",
"%X c #EAEEF0",
"&X c #EBEEF0",
"*X c #EFF2F3",
"=X c #F1F2F3",
"-X c #F0F2F4",
";X c #F0F3F4",
":X c #F6F5F6",
">X c #F5F6F7",
",X c #F5F7F8",
"<X c #F6F7F8",
"1X c #F7F7F8",
"2X c #F8F9FA",
"3X c #F9FAFA",
"4X c #F9FAFB",
"5X c #FAFAFB",
"6X c #FAFBFB",
"7X c gray99",
"8X c #FDFDFD",
"9X c #FEFEFE",
"0X c white",
"qX c None",
/* pixels */
"qXqXqXqXqXqXqXqXqXqXqXqXqXqXqXqXqXqXqXqXqXqXqXqXqXqXqXqXqXqXqXqX",
"qXqXqXqXqXqXqXqXqXqXqXqXqXqXqXqXqXqXqXqXqXqXqXqXqXqXqXqXqXqXqXqX",
"qXqXqXqXqXqXqXqXqXqXqXqXqXqXqXqXqXqXqXqXqXqXqXqXqXqXqXqXqXqXqXqX",
"qXqXqXqXqXqXqXqXqXqXqXqXqXqXqXqXqXqXqXqXqXqXqXqXqXqXqXqXqXqXqXqX",
"qXqXqXqXqXqXqXqXqXqXqXqXqXqXqXqXqXqXqXqXqXqXqXqXqXqXqXqXqXqXqXqX",
"qXqXqXqXqXqXqXqXqXqXqXqXqXqXqXqXqXqXqXqXqXqXqXqXqXqXqXqXqXqXqXqX",
"qXqXqXqXqXqXqXqXqXqXqXqXqXqXqXqXqXqXqXqXqXqXqXqXqXqXqXqXqXqXqXqX",
"qXqXqXqXqXqXqXqXqXqXqXqXqXqXqXqXqXqXqXqXqXqXqXqXqXqXqXqXqXqXqXqX",
"qXqXqXqXqXqXqXqX  { { [ % qXqXqXqXqXqXqXqXqXqXqXqXqXqXqXqXqXqXqX",
"qXqXqXqXqXqXqXqX} +.+...0   qXqXqXqXqXqXqXqXqXqXqXqXqXqXqXqXqXqX",
"qXqXqXqXqXqXqXS X.] ] _ U Y A qXqXqXqXqXqXqXqXqXqXqXqXqXqXqXqXqX",
"qXqXqXqXqXqX  W > : : R !  .o.p qXqXqXqXqXqXqXqXqXqXqXqXqXqXqXqX",
"qXqXqXqXqXqX  & P.R.R.j - ' ^ T . qXqXqXqXqXqXqXqXqXqXqXqXqXqXqX",
"qXqXqXqXqXqXe.`.9X0X0XoXh.; ~ ` | # qXqXqXqXqXqXqXqXqXqXqXqXqXqX",
"qXqXqXqXqXk :X0X0X0X0X0X3Xd.< ( ) @.  qXqXqXqXqXqXqXqXqXqXqXqXqX",
"qXqXqXqXqXb 0X0X0X0X0X0X0Xz., / / O.  qXqXqXqXqXqXqXqXqXqXqXqXqX",
"qXqXqXqXqX7 m (.5XV M B OX3Xq.1 / Q   qXqXqXqXqX$ $ O qXqXqXqXqX",
"qXqXqXqXqX= * h C g.1.f.>X3Xr.q E @ qXqXqXqXqXn 0X1X8 qXqXqXqXqX",
"qXqXqXqXe N.,.:.:.#.c. X0X3Xj.l t t t t t t w =X0Xn.F.9   qXqXqX",
"qXqXqX2 <.-.-.-.-.&.7. X0X+Xk./.0X0X0X0X0X0XG.C.<X).6X^.  qXqXqX",
"qXqX  ;.=.I I I I F x $X0XI.H.0X0X0X0X0X0X0X0X-X|.0X#X8.qXqXqXqX",
"qXqXqX$.D H K *.*.P l.0X0X7X_.@X0X0X0X0X0XS..X0X0X0Xx.v qXqXqXqX",
"qXqXqX      3 J L u.0X0X0XE.Z.}.0X0X4X&X0Xy.6.XX*X,XD.K.  qXqXqX",
"qXqXqXqXqXqX  >.w.0X0X0XQ.J.0X0X0X0X2X'.[.T.a i.~.Y.[.N qXqXqXqX",
"qXqXqXqXqXqX  L.0X0X0X0Xa.0X0X0X0X0X0X;X{.T.s.i m.2.z qXqXqXqXqX",
"qXqXqXqXqXqXqXZ 8X0X0X0Xa.0X0X0X0X0X0X0X0X].g 3.s 5 qXqXqXqXqXqX",
"qXqXqXqXqXqXqX  W.0X0X0XM.5.0X0X0X0X0X%X!.c 9.t.  qXqXqXqXqXqXqX",
"qXqXqXqXqXqXqXqXu U.U.U.A.0.f f f f f d u 8.b.y qXqXqXqXqXqXqXqX",
"qXqXqXqXqXqXqXqXqXr 4.V.V.B.p.p.p.p.p.p.p.v.r qXqXqXqXqXqXqXqXqX",
"qXqXqXqXqXqXqXqXqXqX4 6 6 6 6 6 6 6 6 6 6 6 qXqXqXqXqXqXqXqXqXqX",
"qXqXqXqXqXqXqXqXqXqXqXqXqXo G   qX  %.  qXqXqXqXqXqXqXqXqXqXqXqX",
"qXqXqXqXqXqXqXqXqXqXqXqX    X qX    + qXqXqXqXqXqXqXqXqXqXqXqXqX"
};
