/* XPM */
static char *result[] = {
/* columns rows colors chars-per-pixel */
"32 32 229 2 ",
"   c #211F30",
".  c #3C1E36",
"X  c #26222F",
"o  c #30282E",
"O  c #232030",
"+  c #232132",
"@  c #242130",
"#  c #272131",
"$  c #272430",
"%  c #282232",
"&  c #2B2934",
"*  c #372133",
"=  c #352233",
"-  c #372735",
";  c #3C2234",
":  c #3E2534",
">  c #322E30",
",  c #352A36",
"<  c #363130",
"1  c #6A3A1E",
"2  c #753E1C",
"3  c #49362A",
"4  c #573323",
"5  c #513D29",
"6  c #402234",
"7  c #492336",
"8  c #4B2836",
"9  c #522737",
"0  c #48333C",
"q  c #4F363E",
"w  c #7D283D",
"e  c #7F283D",
"r  c #7E5621",
"t  c #323242",
"y  c #343444",
"u  c #353545",
"i  c #373749",
"p  c #393949",
"a  c #3B3A49",
"s  c #3A3A4A",
"d  c #3C3C4C",
"f  c #3E3D4C",
"g  c #3F3E4C",
"h  c #404050",
"j  c #424453",
"k  c #434554",
"l  c #4E505E",
"z  c #575457",
"x  c #525563",
"c  c #545765",
"v  c #555866",
"b  c #585B69",
"n  c #595D6B",
"m  c #5B5E6C",
"M  c #606370",
"N  c #616572",
"B  c #646875",
"V  c #666B78",
"C  c #686D79",
"Z  c #6B6F7B",
"A  c #6E6E7A",
"S  c #766F7C",
"D  c #6D717D",
"F  c #81293D",
"G  c #86293E",
"H  c #87293E",
"J  c #8F2A3F",
"K  c #87323E",
"L  c #A24E11",
"P  c #A85914",
"I  c #90641F",
"U  c #98691E",
"Y  c #9D6C1D",
"T  c #BE620F",
"R  c #B57A19",
"E  c #835C21",
"W  c #C0670F",
"Q  c #8A2344",
"!  c #912A40",
"~  c #AA234C",
"^  c #AB254C",
"/  c #B32E45",
"(  c #B1244B",
")  c #B82A4B",
"_  c #C62D49",
"`  c #C72E48",
"'  c #CD3E47",
"]  c #CC3048",
"[  c #D13648",
"{  c #D33749",
"}  c #D33849",
"|  c #96474E",
" . c #91504E",
".. c #824B5C",
"X. c #C14547",
"o. c #D54748",
"O. c #DC4149",
"+. c #DD4349",
"@. c #E1474A",
"#. c #E44A4A",
"$. c #E65551",
"%. c #E45A56",
"&. c #E96359",
"*. c #ED7967",
"=. c #A08B2F",
"-. c #BEAB32",
";. c #CD8916",
":. c #D9B12F",
">. c #D0BB33",
",. c #DFC531",
"<. c #E1CA33",
"1. c #E2CC37",
"2. c #BCAC47",
"3. c #C4B341",
"4. c #C0B148",
"5. c #F0856E",
"6. c #E5D046",
"7. c #DACD6F",
"8. c #737783",
"9. c #707586",
"0. c #787781",
"q. c #747883",
"w. c #757B87",
"e. c #757C87",
"r. c #7B7A84",
"t. c #767C88",
"y. c #798090",
"u. c #858791",
"i. c #818893",
"p. c #898891",
"a. c #8D8C94",
"s. c #8D8C95",
"d. c #878A98",
"f. c #858D99",
"g. c #878F9A",
"h. c #878F9B",
"j. c #88909B",
"k. c #8C919B",
"l. c #8A919F",
"z. c #8D919F",
"x. c #8E929F",
"c. c #8E96A1",
"v. c #9194A1",
"b. c #9199A4",
"n. c #919AA4",
"m. c #959CA8",
"M. c #989FA9",
"N. c #98A0AA",
"B. c #98A1AC",
"V. c #99A2AC",
"C. c #9DA8B1",
"Z. c #9EA8B1",
"A. c #A2A5B0",
"S. c #A0A7B1",
"D. c #A5ABB2",
"F. c #A5AAB3",
"G. c #A1ACB5",
"H. c #A3AEB7",
"J. c #ABADB7",
"K. c #AFAFB5",
"L. c #A5B0B9",
"P. c #B1B1B7",
"I. c #B2B8BF",
"U. c #BBBABF",
"Y. c #C9C491",
"T. c #ADB9C1",
"R. c #AEBAC2",
"E. c #AFBBC3",
"W. c #B6BBC2",
"Q. c #B1BCC4",
"!. c #B3BEC6",
"~. c #B5BCC4",
"^. c #B4BEC5",
"/. c #BEBEC3",
"(. c #B9BDC4",
"). c #C6C6CA",
"_. c #C1C8CF",
"`. c #C7C8CD",
"'. c #C1CAD0",
"]. c #C9CBD1",
"[. c #C8D0D5",
"{. c #CBD2D8",
"}. c #CCD3D9",
"|. c #CED4D9",
" X c #CDD5DA",
".X c #CFD6DB",
"XX c #D2D6DA",
"oX c #D4D6DB",
"OX c #D4DBDF",
"+X c #DADADC",
"@X c #D8DBDF",
"#X c #D8DCDF",
"$X c #DCDCDF",
"%X c #D9DFE3",
"&X c #DDDFE3",
"*X c #DCE0E4",
"=X c #DFE0E4",
"-X c #DDE2E6",
";X c #E3E5E8",
":X c #E1E6E9",
">X c #E2E6E9",
",X c #E3E7EA",
"<X c #E5E8EA",
"1X c #E6E8EB",
"2X c #E7EAED",
"3X c #E7EBED",
"4X c #E8E9EB",
"5X c #E9EAEC",
"6X c #E8ECEE",
"7X c #EAECEF",
"8X c #ECEDEF",
"9X c #EDF0F2",
"0X c #EEF1F3",
"qX c #EFF2F3",
"wX c #F3F3F5",
"eX c #F4F4F4",
"rX c #F4F4F5",
"tX c #F4F6F7",
"yX c #F5F7F8",
"uX c #F8F8F9",
"iX c gray98",
"pX c #FBFBFC",
"aX c #FBFCFC",
"sX c #FCFCFD",
"dX c #FCFDFD",
"fX c #FDFDFD",
"gX c #FEFEFE",
"hX c white",
"jX c None",
/* pixels */
"jXjXjXjXjXjXjXjXjXjXjX% # jXjXjXjXjXjXjXjXjXjXjXjXjXjXjXjXjXjXjX",
"jXjXjXjXjXjXjXjXjXjXq 5.&.9 jXjXjXjXjXjXjXjXjXjXjXjXjXjXjXjXjXjX",
"jXjXjXjXjXjXjXjXjX  *.#.#.^ ; : jXjXjXjXjXjXjXjXjXjXjXjXjXjXjXjX",
"jXjXjXjXjXjXjXjXjX8 #.#.@.~ ] X.0 jXjXjXjXjXjXjXjXjXjXjXjXjXjXjX",
"jXjXjXjXjXjXjXjX  o.+.+.} ( } $. .jXjXjXjXjXjXjXjXjXjXjXjXjXjXjX",
"jXjXjXjXjXjXjXjX  ' ! ! / ] O.O.K jXjXjXjXjXjXjXjXjXjXjXjXjXjXjX",
"jXjXjXjXjXjXjXjX  e r.r...H ] ` Q . jXjXjXjXjXjXjXjXjXjXjXjXjXjX",
"jXjXjXjXjXjXjXjX0.p.hXhXU.Z w _ ) | , jXjXjXjXjXjXjXjXjXjXjXjXjX",
"jXjXjXjXjXjXjXi `.hXhXhXhX:XD G [ %.- jXjXjXjXjXjXjXjXjXjXjXjXjX",
"jXjXjXjXjXjXjXA J.uXA.A.A.8XT.7 ] { = jXjXjXjXjXjXjXjXjXjXjXjXjX",
"jXjXjXjXjXjXjXa.v.wX9.].z.=X>XS J F jXjXjXjXjXjXjXjXjXjXjXjXjXjX",
"jXjXjXjXjXjXjXg h d.B.x.m.7XgXc.* 6 jXjXjXjXjXjXjXjXjXjXjXjXjXjX",
"jXjXjXjXjXjXz Y.2.3.y.~.1XaXgXc.  jXjXjXjXjXjX      jXjXjXjXjXjX",
"jXjXjXjXjX& 7.6.1.<.4.l.,XhXgXc.  jXjXjXjXjX  +X$Xs.jXjXjXjXjXjX",
"jXjXjXjX  >.:.T T T P b -XhXgXH.v           /.hX5XN.x   jXjXjXjX",
"jXjXjXjX  ,.W ;.;.;.R c -XhXgXL.(.uXuXuXuX|.b.fX0X.XiXg jXjXjXjX",
"jXjXjXjXjX      U ;.p  XhXhXQ.F.hXhXhXhXhXhXhX!.hXgX[.u jXjXjXjX",
"jXjXjXjXjXjXjXjX  L '.hXhXhXhXsXrXpXhXhXhXhXhXhXhX*XM jXjXjXjXjX",
"jXjXjXjXjXjXjXjXjX  hXhXhXhXhX@XM.&XhXhXeX4XdXhXyXoXXXf jXjXjXjX",
"jXjXjXjXjXjXjXjXjX  hXhXhXhX;XW.hXhXqXhX).q.#XhX^.9XI.y jXjXjXjX",
"jXjXjXjXjXjXjXjXjX  hXhXhXhXh.hXhXhX}.6X<Xu.t.2Xf.g.l jXjXjXjXjX",
"jXjXjXjXjXjXjXjXjX  hXhXhXhXh.hXhXhXhX{._.S.d T.n   jXjXjXjXjXjX",
"jXjXjXjXjXjXjXjXjX  P.hXhXhXh.hXhXhXhXhXtXD.N w.jXjXjXjXjXjXjXjX",
"jXjXjXjXjXjXjXjXjXjXa 3XhXhXV.K.hXhXhX%XW.C C.+ jXjXjXjXjXjXjXjX",
"jXjXjXjXjXjXjXjXjXjXt k.OXOXR.8.p.p.p.B V n.e.jXjXjXjXjXjXjXjXjX",
"jXjXjXjXjXjXjXjXjXjXjXj m Z.E.G.e.e.e.e.j.i.s jXjXjXjXjXjXjXjXjX",
"jXjXjXjXjXjXjXjXjXjXjXjXjXl x x x x x x x k jXjXjXjXjXjXjXjXjXjX",
"jXjXjXjXjXjXjXjXjXjXjXjXjXjXO 2   jX  I   jXjXjXjXjXjXjXjXjXjXjX",
"jXjXjXjXjXjXjXjXjXjXjXjXjXjXjX4 1 jXjX5 E jXjXjXjXjXjXjXjXjXjXjX",
"jXjXjXjXjXjXjXjXjXjXjXjXjXjXjX3 r jXjX< =.jXjXjXjXjXjXjXjXjXjXjX",
"jXjXjXjXjXjXjXjXjXjXjXjXjXjX@ Y o jX  -.> jXjXjXjXjXjXjXjXjXjXjX",
"jXjXjXjXjXjXjXjXjXjXjXjXjX    X jX    $ jXjXjXjXjXjXjXjXjXjXjXjX"
};
