/* XPM */
static char *result[] = {
/* columns rows colors chars-per-pixel */
"32 32 237 2 ",
"   c #211F30",
".  c #241F30",
"X  c #26222F",
"o  c #31292E",
"O  c #232030",
"+  c #232132",
"@  c #242130",
"#  c #272031",
"$  c #262430",
"%  c #2B2937",
"&  c #2A2839",
"*  c #392133",
"=  c #3A2533",
"-  c #332F30",
";  c #4E1E3B",
":  c #412C38",
">  c #582B37",
",  c #592538",
"<  c #5B2738",
"1  c #5E2538",
"2  c #5C2C38",
"3  c #42303A",
"4  c #4E363E",
"5  c #60223B",
"6  c #66263A",
"7  c #71273B",
"8  c #7C283D",
"9  c #62343D",
"0  c #7B401A",
"q  c #7D401A",
"w  c #6E4F24",
"e  c #353545",
"r  c #383646",
"t  c #3A3A4A",
"y  c #3E3D4E",
"u  c #433D43",
"i  c #593C42",
"p  c #693749",
"a  c #414251",
"s  c #424352",
"d  c #424452",
"f  c #434554",
"g  c #444654",
"h  c #494B59",
"j  c #53525F",
"k  c #624145",
"l  c #4F5260",
"z  c #555360",
"x  c #525563",
"c  c #535664",
"v  c #565967",
"b  c #5E616E",
"n  c #5E626F",
"m  c #5E6270",
"M  c #636676",
"N  c #646875",
"B  c #646975",
"V  c #6C6C77",
"C  c #666B78",
"Z  c #686D79",
"A  c #6B6F7B",
"S  c #6E6D78",
"D  c #6C6E7A",
"F  c #6A707C",
"G  c #6C717E",
"H  c #72707B",
"J  c #72757B",
"K  c #832A3E",
"L  c #83313F",
"P  c #AD540F",
"I  c #BB590B",
"U  c #996A1E",
"Y  c #A36B1B",
"T  c #8F2A40",
"R  c #992B41",
"E  c #A02348",
"W  c #BA2E45",
"Q  c #B72B4B",
"!  c #BC294A",
"~  c #BC2B4A",
"^  c #BA2F4C",
"/  c #A23542",
"(  c #AE3743",
")  c #AA3D42",
"_  c #C22C49",
"`  c #CC3048",
"'  c #CE3248",
"]  c #CF3348",
"[  c #CE3649",
"{  c #D53A49",
"}  c #D63B49",
"|  c #D93E49",
" . c #DA3F49",
".. c #B44951",
"X. c #BC5D56",
"o. c #896E7A",
"O. c #DB4049",
"+. c #DA4849",
"@. c #DD4B50",
"#. c #E1474A",
"$. c #E24A4A",
"%. c #E44A4A",
"&. c #E44B4A",
"*. c #EB6B5E",
"=. c #DD7262",
"-. c #EE7D69",
";. c #BC8019",
":. c #BE8118",
">. c #BF8218",
",. c #BCA932",
"<. c #BEAA32",
"1. c #C48016",
"2. c #C68617",
"3. c #CE8B16",
"4. c #C9AF2F",
"5. c #D3BF38",
"6. c #DEC130",
"7. c #DDC735",
"8. c #E1CA33",
"9. c #E1CB34",
"0. c #E2CB37",
"q. c #D9CA5B",
"w. c #6E7480",
"e. c #6E7384",
"r. c #6F7586",
"t. c #717783",
"y. c #757C87",
"u. c #7B7A84",
"i. c #7B7F8F",
"p. c #7A808B",
"a. c #7E8590",
"s. c #818893",
"d. c #848B96",
"f. c #8B8A93",
"g. c #898D96",
"h. c #868E9A",
"j. c #948D96",
"k. c #88909A",
"l. c #88909B",
"z. c #89909D",
"x. c #8E929F",
"c. c #929199",
"v. c #97969E",
"b. c #98979F",
"n. c #8E96A1",
"m. c #8F97A1",
"M. c #9099A3",
"N. c #9399A3",
"B. c #9299A4",
"V. c #919AA4",
"C. c #979AA7",
"Z. c #949CA6",
"A. c #9BA5AF",
"S. c #9EA4AE",
"D. c #A5A4AB",
"F. c #A0A6AF",
"G. c #A5A8AF",
"H. c #A1A4B0",
"J. c #A5AAB3",
"K. c #A0AAB4",
"L. c #A9AEB7",
"P. c #A5AFB8",
"I. c #ACB2BA",
"U. c #B6B6BB",
"Y. c #B1B3BD",
"T. c #B0B8BF",
"R. c #F0E483",
"E. c #E5E0AE",
"W. c #ADB9C1",
"Q. c #AEBAC2",
"!. c #AFBBC3",
"~. c #B6BBC2",
"^. c #B2BCC4",
"/. c #BEBEC3",
"(. c #BDBFC7",
"). c #BDC0C1",
"_. c #B6C1C8",
"`. c #BCC2C8",
"'. c #BEC3C9",
"]. c #BEC7CE",
"[. c #BFC9CF",
"{. c #C6CBD1",
"}. c #C5CED3",
"|. c #C5CED4",
" X c #CBCED3",
".X c #C8CED4",
"XX c #C7D0D5",
"oX c #CCD1D5",
"OX c #CFD1D7",
"+X c #CCD3D9",
"@X c #CDD4D9",
"#X c #CDD5DA",
"$X c #CFD7DB",
"%X c #D0D2D8",
"&X c #D8D7DA",
"*X c #D1D8DC",
"=X c #D5D9DD",
"-X c #D5DBDF",
";X c #D9D9DC",
":X c #DADADC",
">X c #D8DDE1",
",X c #D9DFE3",
"<X c #DADFE3",
"1X c #DFDEE1",
"2X c #DDDEE2",
"3X c #DDDFE3",
"4X c #DAE0E4",
"5X c #DCE1E5",
"6X c #E1E3E6",
"7X c #E1E5E8",
"8X c #E3E5E8",
"9X c #E2E6E9",
"0X c #E4E5E8",
"qX c #E6E9EC",
"wX c #EAEBEE",
"eX c #ECEDEF",
"rX c #EEEDEF",
"tX c #EEEEEF",
"yX c #EEF0F2",
"uX c #EFF1F3",
"iX c #F0F2F4",
"pX c #F1F3F5",
"aX c #F3F4F5",
"sX c #F5F5F6",
"dX c #F7F8F9",
"fX c #F8F8F8",
"gX c gray98",
"hX c #FAFBFB",
"jX c #FBFBFB",
"kX c #FBFCFC",
"lX c #FCFCFD",
"zX c #FDFDFD",
"xX c #FDFDFE",
"cX c #FEFEFE",
"vX c #FEFFFF",
"bX c white",
"nX c None",
/* pixels */
"nXnXnXnXnXnXnXnXnXnXnXnXnXnXnXnXnXnXnXnXnXnXnXnXnXnXnXnXnXnXnXnX",
"nXnXnXnXnXnXnXnXnXnXnXnXnXnXnXnXnXnXnXnXnXnXnXnXnXnXnXnXnXnXnXnX",
"nXnXnXnXnXnXnXnXnXnXnX3 : = nXnXnXnXnXnXnXnXnXnXnXnXnXnXnXnXnXnX",
"nXnXnXnXnXnXnXnXnXnX4 -.*.L nXnXnXnXnXnXnXnXnXnXnXnXnXnXnXnXnXnX",
"nXnXnXnXnXnXnXnXnX  =.%.%.^ 5 > nXnXnXnXnXnXnXnXnXnXnXnXnXnXnXnX",
"nXnXnXnXnXnXnXnXnX2 +.%.#.Q _ $.k nXnXnXnXnXnXnXnXnXnXnXnXnXnXnX",
"nXnXnXnXnXnXnXnXnX) O. .{ ! [ &.X.  nXnXnXnXnXnXnXnXnXnXnXnXnXnX",
"nXnXnXnXnXnXnXnXnX/ K 8 R ` } | (   nXnXnXnXnXnXnXnXnXnXnXnXnXnX",
"nXnXnXnXnXnXnXnXnX, j.v.o.7 W ` E ; nXnXnXnXnXnXnXnXnXnXnXnXnXnX",
"nXnXnXnXnXnXnXnXH D.fXbX1Xg.p ` ~ ..i nXnXnXnXnXnXnXnXnXnXnXnXnX",
"nXnXnXnXnXnXnXz &XbXbXbXbXuXN.1 ' @.9 nXnXnXnXnXnXnXnXnXnXnXnXnX",
"nXnXnXnXnXnXnXy x.3XC.x.x.OX[.. ` ] < nXnXnXnXnXnXnXnXnXnXnXnXnX",
"nXnXnXnXnXnXnXj H.%Xe.2XY.(.pXm.6 T nXnXnXnXnXnX    nXnXnXnXnXnX",
"nXnXnXnXnXnXnX& r M K.i.z.>XbXW.# * nXnXnXnXnX  :XU.  nXnXnXnXnX",
"nXnXnXnXnX  % E.q.5.J ^.aXlXbXW.  nXnXnXnXnXnX/.bXZ.w.  nXnXnXnX",
"nXnXnXnX  ,.R.0.9.8.7.r.#XbXbXQ.G           b.zXbX].jXS nXnXnXnX",
"nXnXnXnX  ,.6.I I I I e +XbXxXW.J.bXbXbXbXqXA.6XbXvX<Xc nXnXnXnX",
"nXnXnXnXnX  P :.2.3.>.a *XbX|.B.bXbXbXbXbXbXbXXXcXyXp.nXnXnXnXnX",
"nXnXnXnXnXnX    w 1.u }.bXbXbXbXeXsXbXbXbXbXbXbXbXwX'.V nXnXnXnX",
"nXnXnXnXnXnXnXnXnX0 ).bXbXbXbX8XF. XbXbXgX;XdXbXyXkX{.l nXnXnXnX",
"nXnXnXnXnXnXnXnXnX  tXbXbXbX0XL.bXbXiXzXrXD `.hXP.=XB nXnXnXnXnX",
"nXnXnXnXnXnXnXnXnX  tXbXbXbXS.bXbXbX5X7X9XG.N oXh.t.nXnXnXnXnXnX",
"nXnXnXnXnXnXnXnXnX  tXbXbXbXS.bXbXbXbX-X@XI.v n.m nXnXnXnXnXnXnX",
"nXnXnXnXnXnXnXnXnXnXc.bXbXbXS.bXbXbXbXbXkX~.Z F + nXnXnXnXnXnXnX",
"nXnXnXnXnXnXnXnXnXnX  4XbXbXT.f.bXbXbX,X.XC V.d nXnXnXnXnXnXnXnX",
"nXnXnXnXnXnXnXnXnXnXnXA $X$X_.y.u.u.u.b n l.s.t nXnXnXnXnXnXnXnX",
"nXnXnXnXnXnXnXnXnXnXnXnXx k.!.Q.a.a.a.a.d.M.f nXnXnXnXnXnXnXnXnX",
"nXnXnXnXnXnXnXnXnXnXnXnXnXs h h h h h h h g nXnXnXnXnXnXnXnXnXnX",
"nXnXnXnXnXnXnXnXnXnXnXnXnXnXnXO q   nX  U   nXnXnXnXnXnXnXnXnXnX",
"nXnXnXnXnXnXnXnXnXnXnXnXnXnXnX@ Y   nX  4.  nXnXnXnXnXnXnXnXnXnX",
"nXnXnXnXnXnXnXnXnXnXnXnXnXnX  ;.o nX  <.- nXnXnXnXnXnXnXnXnXnXnX",
"nXnXnXnXnXnXnXnXnXnXnXnXnX    X nXnX  $ nXnXnXnXnXnXnXnXnXnXnXnX"
};
