/* XPM */
static char *result[] = {
/* columns rows colors chars-per-pixel */
"32 32 227 2 ",
"   c #211F30",
".  c #3A1E36",
"X  c #26212F",
"o  c #26222F",
"O  c #29242F",
"+  c #30282E",
"@  c #272430",
"#  c #2F2132",
"$  c #312533",
"%  c #302735",
"&  c #342534",
"*  c #382133",
"=  c #302C30",
"-  c #302D31",
";  c #322E30",
":  c #352936",
">  c #312F37",
",  c #3C3630",
"<  c #66381F",
"1  c #723D1C",
"2  c #4E3A29",
"3  c #593422",
"4  c #553F28",
"5  c #472335",
"6  c #4E2436",
"7  c #4C2C38",
"8  c #572B37",
"9  c #522638",
"0  c #47333C",
"q  c #7D283D",
"w  c #795222",
"e  c #7F5A22",
"r  c #303040",
"t  c #353545",
"y  c #373747",
"u  c #383646",
"i  c #393746",
"p  c #383948",
"a  c #38394A",
"s  c #3E3E4D",
"d  c #3F3F4F",
"f  c #413F4E",
"g  c #5F3E43",
"h  c #41404F",
"j  c #424352",
"k  c #444655",
"l  c #4A4C5B",
"z  c #4E515F",
"x  c #4F515F",
"c  c #5C5A5B",
"v  c #525563",
"b  c #585B69",
"n  c #585C69",
"m  c #5B5E6C",
"M  c #5C5F6C",
"N  c #5C606E",
"B  c #606471",
"V  c #646875",
"C  c #676C78",
"Z  c #676C79",
"A  c #6A6E7A",
"S  c #6D6E7B",
"D  c #756C79",
"F  c #73737F",
"G  c #80283D",
"H  c #82293E",
"J  c #87293E",
"K  c #89293F",
"L  c #81313D",
"P  c #A65010",
"I  c #A45716",
"U  c #986A1E",
"Y  c #9D6C1D",
"T  c #BE620F",
"R  c #B0771A",
"E  c #8C6220",
"W  c #C57311",
"Q  c #872343",
"!  c #912A40",
"~  c #922A40",
"^  c #A7224C",
"/  c #AF244B",
"(  c #B52E45",
")  c #B82B4B",
"_  c #C52D49",
"`  c #C72E49",
"'  c #CC3048",
"]  c #D13648",
"[  c #D33749",
"{  c #D43849",
"}  c #D33F48",
"|  c #8A4D4C",
" . c #94484E",
".. c #82495A",
"X. c #DC4149",
"o. c #DD4349",
"O. c #E1474A",
"+. c #E44A4A",
"@. c #E65652",
"#. c #E45B57",
"$. c #E85F57",
"%. c #EC7464",
"&. c #9A862F",
"*. c #A49332",
"=. c #B9A632",
"-. c #CD8916",
";. c #CF9420",
":. c #D6A927",
">. c #E1CA33",
",. c #E2CB37",
"<. c #E2CC39",
"1. c #BCAC44",
"2. c #BDAE4A",
"3. c #C5B442",
"4. c #EF816C",
"5. c #E5D046",
"6. c #DACD6D",
"7. c #747883",
"8. c #737985",
"9. c #767A85",
"0. c #757B86",
"q. c #757C87",
"w. c #7A7983",
"e. c #7B7A84",
"r. c #747889",
"t. c #787F8A",
"y. c #7A8191",
"u. c #7E8591",
"i. c #80828C",
"p. c #878690",
"a. c #898891",
"s. c #858D99",
"d. c #878F9A",
"f. c #8A8D9B",
"g. c #8A8E9C",
"h. c #8C8F9D",
"j. c #89929C",
"k. c #8A929D",
"l. c #8B929E",
"z. c #8E929F",
"x. c #93939B",
"c. c #90959E",
"v. c #8C94A1",
"b. c #9098A3",
"n. c #939CA6",
"m. c #959CA9",
"M. c #989FA9",
"N. c #97A0AC",
"B. c #98A1AB",
"V. c #99A2AC",
"C. c #9FA7B0",
"Z. c #A2A5B0",
"A. c #A2A7B0",
"S. c #A0AAB3",
"D. c #A1ABB4",
"F. c #A1ACB5",
"G. c #AAACB7",
"H. c #A8AEB6",
"J. c #A4AFB8",
"K. c #A8B4BC",
"L. c #AFB6BD",
"P. c #B3B2B8",
"I. c #B4B4B9",
"U. c #B7B6BC",
"Y. c #B2B8BF",
"T. c #C9C390",
"R. c #ACB8C0",
"E. c #AEBAC2",
"W. c #AFBBC3",
"Q. c #B0BBC3",
"!. c #B3BEC6",
"~. c #B7BDC5",
"^. c #B9BEC4",
"/. c #B7C0C7",
"(. c #BDC1C7",
"). c #C1C0C5",
"_. c #C4C4C8",
"`. c #C1C8CE",
"'. c #C3CCD2",
"]. c #C5CDD3",
"[. c #C9CBD1",
"{. c #CDCED2",
"}. c #CAD2D7",
"|. c #CBD2D7",
" X c #CBD2D8",
".X c #D0D3D8",
"XX c #D0D7DC",
"oX c #D1D8DD",
"OX c #D5D8DC",
"+X c #D6D8DC",
"@X c #D4DBDF",
"#X c #DCDCDF",
"$X c #D9DEE2",
"%X c #D9DFE3",
"&X c #DADEE2",
"*X c #DFE3E6",
"=X c #E0E2E5",
"-X c #E1E3E6",
";X c #E0E4E8",
":X c #E0E5E8",
">X c #E4E5E8",
",X c #E5E7E9",
"<X c #E4E7EA",
"1X c #E5E9EB",
"2X c #E7E9EC",
"3X c #E7EAED",
"4X c #E9EAEC",
"5X c #E8ECEE",
"6X c #ECEFF1",
"7X c #EEEFF1",
"8X c #EFEFF1",
"9X c #EDF0F2",
"0X c #EFF1F3",
"qX c #F3F2F3",
"wX c #F3F5F6",
"eX c #F4F4F5",
"rX c #F5F7F8",
"tX c #F8F8F9",
"yX c gray98",
"uX c #FBFBFB",
"iX c #FBFCFC",
"pX c gray99",
"aX c #FCFCFD",
"sX c #FCFDFD",
"dX c #FEFEFE",
"fX c white",
"gX c None",
/* pixels */
"gXgXgXgXgXgXgXgXgXgXgXgXgXgXgXgXgXgXgXgXgXgXgXgXgXgXgXgXgXgXgXgX",
"gXgXgXgXgXgXgXgXgXgX: & gXgXgXgXgXgXgXgXgXgXgXgXgXgXgXgXgXgXgXgX",
"gXgXgXgXgXgXgXgXgXg 4.$.9 gXgXgXgXgXgXgXgXgXgXgXgXgXgXgXgXgXgXgX",
"gXgXgXgXgXgXgXgX  %.+.O.^ 5 7 0 gXgXgXgXgXgXgXgXgXgXgXgXgXgXgXgX",
"gXgXgXgXgXgXgXgX8 o.o.[ / { @.| gXgXgXgXgXgXgXgXgXgXgXgXgXgXgXgX",
"gXgXgXgXgXgXgX  } ! ! ( ' X.X.L gXgXgXgXgXgXgXgXgXgXgXgXgXgXgXgX",
"gXgXgXgXgXgXgX  H e.e...J ' ` Q . gXgXgXgXgXgXgXgXgXgXgXgXgXgXgX",
"gXgXgXgXgXgXgXw.a.fXfXU.A G _ )  .% gXgXgXgXgXgXgXgXgXgXgXgXgXgX",
"gXgXgXgXgXgXa {.fXfXfXfX:XS K ] #.$ gXgXgXgXgXgXgXgXgXgXgXgXgXgX",
"gXgXgXgXgXgXF G.uXZ.Z.Z.8XK.6 ' [ # gXgXgXgXgXgXgXgXgXgXgXgXgXgX",
"gXgXgXgXgXgXx.h.tXr.[.g.>X*XD ~ q gXgXgXgXgXgXgXgXgXgXgXgXgXgXgX",
"gXgXgXgXgXgXf d f.N.z.m.7XiXj.* gXgXgXgXgXgXgXgXgXgXgXgXgXgXgXgX",
"gXgXgXgXgXc T.1.3.y.~.2XaXiXj.  gXgXgXgXgXgX      gXgXgXgXgXgXgX",
"gXgXgXgX> 6.5.,.>.2.v.1XfXiXj.  gXgXgXgXgX  #X#Xp.gXgXgXgXgXgXgX",
"gXgXgXgX- <.;.T T I N ;XfXiXF.v           _.fX,XB.z   gXgXgXgXgX",
"gXgXgXgX= :.W -.-.R n ;XfXiXJ.(.tXtXtXtX|.b.fX6XoXyXi gXgXgXgXgX",
"gXgXgXgX= *.  Y -.s XXfXfXQ.H.fXfXfXfXfXfXfX!.fXdX].r gXgXgXgXgX",
"gXgXgXgXgX  gX  P '.fXfXfXfXpXeXpXfXfXfXfXfXfXfX$XM gXgXgXgXgXgX",
"gXgXgXgXgXgXgXgX  fXfXfXfXdX+XM.=XfXfXqX4XsXfXrX.XOXu gXgXgXgXgX",
"gXgXgXgXgXgXgXgX  fXfXfXfX-X^.fXfX0XfX).9.&XdX/.9XL.r gXgXgXgXgX",
"gXgXgXgXgXgXgXgX  fXfXfXfXl.fXfXfX}.5X<Xi.t.3Xs.d.l gXgXgXgXgXgX",
"gXgXgXgXgXgXgXgX  fXfXfXfXl.fXfXfXfX X`.C.p E.b   gXgXgXgXgXgXgX",
"gXgXgXgXgXgXgXgX  I.fXfXfXl.fXfXfXfXfXwXA.B 0.gXgXgXgXgXgXgXgXgX",
"gXgXgXgXgXgXgXgXgXh 5XfXfXV.P.fXfXfX%XY.Z S.  gXgXgXgXgXgXgXgXgX",
"gXgXgXgXgXgXgXgXgXt c.@X@XR.7.a.a.a.V C n.8.gXgXgXgXgXgXgXgXgXgX",
"gXgXgXgXgXgXgXgXgXgXk m D.W.S.q.q.q.q.k.u.y gXgXgXgXgXgXgXgXgXgX",
"gXgXgXgXgXgXgXgXgXgXgXgXx v v v v v v v j gXgXgXgXgXgXgXgXgXgXgX",
"gXgXgXgXgXgXgXgXgXgXgXgXgXX 1   gX  E   gXgXgXgXgXgXgXgXgXgXgXgX",
"gXgXgXgXgXgXgXgXgXgXgXgXgXgX3 < gXgX4 e gXgXgXgXgXgXgXgXgXgXgXgX",
"gXgXgXgXgXgXgXgXgXgXgXgXgXgX2 w gXgX, &.gXgXgXgXgXgXgXgXgXgXgXgX",
"gXgXgXgXgXgXgXgXgXgXgXgXgXO U + gX  =.; gXgXgXgXgXgXgXgXgXgXgXgX",
"gXgXgXgXgXgXgXgXgXgXgXgX    o gX    @ gXgXgXgXgXgXgXgXgXgXgXgXgX"
};
