/* XPM */
static char *result[] = {
/* columns rows colors chars-per-pixel */
"32 32 230 2 ",
"   c #211F30",
".  c #221F30",
"X  c #241F30",
"o  c #381E35",
"O  c #26222F",
"+  c #2D232D",
"@  c #36272B",
"#  c #30282E",
"$  c #342B2D",
"%  c #242031",
"&  c #242131",
"*  c #242233",
"=  c #242333",
"-  c #272430",
";  c #282637",
":  c #2B2939",
">  c #352133",
",  c #342534",
"<  c #322E30",
"1  c #352936",
"2  c #6B3A1E",
"3  c #5F3621",
"4  c #472335",
"5  c #472337",
"6  c #482735",
"7  c #592538",
"8  c #5A2C38",
"9  c #4D363E",
"0  c #6E273B",
"q  c #752E3B",
"w  c #7B283D",
"e  c #7C283D",
"r  c #7C2A3E",
"t  c #594027",
"y  c #5B4327",
"u  c #474030",
"i  c #6E4C23",
"p  c #775523",
"a  c #313141",
"s  c #363646",
"d  c #3D3B4A",
"f  c #3B3C4B",
"g  c #3C3D4F",
"h  c #3F404F",
"j  c #434553",
"k  c #464756",
"l  c #484A58",
"z  c #4C4C5A",
"x  c #4C4F5D",
"c  c #4E505E",
"v  c #6A4346",
"b  c #7D4648",
"n  c #505260",
"m  c #525563",
"M  c #555764",
"N  c #545866",
"B  c #5B5E6C",
"V  c #5E6270",
"C  c #6A6865",
"Z  c #626774",
"A  c #646875",
"S  c #656976",
"D  c #676C78",
"F  c #676C79",
"G  c #756C79",
"H  c #74727F",
"J  c #87293E",
"K  c #88293E",
"L  c #984D15",
"P  c #BB5B0C",
"I  c #A25014",
"U  c #90641F",
"Y  c #A06F1D",
"T  c #BC6710",
"R  c #A2701E",
"E  c #845D21",
"W  c #8E7C2F",
"Q  c #A31F4D",
"!  c #842143",
"~  c #942A40",
"^  c #A4204D",
"/  c #B52E45",
"(  c #B0244B",
")  c #BC2E4B",
"_  c #C52D49",
"`  c #CC3048",
"'  c #CF3348",
"]  c #D13648",
"[  c #D23749",
"{  c #D63B49",
"}  c #D93F49",
"|  c #DA3F49",
" . c #804858",
".. c #9B5051",
"X. c #B74648",
"o. c #DC4149",
"O. c #DF454A",
"+. c #E44A4A",
"@. c #E75853",
"#. c #E55B56",
"$. c #E85C55",
"%. c #EC7162",
"&. c #AF9E32",
"*. c #CA8516",
"=. c #C98817",
"-. c #CD8A16",
";. c #CE8B16",
":. c #D4A327",
">. c #CCB93F",
",. c #D2BE3E",
"<. c #E1CA33",
"1. c #E1CB35",
"2. c #E3CE3E",
"3. c #BCAE4A",
"4. c #C7B541",
"5. c #EF816C",
"6. c #E3D56B",
"7. c #6E7480",
"8. c #717682",
"9. c #717783",
"0. c #767883",
"q. c #767984",
"w. c #757C87",
"e. c #7C7B85",
"r. c #7A7F8A",
"t. c #79808B",
"y. c #7D848F",
"u. c #7A8291",
"i. c #7C8190",
"p. c #82828D",
"a. c #828695",
"s. c #808893",
"d. c #848897",
"f. c #898891",
"g. c #858998",
"h. c #878B99",
"j. c #868E99",
"k. c #878F9A",
"l. c #99989F",
"z. c #8C94A1",
"x. c #8E96A0",
"c. c #8E96A1",
"v. c #9299A4",
"b. c #979CA5",
"n. c #969EAA",
"m. c #989BA8",
"M. c #989FA9",
"N. c #97A1AA",
"B. c #98A1AB",
"V. c #9BA1AA",
"C. c #98A1AC",
"Z. c #99A2AC",
"A. c #9DA5AF",
"S. c #9CA6AF",
"D. c #9EA9B2",
"F. c #9FAAB3",
"G. c #A1A1A8",
"H. c #A2A5B0",
"J. c #A1ACB5",
"K. c #A4AFB8",
"L. c #A6B1B9",
"P. c #A9B0B8",
"I. c #ABB1B8",
"U. c #A8B3BB",
"Y. c #A9B4BD",
"T. c #B6B5BB",
"R. c #B0B5BD",
"E. c #B9B8BE",
"W. c #BAB9BF",
"Q. c #D7D094",
"!. c #ADB8C0",
"~. c #AFBBC3",
"^. c #B8C2C9",
"/. c #BFC3C9",
"(. c #BBC4CA",
"). c #BFC6CC",
"_. c #C0C9CF",
"`. c #C2C8CF",
"'. c #C4C8CD",
"]. c #C6CED3",
"[. c #C6CFD5",
"{. c #CACDD3",
"}. c #CBD2D8",
"|. c #CBD3D8",
" X c #D0D0D3",
".X c #D0D3D8",
"XX c #D3D4DA",
"oX c #D4DADE",
"OX c #D4DBDF",
"+X c #DADADE",
"@X c #DCDCDF",
"#X c #D6DCE0",
"$X c #D7DDE1",
"%X c #DADEE1",
"&X c #D9DFE3",
"*X c #DDDFE2",
"=X c #DEE0E4",
"-X c #DEE2E5",
";X c #E0E4E7",
":X c #E1E4E7",
">X c #E2E6E9",
",X c #E4E6E9",
"<X c #E5E9EB",
"1X c #E7E8EB",
"2X c #E6E9EC",
"3X c #E7EAED",
"4X c #E7EBED",
"5X c #EBECED",
"6X c #E8ECEE",
"7X c #EAEEF0",
"8X c #EEEEF0",
"9X c #EDF0F2",
"0X c #EEF0F2",
"qX c #EFF0F2",
"wX c #F0F0F1",
"eX c #F1F3F5",
"rX c #F4F4F5",
"tX c #F4F6F7",
"yX c #F6F8F8",
"uX c #F8F8F9",
"iX c #F8F9FA",
"pX c #F9F9FA",
"aX c #FBFBFC",
"sX c #FCFCFD",
"dX c #FDFDFD",
"fX c #FDFDFE",
"gX c #FDFEFE",
"hX c #FEFEFE",
"jX c white",
"kX c None",
/* pixels */
"kXkXkXkXkXkXkXkXkXkXkXkXkXkXkXkXkXkXkXkXkXkXkXkXkXkXkXkXkXkXkXkX",
"kXkXkXkXkXkXkXkXkXkXkX1 , kXkXkXkXkXkXkXkXkXkXkXkXkXkXkXkXkXkXkX",
"kXkXkXkXkXkXkXkXkXkXv 5.$.5 kXkXkXkXkXkXkXkXkXkXkXkXkXkXkXkXkXkX",
"kXkXkXkXkXkXkXkXkX% %.+.+.^ 4 6 kXkXkXkXkXkXkXkXkXkXkXkXkXkXkXkX",
"kXkXkXkXkXkXkXkXkX8 +.+.O.Q ' X.9 kXkXkXkXkXkXkXkXkXkXkXkXkXkXkX",
"kXkXkXkXkXkXkXkX  +.o.o.] ( { @.b kXkXkXkXkXkXkXkXkXkXkXkXkXkXkX",
"kXkXkXkXkXkXkXkX  } J J / ` | | q kXkXkXkXkXkXkXkXkXkXkXkXkXkXkX",
"kXkXkXkXkXkXkXkX  r f.f. .e ` _ ! o kXkXkXkXkXkXkXkXkXkXkXkXkXkX",
"kXkXkXkXkXkXkXkXf.l.jXjXE.8.w _ ) ..& kXkXkXkXkXkXkXkXkXkXkXkXkX",
"kXkXkXkXkXkXkXg +XjXjXjXjX>XH K ] #.% kXkXkXkXkXkXkXkXkXkXkXkXkX",
"kXkXkXkXkXkXkXp.H.fXm.m.m.rXF.7 ` [ X kXkXkXkXkXkXkXkXkXkXkXkXkX",
"kXkXkXkXkXkXkXG.a.dXi.XXh.8X-XG ~ 0 kXkXkXkXkXkXkXkXkXkXkXkXkXkX",
"kXkXkXkXkXkXkXd s g.C.d.n.tXyXs.> kXkXkXkXkXkX      kXkXkXkXkXkX",
"kXkXkXkXkX  C Q.4.>.u.`.qXhXyXs.  kXkXkXkXkX  @X@Xe.kXkXkXkXkXkX",
"kXkXkXkX  ,.6.2.1.<.3.z.4XjXyXD.x            XjX=XZ.k   kXkXkXkX",
"kXkXkXkX  <.:.P P P L Z <XjXyXJ.'.uXuXuXuX].c.jX3X#XpX: kXkXkXkX",
"kXkXkXkXkX@ T =.-.;.R S 2XjX!.R.jXjXjXjXjXjXjX^.jXhX_.; kXkXkXkX",
"kXkXkXkXkXkX    Y *.c $XjXjXjXaXrXsXjXjXjXjXjXjXjXoXM kXkXkXkXkX",
"kXkXkXkXkXkXkXkX  I |.jXjXjXdX.XM.1XjXjXwX5XgXhXyX{.%X: kXkXkXkX",
"kXkXkXkXkXkXkXkXkX= jXjXjXjX*X/.jXjX0XjXT.r.;XiX(.9XP.; kXkXkXkX",
"kXkXkXkXkXkXkXkXkX= jXjXjXjXv.jXjXjX[.6X,X0.y.:Xj.k.j kXkXkXkXkX",
"kXkXkXkXkXkXkXkXkX= jXjXjXjXv.jXjXjXjX}.).A.a Y.N   kXkXkXkXkXkX",
"kXkXkXkXkXkXkXkXkX* W.jXjXjXv.jXjXjXjXjXeXV.V 9.kXkXkXkXkXkXkXkX",
"kXkXkXkXkXkXkXkXkXkXz 7XjXjXB.E.jXjXjX&XI.D K.  kXkXkXkXkXkXkXkX",
"kXkXkXkXkXkXkXkXkXkXf b.OXOXU.q.f.f.f.A F N.7.kXkXkXkXkXkXkXkXkX",
"kXkXkXkXkXkXkXkXkXkXkXl B L.~.S.w.w.w.w.x.t.kXkXkXkXkXkXkXkXkXkX",
"kXkXkXkXkXkXkXkXkXkXkXkXkXn m m m m m m m h kXkXkXkXkXkXkXkXkXkX",
"kXkXkXkXkXkXkXkXkXkXkXkXkXkX+ 2   kX  E   kXkXkXkXkXkXkXkXkXkXkX",
"kXkXkXkXkXkXkXkXkXkXkXkXkXkXkX3 3 kXkXy p kXkXkXkXkXkXkXkXkXkXkX",
"kXkXkXkXkXkXkXkXkXkXkXkXkXkXkXt i kXkXu W kXkXkXkXkXkXkXkXkXkXkX",
"kXkXkXkXkXkXkXkXkXkXkXkXkXkX$ U # kX  &.< kXkXkXkXkXkXkXkXkXkXkX",
"kXkXkXkXkXkXkXkXkXkXkXkXkX  . O kX    - kXkXkXkXkXkXkXkXkXkXkXkX"
};
