/* XPM */
static char *result[] = {
/* columns rows colors chars-per-pixel */
"32 32 225 2 ",
"   c #211F30",
".  c #26212F",
"X  c #26222F",
"o  c #31292E",
"O  c #3E312C",
"+  c #272031",
"@  c #262330",
"#  c #272232",
"$  c #272430",
"%  c #2B2031",
"&  c #282232",
"*  c #282637",
"=  c #2C2B3B",
"-  c #2C2B3C",
";  c #3F2634",
":  c #332F30",
">  c #342936",
",  c #312F3E",
"<  c #441E38",
"1  c #422B28",
"2  c #45362B",
"3  c #472735",
"4  c #4C2336",
"5  c #402F3A",
"6  c #512437",
"7  c #55203A",
"8  c #69263A",
"9  c #682A3A",
"0  c #78283C",
"q  c #7B2B3F",
"w  c #6D4F25",
"e  c #353646",
"r  c #3F3E4D",
"t  c #553A40",
"y  c #703D42",
"u  c #7B374A",
"i  c #414251",
"p  c #464856",
"a  c #4B4D5B",
"s  c #4E4D5A",
"d  c #4B4D5C",
"f  c #4C4F5D",
"g  c #525563",
"h  c #575664",
"j  c #575A67",
"k  c #5B5966",
"l  c #5B5E6C",
"z  c #785867",
"x  c #5C606D",
"c  c #5C606E",
"v  c #72636F",
"b  c #626370",
"n  c #616572",
"m  c #646975",
"M  c #6D6C77",
"N  c #6A6C78",
"B  c #686D7A",
"V  c #696E7B",
"C  c #6A6E7A",
"Z  c #6A6F7B",
"A  c #6A6F7C",
"S  c #6C717D",
"D  c #6D737F",
"F  c #85343E",
"G  c #884517",
"H  c #8A4517",
"J  c #814219",
"K  c #BE630F",
"L  c #A3701C",
"P  c #AE7219",
"I  c #B77D19",
"U  c #885F21",
"Y  c #C06911",
"T  c #912A40",
"R  c #9C2B41",
"E  c #9A3640",
"W  c #9F394B",
"Q  c #A82747",
"!  c #A42C42",
"~  c #A52F42",
"^  c #AA2D43",
"/  c #BC2E46",
"(  c #B1254B",
")  c #B9284A",
"_  c #BD3D45",
"`  c #BD304B",
"'  c #C63049",
"]  c #C93048",
"[  c #CC3048",
"{  c #CE3248",
"}  c #D03548",
"|  c #D93E49",
" . c #CA4047",
".. c #DD4349",
"X. c #DF444A",
"o. c #E3494A",
"O. c #E44A4A",
"+. c #E05052",
"@. c #CB6D5F",
"#. c #D27363",
"$. c #EC7363",
"%. c #A29232",
"&. c #B3A132",
"*. c #B4A232",
"=. c #B7A73F",
"-. c #CC8615",
";. c #CE8B16",
":. c #D5B92F",
">. c #E1CA33",
",. c #E4CE3E",
"<. c #B4A856",
"1. c #C9B740",
"2. c #F0856E",
"3. c #C6BD75",
"4. c #E4CF40",
"5. c #E6D352",
"6. c #6D7380",
"7. c #707581",
"8. c #757786",
"9. c #757C87",
"0. c #797983",
"q. c #7B7A84",
"w. c #7C7B85",
"e. c #767D88",
"r. c #787F8A",
"t. c #787C8D",
"y. c #7A808C",
"u. c #79808F",
"i. c #7E8590",
"p. c #818584",
"a. c #87868F",
"s. c #828791",
"d. c #818893",
"f. c #858D97",
"g. c #898891",
"h. c #868E99",
"j. c #878F9A",
"k. c #88909B",
"l. c #8A939D",
"z. c #8B939E",
"x. c #90919B",
"c. c #97979F",
"v. c #BDB997",
"b. c #8D94A0",
"n. c #939BA5",
"m. c #9998A0",
"M. c #979CA8",
"N. c #959EAA",
"B. c #989BA8",
"V. c #989FA9",
"C. c #999FA9",
"Z. c #99A2AC",
"A. c #9AA4AE",
"S. c #9EA7B2",
"D. c #B2AFAB",
"F. c #A4A6B2",
"G. c #A3A9B2",
"H. c #A5ABB4",
"J. c #ABAAB1",
"K. c #A8AEB7",
"L. c #ACAEB8",
"P. c #ADB7BF",
"I. c #B2B4BB",
"U. c #B1B4BD",
"Y. c #B3B5BF",
"T. c #AFBBC3",
"R. c #B4BBC3",
"E. c #B7BAC2",
"W. c #B1BCC3",
"Q. c #B3BEC6",
"!. c #B9BEC4",
"~. c #BDBFC7",
"^. c #B9C3CA",
"/. c #BFC1C9",
"(. c #BDC3C9",
"). c #C2C1C6",
"_. c #C0C4CB",
"`. c #C3C8CD",
"'. c #C7C8CF",
"]. c #C4CDD3",
"[. c #C6CFD4",
"{. c #C7CFD5",
"}. c #C9D1D6",
"|. c #CBD0D6",
" X c #CCD0D5",
".X c #CCD1D5",
"XX c #D3DADE",
"oX c #D7D8DD",
"OX c #D4DADE",
"+X c #D4DBDF",
"@X c #D8D8DB",
"#X c #DCDCDF",
"$X c #D9DBE0",
"%X c #DCDEE2",
"&X c #DCE1E5",
"*X c #DCE2E5",
"=X c #DFE3E7",
"-X c #E0E0E2",
";X c #E2E2E5",
":X c #E1E2E6",
">X c #E0E5E8",
",X c #E3E7E9",
"<X c #E2E7EA",
"1X c #E7EBED",
"2X c #E8EBEE",
"3X c #E9ECEF",
"4X c #EBEDEF",
"5X c #ECECEE",
"6X c #EDEEF0",
"7X c #EDF0F2",
"8X c #F1F1F3",
"9X c #F3F5F6",
"0X c #F4F4F5",
"qX c #F4F6F7",
"wX c gray97",
"eX c #F8F8F9",
"rX c #F9F9F9",
"tX c #F9FAFA",
"yX c #FAFBFB",
"uX c #FBFBFB",
"iX c #FCFCFD",
"pX c #FDFDFD",
"aX c #FDFEFE",
"sX c white",
"dX c None",
/* pixels */
"dXdXdXdXdXdXdXdXdXdX& # + dXdXdXdXdXdXdXdXdXdXdXdXdXdXdXdXdXdXdX",
"dXdXdXdXdXdXdXdXdX> 2.$.F dXdXdXdXdXdXdXdXdXdXdXdXdXdXdXdXdXdXdX",
"dXdXdXdXdXdXdXdX  #.O.o.` 7 ; 5 dXdXdXdXdXdXdXdXdXdXdXdXdXdXdXdX",
"dXdXdXdXdXdXdXdX3  .X.| ) ' o.@.  dXdXdXdXdXdXdXdXdXdXdXdXdXdXdX",
"dXdXdXdXdXdXdXdXE ~ R ^ [ | .._   dXdXdXdXdXdXdXdXdXdXdXdXdXdXdX",
"dXdXdXdXdXdXdXdX8 v M z T / [ Q < dXdXdXdXdXdXdXdXdXdXdXdXdXdXdX",
"dXdXdXdXdXdXdXk q.5XsX@XN u ] ( W t dXdXdXdXdXdXdXdXdXdXdXdXdXdX",
"dXdXdXdXdXdX- x.sXsXsXsX3Xs.q { +.y dXdXdXdXdXdXdXdXdXdXdXdXdXdX",
"dXdXdXdXdXdXr U.:XE.L.L.oX].* [ } 9 dXdXdXdXdXdXdXdXdXdXdXdXdXdX",
"dXdXdXdXdXdXs ~.'.t./.F.Y.1Xy.0 ! 4 dXdXdXdXdXdXdXdXdXdXdXdXdXdX",
"dXdXdXdXdXdX, h 8.N.B.M.|.sXQ.% 6 dXdXdXdXdXdXdXdXdXdXdXdXdXdXdX",
"dXdXdXdXdX  v.<.=.p.S.$XqXsXQ.  dXdXdXdXdXdXdXdXdXdXdXdXdXdXdXdX",
"dXdXdXdX  3.5.,.>.1.u.XXsXsXQ.  dXdXdXdXdXdX        dXdXdXdXdXdX",
"dXdXdXdX%.4.Y Y Y Y e {.sXsXQ.  dXdXdXdXdXdXJ.#X).  dXdXdXdXdXdX",
"dXdXdX  *.K -.-.-.-.= {.sXsXQ.6.          a.rXsXn.e.  dXdXdXdXdX",
"dXdXdXdX$ . X w ;.O W.aXsXsXQ.C.eXeXeXeX,XA.%XsX^.uXw.dXdXdXdXdX",
"dXdXdXdXdXdXdXdXJ D.sXsXsX[.z.sXsXsXsXsXsXsX}.tXsX=Xx dXdXdXdXdX",
"dXdXdXdXdXdXdXdX  -XsXsXsXsXsX0XeXsXsXsXsXsXsXsX9Xd.dXdXdXdXdXdX",
"dXdXdXdXdXdXdXdX  -XsXsXsXsX6XV._.sXsXpX;XtXsX9X8X!.0.dXdXdXdXdX",
"dXdXdXdXdXdXdXdX  -XsXsXsX4XG.sXsXqXiXwXb (.yXP.7X.Xj dXdXdXdXdX",
"dXdXdXdXdXdXdXdX  -XsXsXsXH.tXsXsX&X<X2XI.n  Xb.j.Z dXdXdXdXdXdX",
"dXdXdXdXdXdXdXdX  -XsXsXsXH.tXsXsXsXOX}.K.c f.V   dXdXdXdXdXdXdX",
"dXdXdXdXdXdXdXdXdXm.sXsXsXH.tXsXsXsXsXaX`.B D = dXdXdXdXdXdXdXdX",
"dXdXdXdXdXdXdXdXdX  *XsXsXR.c.sXsXsX>XOXA k.d dXdXdXdXdXdXdXdXdX",
"dXdXdXdXdXdXdXdXdXdXS +X+X^.7.g.g.g.C m i.l.i dXdXdXdXdXdXdXdXdX",
"dXdXdXdXdXdXdXdXdXdXdXl h.T.T.9.9.9.9.r.Z.a dXdXdXdXdXdXdXdXdXdX",
"dXdXdXdXdXdXdXdXdXdXdXdXp g g g g g g g f dXdXdXdXdXdXdXdXdXdXdX",
"dXdXdXdXdXdXdXdXdXdXdXdXdX  H   dX  U   dXdXdXdXdXdXdXdXdXdXdXdX",
"dXdXdXdXdXdXdXdXdXdXdXdXdXdX1 G dXdX2 L   dXdXdXdXdXdXdXdXdXdXdX",
"dXdXdXdXdXdXdXdXdXdXdXdXdXdX  P   dX  :.  dXdXdXdXdXdXdXdXdXdXdX",
"dXdXdXdXdXdXdXdXdXdXdXdXdX  I o dX  &.: dXdXdXdXdXdXdXdXdXdXdXdX",
"dXdXdXdXdXdXdXdXdXdXdXdXdX  X dXdX  @ dXdXdXdXdXdXdXdXdXdXdXdXdX"
};
