/* XPM */
static char *result[] = {
/* columns rows colors chars-per-pixel */
"32 32 7 1 ",
"  c #11596E",
". c #30B173",
"X c #1C8C82",
"o c #64D88C",
"O c #B1F6B8",
"+ c white",
"@ c None",
/* pixels */
"@@@@@@@@@@@@@@@@@@@@@@@@@@@@@@@@",
"@@@@@@@@@@@@@@@@@@@@@@@@@@@@@@@@",
"@@@@@@@@@@@@@@@@@@@@@@@@@@@@@@@@",
"@@@@@@@@@@@@@@@@@@@@@@@@@@@@@@@@",
"@@@@@@@@@@@@@@@@@@@@@@@@@@@@@@@@",
"@@@@@@@@@@@@@@@@@@@@@@@@@@@@@@@@",
"@@@@@@@@@@@@@@@@@@@@@@@@@@@@@@@@",
"@@@@@@@@@@@@@@@@@@@@@@@@@@@@@@@@",
"@@@@@@@@@@@@@@@@@@@@@@@@@@@@@@@@",
"@@@@@@@@@@@@@@@@@@@@@@@@@@@@@@@@",
"@@@@@@@@@@@@@@@@@@@@@@@@@@@@@@@@",
"@@@@@@@@@@@@@@    @@@@@@@@@@@@@@",
"@@@@@@@@@@ oooOoooooo @@@@@@@@@@",
"@@@@@@@@@ ooooooooooo. @@@@@@@@@",
"@@@@@@@@ oOooooooooooo. @@@@@@@@",
"@@@@@@@ ooooOoooooooooo. @@@@@@@",
"@@@@@@@ o  oooooooooooo. @@@@@@@",
"@@@@@@ . ++oo + oooooOOo. @@@@@@",
"@@@@@@ . ++oo + oooooooo. @@@@@@",
"@@@@@ .o ++oo + oooooooo.. @@@@@",
"@@@@@ .o.  oo. .oooooooo.. @@@@@",
"@@@@@ .ooooooooooooooooo.. @@@@@",
"@@@@@ . X oX OX o  ooooo.. @@@@@",
"@@@@@ . . OXX . O  ooooo.. @@@@@",
"@@@@@ . . OX... O  ooooo.. @@@@@",
"@@@@@ . . OX...X X oo..o.. @@@@@",
"@@@@@ . . OX...... oo..... @@@@@",
"@@@@@.. . oX.. ... oo..o...@@@@@",
"@@@@@... .o   o   .o.oo....@@@@@",
"@@@@  ..oooooooooo.. .. o.  @@@@",
"@@@@ .  ..........  o   o.  @@@@",
"@@@                          @@@"
};
