/* XPM */
static char *result[] = {
/* columns rows colors chars-per-pixel */
"32 32 7 1 ",
"  c #11596E",
". c #30B173",
"X c #1C8C82",
"o c #64D88C",
"O c #B1F6B8",
"+ c white",
"@ c None",
/* pixels */
"@@@@@@@@@@@@@@@@@@@@@@@@@@@@@@@@",
"@@@@@@@@@@@@@@@@@@@@@@@@@@@@@@@@",
"@@@@@@@@@@@@@@@@@@@@@@@@@@@@@@@@",
"@@@@@@@@@@@@@@@@@@@@@@@@@@@@@@@@",
"@@@@@@@@@@@@@@@@@@@@@@@@@@@@@@@@",
"@@@@@@@@@@@@@@@@@@@@@@@@@@@@@@@@",
"@@@@@@@@@@@@@@@@@@@@@@@@@@@@@@@@",
"@@@@@@@@@@@@@@@@@@@@@@@@@@@@@@@@",
"@@@@@@@@@@@@@@@@@@@@@@@@@@@@@@@@",
"@@@@@@@@@@@@@@@@@@@@@@@@@@@@@@@@",
"@@@@@@@@@@@@@@@@@@@@@@@@@@@@@@@@",
"@@@@@@@@@@@@@@@@@@@@@@@@@@@@@@@@",
"@@@@@@@@@@@@@@@@@@@@@@@@@@@@@@@@",
"@@@@@@@@@@@@@@@@@@@@@@@@@@@@@@@@",
"@@@@@@@@@@@@@@@@@@@@@@@@@@@@@@@@",
"@@@@@@@@@@@@@@@@@@@@@@@@@@@@@@@@",
"@@@@@@@@@@           @@@@@@@@@@@",
"@@@@@@  oooOooooooooooo  @@@@@@@",
"@@@@@@oooooooooooooooooo. @@@@@@",
"@@@@ .OOooooooooooooooooo. @@@@@",
"@@@ .ooooooooooooooooooOoo. @@@@",
"@@@ .o    oooooooooooooooo. @@@@",
"@@@.oo++++ oo++++ ooooooOO.. @@@",
"@@@.oo    .oo    .oooooooo.. @@@",
"@@ ooo   oo   o   o ooooooo..@@@",
"@@ oo XXXo XX O X OX ooo..o..@@@",
"@@ oo ...O X.....X X oo...o..@@@",
"@ .oo ...o X... ...X ooo..... @@",
"@ .oo.   o.    O    .o.ooo... @@",
"   ...ooooooooooooooo.  ..Oo.. @",
" o.   ............... o.  oo.  @",
"                                "
};
