/* XPM */
static char *result[] = {
/* columns rows colors chars-per-pixel */
"32 32 7 1 ",
"  c #11596E",
". c #30B173",
"X c #1C8C82",
"o c #64D88C",
"O c #B1F6B8",
"+ c white",
"@ c None",
/* pixels */
"@@@@@@@@@@@@@@@@@@@@@@@@@@@@@@@@",
"@@@@@@@@@@@@@@@@@@@@@@@@@@@@@@@@",
"@@@@@@@@@@@@@@@@@@@@@@@@@@@@@@@@",
"@@@@@@@@@@@@@@@@@@@@@@@@@@@@@@@@",
"@@@@@@@@@@@@@@@@@@@@@@@@@@@@@@@@",
"@@@@@@@@@@@@@@@@@@@@@@@@@@@@@@@@",
"@@@@@@@@@@@@@@@@@@@@@@@@@@@@@@@@",
"@@@@@@@@@@@@@@@@@@@@@@@@@@@@@@@@",
"@@@@@@@@@@@@@@@@@@@@@@@@@@@@@@@@",
"@@@@@@@@@@@@@@@@@@@@@@@@@@@@@@@@",
"@@@@@@@@@@@@@@@@@@@@@@@@@@@@@@@@",
"@@@@@@@@@@@@@@@@@@@@@@@@@@@@@@@@",
"@@@@@@@@@@@@@      @@@@@@@@@@@@@",
"@@@@@@@@@@@  oooooo   @@@@@@@@@@",
"@@@@@@@@@  oooOooooooo @@@@@@@@@",
"@@@@@@@@ OOoooooooooooo. @@@@@@@",
"@@@@@@@ .OOoooooooooooo..@@@@@@@",
"@@@@@@ .o  ooooooooooooo. @@@@@@",
"@@@@@@.oo++ o   ooooooOOo. @@@@@",
"@@@@@@.oo++ o + ooooooooo. @@@@@",
"@@@@@ ooo++ o + oooooooOo.. @@@@",
"@@@@@ ooo  .o. .ooooooooo.. @@@@",
"@@@@@ oo ooo o  o ooooooo.. @@@@",
"@@@@@ o X o  O  o  oooooo.. @@@@",
"@@@@@ o X O ... O  oooooo.. @@@@",
"@@@@@ o X O ... O  ooo..o.. @@@@",
"@@@@@ o X O ...... ooo..... @@@@",
"@@@@ .o X o .. ... ooo..o...@@@@",
"@@@@ .o. .o.  O   .oo.oo....@@@@",
"@@@   ..ooooooooooo.. .. o.  @@@",
"@@@ o.  ...........  o   o.  @@@",
"@@                            @@"
};
