/* XPM */
static char *result[] = {
/* columns rows colors chars-per-pixel */
"32 32 7 1 ",
"  c #11596E",
". c #30B173",
"X c #1C8C82",
"o c #64D88C",
"O c #B1F6B8",
"+ c white",
"@ c None",
/* pixels */
"@@@@@@@@@@@@@@@@@@@@@@@@@@@@@@@@",
"@@@@@@@@@@@@@@@@@@@@@@@@@@@@@@@@",
"@@@@@@@@@@@@@@@@@@@@@@@@@@@@@@@@",
"@@@@@@@@@@@@@@@@@@@@@@@@@@@@@@@@",
"@@@@@@@@@@@@@@@@@@@@@@@@@@@@@@@@",
"@@@@@@@@@@@@@@@@@@@@@@@@@@@@@@@@",
"@@@@@@@@@@@@@@@@@@@@@@@@@@@@@@@@",
"@@@@@@@@@@@@@@@@@@@@@@@@@@@@@@@@",
"@@@@@@@@@@@@@@@@@@@@@@@@@@@@@@@@",
"@@@@@@@@@@@@@@@@@@@@@@@@@@@@@@@@",
"@@@@@@@@@@@@@@@@@@@@@@@@@@@@@@@@",
"@@@@@@@@@@@@@@@@@@@@@@@@@@@@@@@@",
"@@@@@@@@@@@@@@@@@@@@@@@@@@@@@@@@",
"@@@@@@@@@@@@@@@@@@@@@@@@@@@@@@@@",
"@@@@@@@@@@@@@@@@@@@@@@@@@@@@@@@@",
"@@@@@@@@@@@@         @@@@@@@@@@@",
"@@@@@@@@@   ooooooooo  @@@@@@@@@",
"@@@@@@@ oooooooooooooooo.@@@@@@@",
"@@@@@@ oOoooooooooooooooo @@@@@@",
"@@@@@ ooooOooooooooooooOo.. @@@@",
"@@@@@ oo   oooooooooooooo.. @@@@",
"@@@@ .o +++ o     ooooooOo..@@@@",
"@@@@ .o +++ o +++ oooooooo..@@@@",
"@@@ .oo.   .o.   .ooooooooo. @@@",
"@@@ .oo  ooo  o     ooooooo. @@@",
"@@@ .o XX o X OXX  X ooo.oo. @@@",
"@@@ .o X. O .....XXX oo...o. @@@",
"@@ ..o X. o ... ...X ooo.o... @@",
"@@ ..o.  .o.   o    .o.oo.... @@",
"@@  ...oooooooooooooo.  . Oo . @",
"@@o.   .............. o.  oo   @",
"@                              @"
};
