/* XPM */
static char *result[] = {
/* columns rows colors chars-per-pixel */
"32 32 7 1 ",
"  c #11596E",
". c #30B173",
"X c #1C8C82",
"o c #64D88C",
"O c #B1F6B8",
"+ c white",
"@ c None",
/* pixels */
"@@@@@@@@@@@@@@@@@@@@@@@@@@@@@@@@",
"@@@@@@@@@@@@@@@@@@@@@@@@@@@@@@@@",
"@@@@@@@@@@@@@@@@@@@@@@@@@@@@@@@@",
"@@@@@@@@@@@@@@@@@@@@@@@@@@@@@@@@",
"@@@@@@@@@@@@@@@@@@@@@@@@@@@@@@@@",
"@@@@@@@@@@@@@@@@@@@@@@@@@@@@@@@@",
"@@@@@@@@@@@@@@@@@@@@@@@@@@@@@@@@",
"@@@@@@@@@@@@@@@@@@@@@@@@@@@@@@@@",
"@@@@@@@@@@@@@@@@@@@@@@@@@@@@@@@@",
"@@@@@@@@@@@@@@@@@@@@@@@@@@@@@@@@",
"@@@@@@@@@@@@@@@@@@@@@@@@@@@@@@@@",
"@@@@@@@@@@@@@@@@@@@@@@@@@@@@@@@@",
"@@@@@@@@@@@@@@@@@@@@@@@@@@@@@@@@",
"@@@@@@@@@@@@@@@@@@@@@@@@@@@@@@@@",
"@@@@@@@@@@@@        @@@@@@@@@@@@",
"@@@@@@@@  oooOoooooooo @@@@@@@@@",
"@@@@@@@ ooooooooooooooo @@@@@@@@",
"@@@@@@ oOOooooooooooooo.. @@@@@@",
"@@@@@ .oooOoooooooooooOo..@@@@@@",
"@@@@ .o ++ oo    ooooooOo. @@@@@",
"@@@@ .o ++ oo ++ ooooooOo. @@@@@",
"@@@@ .o ++ oo ++ oooooooo. @@@@@",
"@@@@.ooooooooooooooooooooo. @@@@",
"@@@@.oo  oo  o     ooooooo. @@@@",
"@@@@.ooX.  XX ..  X oooooo. @@@@",
"@@@@.ooX.  X....  X ooo.oo. @@@@",
"@@@@.ooX.  X....XXX oo...o. @@@@",
"@@@ .ooX.  X.. ...X ooo.o... @@@",
"@@@ .oo  ..   o    .o.oo.... @@@",
"@@  ...ooooooooooooo.  . O. . @@",
"@@ o   ............. o.  o.   @@",
"@                             @@"
};
