/* XPM */
static char *result[] = {
/* columns rows colors chars-per-pixel */
"32 32 7 1 ",
"  c #11596E",
". c #30B173",
"X c #1C8C82",
"o c #64D88C",
"O c #B1F6B8",
"+ c white",
"@ c None",
/* pixels */
"@@@@@@@@@@@@@@@@@@@@@@@@@@@@@@@@",
"@@@@@@@@@@@@@@@@@@@@@@@@@@@@@@@@",
"@@@@@@@@@@@@@@@@@@@@@@@@@@@@@@@@",
"@@@@@@@@@@@@@@@@@@@@@@@@@@@@@@@@",
"@@@@@@@@@@@@@@@@@@@@@@@@@@@@@@@@",
"@@@@@@@@@@@@@@@@@@@@@@@@@@@@@@@@",
"@@@@@@@@@@@@@@@@@@@@@@@@@@@@@@@@",
"@@@@@@@@@@@@@@@@@@@@@@@@@@@@@@@@",
"@@@@@@@@@@@@@@@@@@@@@@@@@@@@@@@@",
"@@@@@@@@@@@@@@@@@@@@@@@@@@@@@@@@",
"@@@@@@@@@@@@@@@@@@@@@@@@@@@@@@@@",
"@@@@@@@@@@@@@@@@@@@@@@@@@@@@@@@@",
"@@@@@@@@@@@@@@@@@@@@@@@@@@@@@@@@",
"@@@@@@@@@@@@@@@@@@@@@@@@@@@@@@@@",
"@@@@@@@@@@@@@@@@@@@@@@@@@@@@@@@@",
"@@@@@@@@@  ooooooooo  @@@@@@@@@@",
"@@@@@@@  ooooooooooooo  @@@@@@@@",
"@@@@@ oOOooooooooooooooo.@@@@@@@",
"@@@@@.oOOooooooooooooooo. @@@@@@",
"@@@@ oo   ooooooooooooooo. @@@@@",
"@@@ .o +++ o     ooooooOO.. @@@@",
"@@@ .o +++ o +++ ooooooOO.. @@@@",
"@@ .oo.   .o.   .oooooooOo..@@@@",
"@@ .oooooooooooooooooooooo..@@@@",
"@@ .o XXXo X O X oX oooooo..@@@@",
"@@ .o X..O XX X. OX ooo..o..@@@@",
"@@ .o X..O X....X X oo...o..@@@@",
"@@..o X..o X.. ...X ooo..... @@@",
"@@..o.   o.   O    .ooooo... @@@",
"@  ...oooooooooooooo.. ..Oo.. @@",
"@ .   ..............  .  oo.  @@",
"                               @"
};
