/* XPM */
static char *result[] = {
/* columns rows colors chars-per-pixel */
"32 32 7 1 ",
"  c #11596E",
". c #30B173",
"X c #1C8C82",
"o c #64D88C",
"O c #B1F6B8",
"+ c white",
"@ c None",
/* pixels */
"@@@@@@@@@@@@@@@@@@@@@@@@@@@@@@@@",
"@@@@@@@@@@@@@@@@@@@@@@@@@@@@@@@@",
"@@@@@@@@@@@@@@@@@@@@@@@@@@@@@@@@",
"@@@@@@@@@@@@@@@@@@@@@@@@@@@@@@@@",
"@@@@@@@@@@@@@@@@@@@@@@@@@@@@@@@@",
"@@@@@@@@@@@@@@@@@@@@@@@@@@@@@@@@",
"@@@@@@@@@@@@@@@@@@@@@@@@@@@@@@@@",
"@@@@@@@@@@@@@@@@@@@@@@@@@@@@@@@@",
"@@@@@@@@@@@@@@@@@@@@@@@@@@@@@@@@",
"@@@@@@@@@@@@@@@@@@@@@@@@@@@@@@@@",
"@@@@@@@@@@@@@@@@@@@@@@@@@@@@@@@@",
"@@@@@@@@@@@@@     @@@@@@@@@@@@@@",
"@@@@@@@@@  oooOooooo  @@@@@@@@@@",
"@@@@@@@@@oooooooooooo.@@@@@@@@@@",
"@@@@@@@@ OOooooooooooo @@@@@@@@@",
"@@@@@@ .ooooOoooooooOo.. @@@@@@@",
"@@@@@@ .o oooooooooooo.. @@@@@@@",
"@@@@@@.o + oo++ oooooOo.. @@@@@@",
"@@@@@@.o + oo++ ooooooo.. @@@@@@",
"@@@@@ oo + oo++ oooooooo..@@@@@@",
"@@@@@ oo. .oo  .oooooooo..@@@@@@",
"@@@@@ oooooooooooooooooo..@@@@@@",
"@@@@@  XXo X  X  X ooooo..@@@@@@",
"@@@@@  X.O XXX.  X ooooo..@@@@@@",
"@@@@@  X.O X...  X ooooo..@@@@@@",
"@@@@@  X.O X...XXX oo.oo..@@@@@@",
"@@@@@  X.O X.....X o...o..@@@@@@",
"@@@@ . X.o X.  ..X oo.o... @@@@@",
"@@@@ ..  o.  Oo   ..oo.... @@@@@",
"@@@   ..oooooooooo.  . Oo.. @@@@",
"@@@ o.  .......... o.  oo.  @@@@",
"@@@                          @@@"
};
