/* XPM */
static char *result[] = {
/* columns rows colors chars-per-pixel */
"32 32 7 1 ",
"  c #11596E",
". c #30B173",
"X c #1C8C82",
"o c #64D88C",
"O c #B1F6B8",
"+ c white",
"@ c None",
/* pixels */
"@@@@@@@@@@@@@@@@@@@@@@@@@@@@@@@@",
"@@@@@@@@@@@@@@@@@@@@@@@@@@@@@@@@",
"@@@@@@@@@@@@@@@@@@@@@@@@@@@@@@@@",
"@@@@@@@@@@@@@@@@@@@@@@@@@@@@@@@@",
"@@@@@@@@@@@@@@@@@@@@@@@@@@@@@@@@",
"@@@@@@@@@@@@@@@@@@@@@@@@@@@@@@@@",
"@@@@@@@@@@@@@@@@@@@@@@@@@@@@@@@@",
"@@@@@@@@@@@@@@@@@@@@@@@@@@@@@@@@",
"@@@@@@@@@@@@@@@@@@@@@@@@@@@@@@@@",
"@@@@@@@@@@@@@@@@@@@@@@@@@@@@@@@@",
"@@@@@@@@@@@@@@@@@@@@@@@@@@@@@@@@",
"@@@@@@@@@@@@@@@@@@@@@@@@@@@@@@@@",
"@@@@@@@@@@@@@@@@@@@@@@@@@@@@@@@@",
"@@@@@@@@@@@@@@@@@@@@@@@@@@@@@@@@",
"@@@@@@@@@@@@@@@@@@@@@@@@@@@@@@@@",
"@@@@@@@@@@@@@@@@@@@@@@@@@@@@@@@@",
"@@@@@@@@@@@          @@@@@@@@@@@",
"@@@@@@@ oooOoooooooooooo @@@@@@@",
"@@@@@@ ooooooooooooooooo. @@@@@@",
"@@@@@.oOooooooooooooooooo..@@@@@",
"@@@@ ooooOoooooooooooooooo. @@@@",
"@@@@ oo    ooooooooooooooo. @@@@",
"@@@ .o ++++oo ++++ooooooOOo. @@@",
"@@@ .o.    oo.    ooooooooo. @@@",
"@@ .oo   oo   o   o  oooooo.. @@",
"@@ .o XXX oXXXO XXO Xooo..o.. @@",
"@@ .o X.. OX...... XXooo..... @@",
"@ ..o X.. oX...  ...Xooo..o... @",
"@ ..o.   .o    Oo    oo.oo.... @",
"@  ...ooooooooooooooo.. .. o. .@",
"@o.   ...............  o   o.  @",
"                                "
};
