/* XPM */
static char *result[] = {
/* columns rows colors chars-per-pixel */
"32 32 5 1 ",
"  c #0C9C06",
". c #0CC005",
"X c #A0EB14",
"o c #F0F9B6",
"O c None",
/* pixels */
"OOOOOOOOOOOOOOOOOOOOOOOOOOOOOOOO",
"OOOOOOOOOOOOOOOOOOOOOOOOOOOOOOOO",
"OOOOOOOOOOOOOOOOOOOOOOOOOOOOOOOO",
"OOOOOOOO OOOOOOOOOOOOOOOOOOOOOOO",
"OOOOOOOOOOOOOOO   OOOOOOOOOOOOOO",
"OOOOOOOOOOOOOO .XX OOOOOOOOOOOOO",
"OOOOOOOOOOOOO  Xo X O OOOOOOOOOO",
"OOOOOOOOOOOOO  X .X O OOOOOOOOOO",
"OOOOOOOOOOOOO   ..  OOOOOOOOOOOO",
"OOOOOOOOOOOO  X..X.  OOOOOOOOOOO",
"OOOOOOOOOOOO  X.XX.  OOOOOOOOOOO",
"OOOOOOOOOOOO  X.X.X  OOOOOOOOOOO",
"OO OOOOOOOOO X . . X.OOOOOOOOOOO",
"OOOOOOOOOOOO X  ... XOOOOOOOOOOO",
"OOOOOOOOOOOO X  .X. XOOOOOOOOOOO",
"OOOOOOOOOOOO .  o.. oOOOOOOOOOOO",
"OOOOOOOOOOOO .  X... OOOOOOOOOOO",
"OOOOOOOOOOOO .  X  . OOOOOOOOOOO",
"OOOOO OOOOOO .  .  X OOOOOOOOOOO",
"OOOOOOOOOOOO X  .. X OOOOOOOOOOO",
"OOOOOOOOOOOO X X X X OOOOOOOOOOO",
"OOOOOOOOOOOO  XX .X  OOOOOOOOOOO",
"OOOOOOOOOOOO  X. .o  OOOOOOOOOOO",
"OOOOOOOOOOOO  o.XoX  OOOOOOOOOOO",
"OOOOOOOOOOOO  . .. . OOOOOOOOOOO",
"OOOOOOOOOOOOO  X .. OOOOOOOOOOOO",
"OOOOOOOOOOOOO  ...o OOOOOOOOOOOO",
"OOOOOOOOOOOOOO ..X OOOOOOOOOOOOO",
"OOOOOOOOOOOOOOO ..OOOOOOOOOOOOOO",
"OOOOOOOOOOOOOOOOOOOOOOOOOOOOOOOO",
"OOOOOOOOOOOOOOOOOOOOOOOOOOOOOOOO",
"OOOOOOOOOOOOOOOOOOOOOOOOOOOOOOOO"
};
