/* XPM */
static char *result[] = {
/* columns rows colors chars-per-pixel */
"32 32 219 2 ",
"   c #201E2F",
".  c #221E2F",
"X  c #201F30",
"o  c #211F30",
"O  c #221F30",
"+  c #221F31",
"@  c #3F1E37",
"#  c #2D272E",
"$  c #222031",
"%  c #262230",
"&  c #282031",
"*  c #2A2131",
"=  c #282430",
"-  c #282636",
";  c #392332",
":  c #3E2234",
">  c #343034",
",  c #35333D",
"<  c #462335",
"1  c #472335",
"2  c #512437",
"3  c #532437",
"4  c #542437",
"5  c #5F2539",
"6  c #79283C",
"7  c #4A4331",
"8  c #664A26",
"9  c #333342",
"0  c #373746",
"q  c #373747",
"w  c #363648",
"e  c #3E3D4C",
"r  c #3F3D4C",
"t  c #792142",
"y  c #752C40",
"u  c #40404F",
"i  c #56524B",
"p  c #404150",
"a  c #444250",
"s  c #454755",
"d  c #494B59",
"f  c #51515F",
"g  c #764B4B",
"h  c #515463",
"j  c #525563",
"k  c #575764",
"l  c #5F5E6A",
"z  c #5C606D",
"x  c #606164",
"c  c #77606D",
"v  c #676672",
"b  c #636674",
"n  c #646875",
"m  c #666975",
"M  c #676A77",
"N  c #696873",
"B  c #6A6974",
"V  c #6B6A75",
"C  c #606578",
"Z  c #62677A",
"A  c #666B78",
"S  c #64697B",
"D  c #64697C",
"F  c #6E7073",
"G  c #70707B",
"H  c #85353D",
"J  c #8B363E",
"K  c #874719",
"L  c #9F5715",
"P  c #8F641F",
"I  c #93661F",
"U  c #B77115",
"Y  c #B37A1A",
"T  c #895F20",
"R  c #8B6731",
"E  c #C0660E",
"W  c #A31E4C",
"Q  c #922B40",
"!  c #97274E",
"~  c #A02C42",
"^  c #BC2E46",
"/  c #A93243",
"(  c #C72F47",
")  c #C02B49",
"_  c #CA2F48",
"`  c #C7354C",
"'  c #CC3048",
"]  c #CD3148",
"[  c #CE3248",
"{  c #CF3348",
"}  c #CF384A",
"|  c #D13648",
" . c #D43949",
".. c #8B4245",
"X. c #905853",
"o. c #9B5F57",
"O. c #CB4347",
"+. c #DE4349",
"@. c #DD4A4F",
"#. c #D84F56",
"$. c #D65450",
"%. c #E34B4B",
"&. c #E9645A",
"*. c #DD7D6A",
"=. c #7F827E",
"-. c #968732",
";. c #B19F32",
":. c #BE9F37",
">. c #CE8B16",
",. c #D4A225",
"<. c #D8B12A",
"1. c #CCB733",
"2. c #E1CA33",
"3. c #AF866B",
"4. c #E9D754",
"5. c #EFDF6F",
"6. c #696F81",
"7. c #6D7380",
"8. c #6E7480",
"9. c #6F7581",
"0. c #797782",
"q. c #7A808C",
"w. c #7A818F",
"e. c #7C838F",
"r. c #808893",
"t. c #848B96",
"y. c #858D97",
"u. c #8A8891",
"i. c #8F8E97",
"p. c #88909A",
"a. c #89929C",
"s. c #929199",
"d. c #96959D",
"f. c #9397A0",
"g. c #9099A3",
"h. c #969DA7",
"j. c #969FA9",
"k. c #99A1AB",
"l. c #9BA4AF",
"z. c #9BA5B0",
"x. c #A2ABB3",
"c. c #A3ADB7",
"v. c #A4AEB7",
"b. c #ABAAB0",
"n. c #A4AFB8",
"m. c #A8B2BA",
"M. c #A8B3BC",
"N. c #AAB5BD",
"B. c #AAB6BE",
"V. c #AEB4BC",
"C. c #AEB5BD",
"Z. c #AEB7BF",
"A. c #F5EDA2",
"S. c #ADB8C0",
"D. c #AFBBC3",
"F. c #B4BAC1",
"G. c #B7BBC2",
"H. c #B2BEC5",
"J. c #C0BFC4",
"K. c #BCC1C7",
"L. c #B8C2C9",
"P. c #BFC8CF",
"I. c #C1C5CB",
"U. c #C3C7CD",
"Y. c #C4C8CD",
"T. c #CBCBCE",
"R. c #CCCBCF",
"E. c #C3CCD2",
"W. c #C5CED4",
"Q. c #C7CED4",
"!. c #C9CDD3",
"~. c #CECED2",
"^. c #CCCFD4",
"/. c #C8D0D5",
"(. c #CED1D6",
"). c #CAD2D8",
"_. c #CFD4D8",
"`. c #D1D3D7",
"'. c #D1D4D8",
"]. c #D6D7DC",
"[. c #D3DADE",
"{. c #D5D8DC",
"}. c #DCDCDF",
"|. c #D6DDE1",
" X c #D8DEE1",
".X c #D9DFE3",
"XX c #DADFE3",
"oX c #DCDEE2",
"OX c #E1E6E9",
"+X c #E2E7E9",
"@X c #E5E9EB",
"#X c #E7EBED",
"$X c #E9E9EA",
"%X c #E9EAED",
"&X c #E8EBED",
"*X c #EBECEE",
"=X c #EAEDEF",
"-X c #EAEDF0",
";X c #EAEEF0",
":X c #EBEEF0",
">X c #EFF2F3",
",X c #F1F2F3",
"<X c #F0F2F4",
"1X c #F0F3F4",
"2X c #F6F5F6",
"3X c #F5F6F7",
"4X c #F5F7F8",
"5X c #F6F7F8",
"6X c #F7F7F8",
"7X c #F8F9FA",
"8X c #F9FAFA",
"9X c #F9FAFB",
"0X c #FAFAFB",
"qX c #FAFBFB",
"wX c gray99",
"eX c #FDFDFD",
"rX c #FEFEFE",
"tX c white",
"yX c None",
/* pixels */
"yXyXyXyXyXyXyXyXyXyXyXyXyXyXyXyXyXyXyXyXyXyXyXyXyXyXyXyXyXyXyXyX",
"yXyXyXyXyXyXyXyXyXyXyXyXyXyXyXyXyXyXyXyXyXyXyXyXyXyXyXyXyXyXyXyX",
"yXyXyXyXyXyXyXyXyXyXyXyXyXyXyXyXyXyXyXyXyXyXyXyXyXyXyXyXyXyXyXyX",
"yXyXyXyXyXyXyXyXyXyXyXyXyXyXyXyXyXyXyXyXyXyXyXyXyXyXyXyXyXyXyXyX",
"yXyXyXyXyXyXyXyXyXyXyXyXyXyXyXyXyXyXyXyXyXyXyXyXyXyXyXyXyXyXyXyX",
"yXyXyXyXyXyXyXyXyXyXyXyXyXyXyXyXyXyXyXyXyXyXyXyXyXyXyXyXyXyXyXyX",
"yXyXyXyXyXyXyXyXyXyXyXyXyXyXyXyXyXyXyXyXyXyXyXyXyXyXyXyXyXyXyXyX",
"yXyXyXyXyXyXyXyXyXyXyXyXyXyXyXyXyXyXyXyXyXyXyXyXyXyXyXyXyXyXyXyX",
"yXyXyXyXyXyXyXyXyXyXyXyXyXyXyXyXyXyXyX; ..X.X.o yXyXyXyXyXyXyXyX",
"yXyXyXyXyXyXyXyXyXyXyXyXyXyXyXyXyXyX. t @.&.&.o.yXyXyXyXyXyXyXyX",
"yXyXyXyXyXyXyXyXyXyXyXyXyXyXyXyXyXH Q W {  . .#.J yXyXyXyXyXyXyX",
"yXyXyXyXyXyXyXyXyXyXyXyXyXyXyXyXg $.+.) ~ 2 2 3 / o yXyXyXyXyXyX",
"yXyXyXyXyXyXyXyXyXyXyXyXyXyXyX@ ! ` | < c ~.~.R.: o yXyXyXyXyXyX",
"yXyXyXyXyXyXyXyXyXyXyXyXyXyX* O.} _ 1 x.$XtXtXrX}.i.yXyXyXyXyXyX",
"yXyXyXyXyXyXyXyXyXyXyXyXyXo *.[ ] 5 k.8XtXtXtXtXtX2Xv yXyXyXyXyX",
"yXyXyXyXyXyXyXyXyXyXyXyXyXo %.' ' 4 n.tXtXtXtXtXtXtXB yXyXyXyXyX",
"yXyXyXyXyX$ - - yXyXyXyXyX+ ( ' 6 y.8X%XS Z D 0X].C w yXyXyXyXyX",
"yXyXyXyXyXe 6XtXV yXyXyXyXyX& ^ y p.8X3Xl.6.z.F x > , yXyXyXyXyX",
"yXyXyXo r L.V.tX,Xu a a a a a a b c.8XtX+XM.=.2.2.4.A.i yXyXyXyX",
"yXyXyXo `.qX[.5XF.P.tXtXtXtXtXtX'.v.&XtX+Xw.:.<.<.<.<.5.7 yXyXyX",
"yXyXyXyXe.=XtXOX<XtXtXtXtXtXtXtXtXI.E.tX-Xm L E E E E ,.1.O yXyX",
"yXyXyXyXN m.tXtXtX@XJ.tXtXtXtXtX*X{.wXtXtXb.R >.>.Y I K -.yXyXyX",
"yXyXyXo Y.K.4X>X#Xq.s.tX:X9XtXtXoXG.^.tXtXtXd.T U 8 . .   yXyXyX",
"yXyXyXyXA .XQ._.f.h !..X|.7XtXtXtXtXU.(.tXtXtXu.3.o yXyXyXyXyXyX",
"yXyXyXyXyXn 7.C.f j.!.XX1XtXtXtXtXtXtXh.tXtXtXtXT.o yXyXyXyXyXyX",
"yXyXyXyXyXyX0 j 8.z  XtXtXtXtXtXtXtXtXh.tXtXtXeXG yXyXyXyXyXyXyX",
"yXyXyXyXyXyXyXO a.r.M ).;XtXtXtXtXtX0.Z.tXtXtX/.o yXyXyXyXyXyXyX",
"yXyXyXyXyXyXyXyXs B.e.d k l l l l l t.H.W.W.W.d yXyXyXyXyXyXyXyX",
"yXyXyXyXyXyXyXyXyXp N.g.g.g.g.g.g.g.S.D.D.9.p yXyXyXyXyXyXyXyXyX",
"yXyXyXyXyXyXyXyXyXyXq q q q q q q q q q q 9 yXyXyXyXyXyXyXyXyXyX",
"yXyXyXyXyXyXyXyXyXyXyXyXX ;.o yX$ P # yXyXyXyXyXyXyXyXyXyXyXyXyX",
"yXyXyXyXyXyXyXyXyXyXyXyXyX= o X yX% o X yXyXyXyXyXyXyXyXyXyXyXyX"
};
