/* XPM */
static char *result[] = {
/* columns rows colors chars-per-pixel */
"32 32 218 2 ",
"   c #211F2F",
".  c #221E2F",
"X  c #201F30",
"o  c #211F30",
"O  c #211F31",
"+  c #221F30",
"@  c #28242F",
"#  c #212031",
"$  c #222030",
"%  c #232030",
"&  c #282636",
"*  c #292736",
"=  c #2E2C3D",
"-  c #2E2D3D",
";  c #302635",
":  c #332F31",
">  c #35333B",
",  c #621D3F",
"<  c #4D2B3D",
"1  c #512437",
"2  c #5E2639",
"3  c #42303B",
"4  c #602D38",
"5  c #74273C",
"6  c #5E4527",
"7  c #4F4831",
"8  c #6E4120",
"9  c #7F5922",
"0  c #6D653F",
"q  c #7B6F31",
"w  c #343242",
"e  c #363646",
"r  c #373747",
"t  c #383846",
"y  c #3D3D4D",
"u  c #3E3F4F",
"i  c #513041",
"p  c #523940",
"a  c #42414F",
"s  c #404150",
"d  c #444250",
"f  c #494B59",
"g  c #494C5E",
"h  c #4F4F5D",
"j  c #4D4F5E",
"k  c #50515E",
"l  c #7F694C",
"z  c #555965",
"x  c #5D5B67",
"c  c #585B69",
"v  c #585C69",
"b  c #5B5F6B",
"n  c #5F5E6A",
"m  c #5A5E6C",
"M  c #5D616E",
"N  c #5E626F",
"B  c #616572",
"V  c #646875",
"C  c #646976",
"Z  c #666B77",
"A  c #606578",
"S  c #62677A",
"D  c #63687B",
"F  c #646A7C",
"G  c #6E7073",
"H  c #6E727E",
"J  c #89293F",
"K  c #89373F",
"L  c #8B521B",
"P  c #93661F",
"I  c #84673E",
"U  c #C0660E",
"Y  c #C17413",
"T  c #9A1E4B",
"R  c #8F2A40",
"E  c #892049",
"W  c #9C2B41",
"Q  c #973140",
"!  c #A32E44",
"~  c #AF2D44",
"^  c #B52E45",
"/  c #A53D43",
"(  c #BC3450",
")  c #C62F47",
"_  c #C42E49",
"`  c #C72E48",
"'  c #C93647",
"]  c #CC3048",
"[  c #CD3148",
"{  c #CE3248",
"}  c #CF364A",
"|  c #D13648",
" . c #D43949",
".. c #D73D4A",
"X. c #D53F4A",
"o. c #905853",
"O. c #B14044",
"+. c #AF695D",
"@. c #B36158",
"#. c #C04245",
"$. c #D74952",
"%. c #C85F57",
"&. c #E0464A",
"*. c #E9645A",
"=. c #BC8019",
"-. c #9A802D",
";. c #C68617",
":. c #CE8B16",
">. c #CD8D1D",
",. c #D8B12A",
"<. c #DFC331",
"1. c #E1CA33",
"2. c #E4CE3D",
"3. c #94834B",
"4. c #8E8A70",
"5. c #C1B145",
"6. c #D4A37F",
"7. c #E7CF57",
"8. c #696F81",
"9. c #6F7582",
"0. c #767682",
"q. c #787983",
"w. c #7A7A85",
"e. c #787C87",
"r. c #787E8A",
"t. c #7F8489",
"y. c #85848E",
"u. c #898A94",
"i. c #898C95",
"p. c #898C97",
"a. c #8D9394",
"s. c #8A939D",
"d. c #88909E",
"f. c #8D959F",
"g. c #91919A",
"h. c #8C95A0",
"j. c #9099A3",
"k. c #929BA4",
"l. c #959CA6",
"z. c #959DA7",
"x. c #959FA9",
"c. c #97A1AB",
"v. c #9AA0A8",
"b. c #98A0AA",
"n. c #9BA1AA",
"m. c #9AA1AB",
"M. c #9FA7AF",
"N. c #9FAAB3",
"B. c #A6A5AC",
"V. c #A6A6AC",
"C. c #A2AAB3",
"Z. c #A3AEB6",
"A. c #AAA9B0",
"S. c #ACABB2",
"D. c #AFAFB5",
"F. c #A8B3BC",
"G. c #B0B8BF",
"H. c #BABABF",
"J. c #F4EA91",
"K. c #ACB8C0",
"L. c #AFBBC3",
"P. c #B5B9C0",
"I. c #B7BBC2",
"U. c #B3BEC5",
"Y. c #B5BDC4",
"T. c #BFBFC3",
"R. c #BAC1C8",
"E. c #BFC6CC",
"W. c #C1C3C9",
"Q. c #C0C4CB",
"!. c #C0C5CB",
"~. c #C0C6CB",
"^. c #C6C5C9",
"/. c #C5C8CE",
"(. c #C1CBD1",
"). c #C5CED4",
"_. c #CECED2",
"`. c #CECFD5",
"'. c #CDD1D6",
"]. c #CAD2D8",
"[. c #D2D6DA",
"{. c #D1D7DC",
"}. c #D5D8DC",
"|. c #D8D8DB",
" X c #D8DADE",
".X c #D8DEE2",
"XX c #D9DFE3",
"oX c #DADFE3",
"OX c #DEDEE0",
"+X c #DFDFE1",
"@X c #DDDFE2",
"#X c #DAE0E3",
"$X c #DEE3E6",
"%X c #E0E4E8",
"&X c #E5E9EB",
"*X c #E5E9EC",
"=X c #E9ECEE",
"-X c #EAEEF0",
";X c #EFF0F1",
":X c #EDF0F2",
">X c #EFF2F3",
",X c #F0F1F3",
"<X c #F1F3F5",
"1X c #F3F3F5",
"2X c #F3F5F6",
"3X c #F5F7F8",
"4X c #F6F7F8",
"5X c #F7F7F8",
"6X c #F6F8F8",
"7X c #F8F8F9",
"8X c #FAFAFB",
"9X c #FBFCFC",
"0X c gray99",
"qX c #FCFCFD",
"wX c #FCFDFD",
"eX c #FEFEFE",
"rX c white",
"tX c None",
/* pixels */
"tXtXtXtXtXtXtXtXtXtXtXtXtXtXtXtXtXtXtXtXtXtXtXtXtXtXtXtXtXtXtXtX",
"tXtXtXtXtXtXtXtXtXtXtXtXtXtXtXtXtXtXtXtXtXtXtXtXtXtXtXtXtXtXtXtX",
"tXtXtXtXtXtXtXtXtXtXtXtXtXtXtXtXtXtXtXtXtXtXtXtXtXtXtXtXtXtXtXtX",
"tXtXtXtXtXtXtXtXtXtXtXtXtXtXtXtXtXtXtXtXtXtXtXtXtXtXtXtXtXtXtXtX",
"tXtXtXtXtXtXtXtXtXtXtXtXtXtXtXtXtXtXtXtXtXtXtXtXtXtXtXtXtXtXtXtX",
"tXtXtXtXtXtXtXtXtXtXtXtXtXtXtXtXtXtXtXtXtXtXtXtXtXtXtXtXtXtXtXtX",
"tXtXtXtXtXtXtXtXtXtXtXtXtXtXtXtXtXtXtXtXtXtXtXtXtXtXtXtXtXtXtXtX",
"tXtXtXtXtXtXtXtXtXtXtXtXtXtXtXtXtXtXtXtXtXtXtXtXtXtXtXtXtXtXtXtX",
"tXtXtXtXtXtXtXtXtXtXtXtXtXtXtXtXtXtXtXK o.o.p tXtXtXtXtXtXtXtXtX",
"tXtXtXtXtXtXtXtXtXtXtXtXtXtXtXtXtX. , ..*.*.@.; tXtXtXtXtXtXtXtX",
"tXtXtXtXtXtXtXtXtXtXtXtXtXtXtXtX4 Q T ]  . .$./ $ tXtXtXtXtXtXtX",
"tXtXtXtXtXtXtXtXtXtXtXtXtXtXtX3 %.&._ ) 1 1 1 ' o tXtXtXtXtXtXtX",
"tXtXtXtXtXtXtXtXtXtXtXtXtXtX+ E ( | 2 < _._._.i o tXtXtXtXtXtXtX",
"tXtXtXtXtXtXtXtXtXtXtXtXtXX #.X.` 5 p.OXrXrXrX+X^.o tXtXtXtXtXtX",
"tXtXtXtXtXtXtXtXtXtXtXtXtX+.} { R 0.=XrXrXrXrXrX0XV.tXtXtXtXtXtX",
"tXtXtXtXtXtXtXtXtXtXtXtXO O.[ ] J r.<XrXrXrXrXrXrXD.tXtXtXtXtXtX",
"tXtXtXtXo & & * tXtXtXtXtXW ] ~ v %XrXF S D `.8XA g tXtXtXtXtXtX",
"tXtXtXtX= ,XrXA.tXtXtXtXtX# ^ ! N %XrXU.8.d.t.G : > tXtXtXtXtXtX",
"tXtXtXw M.h.rX5Xq.a d d d d d h x.%XrX9XK.a.5.1.2.J.4.tXtXtXtXtX",
"tXtXtXg.9X(.9X'.Y.6XrXrXrXrXrX;XC.{.qX9Xc.3.,.,.,.,.7.0 tXtXtXtX",
"tXtXo B [.rX2X$XrXrXrXrXrXrXrXrX@XR.3XwXv.8 U U U U >.<.o tXtXtX",
"tXtXtXx l.eXrXrX:XH.rXrXrXrXrX7X}.;XrXrX|.l =.:.;.P L -.X tXtXtX",
"tXtXtXu.!.eX*X<Xn.w.rX3X>XrXrX1XI./.4XrXrXT.I Y 9 . . . tXtXtXtX",
"tXtXtXz ~.XXG.W.m P.XX.X-XrXrXrXrX X/.rXrXrXS.6.o tXtXtXtXtXtXtX",
"tXtXtXtXb V z.i.9.Q.oX&XrXrXrXrXrXrXm.rXrXrXrXrXo tXtXtXtXtXtXtX",
"tXtXtXtXtXtXj Z C E.rXrXrXrXrXrXrXrXm.rXrXrXrXy.tXtXtXtXtXtXtXtX",
"tXtXtXtXtXtXtXM j.c ].#XrXrXrXrXrXB.b.rXrXrX#X- tXtXtXtXtXtXtXtX",
"tXtXtXtXtXtXtXu s.f.f k n n n n n e.F.).).).H tXtXtXtXtXtXtXtXtX",
"tXtXtXtXtXtXtXtXy N.j.j.j.j.j.j.j.Z.L.L.k.s tXtXtXtXtXtXtXtXtXtX",
"tXtXtXtXtXtXtXtXtXt r r r r r r r r r r e tXtXtXtXtXtXtXtXtXtXtX",
"tXtXtXtXtXtXtXtXtXtXtXtXq 7 tXtX6 6 tXtXtXtXtXtXtXtXtXtXtXtXtXtX",
"tXtXtXtXtXtXtXtXtXtXtXtX@ %   tXtX% o tXtXtXtXtXtXtXtXtXtXtXtXtX"
};
