/* XPM */
static char *result[] = {
/* columns rows colors chars-per-pixel */
"32 32 230 2 ",
"   c #211F2F",
".  c #221E2F",
"X  c #201F30",
"o  c #211F30",
"O  c #211F31",
"+  c #221F30",
"@  c #25212F",
"#  c #392E2C",
"$  c #232030",
"%  c #242230",
"&  c #262435",
"*  c #2C2032",
"=  c #2E2D3D",
"-  c #3A2133",
";  c #3B2334",
":  c #3C2234",
">  c #421E38",
",  c #5E1E3E",
"<  c #402B29",
"1  c #41332B",
"2  c #533124",
"3  c #422634",
"4  c #532A37",
"5  c #4B3F36",
"6  c #4E353E",
"7  c #52383F",
"8  c #6D2D3A",
"9  c #71273B",
"0  c #7C283D",
"q  c #7D283D",
"w  c #7B333C",
"e  c #585031",
"r  c #755732",
"t  c #313040",
"y  c #343241",
"u  c #4E3041",
"i  c #403E4D",
"p  c #403F4D",
"a  c #5B3D42",
"s  c #5C3D43",
"d  c #7B3B41",
"f  c #484A57",
"g  c #484959",
"h  c #494B59",
"j  c #4D4B58",
"k  c #4E4C5A",
"l  c #4D505D",
"z  c #4E505D",
"x  c #6C4747",
"c  c #754849",
"v  c #674555",
"b  c #7F4F5F",
"n  c #4F5260",
"m  c #505260",
"M  c #525563",
"N  c #555866",
"B  c #5B5E6C",
"V  c #6F5564",
"C  c #5D616E",
"Z  c #62616D",
"A  c #7D7D6E",
"S  c #656A77",
"D  c #696B77",
"F  c #676C79",
"G  c #686D79",
"H  c #6A6F7C",
"J  c #6B707C",
"K  c #76757F",
"L  c #8B4616",
"P  c #BB590B",
"I  c #A55613",
"U  c #BD600E",
"Y  c #B87817",
"T  c #BC7D18",
"R  c #886020",
"E  c #8E6320",
"W  c #847832",
"Q  c #842044",
"!  c #9F3141",
"~  c #A22E42",
"^  c #AB2D43",
"/  c #B92E45",
"(  c #BB284A",
")  c #B73645",
"_  c #BA3946",
"`  c #C02F46",
"'  c #C12B49",
"]  c #C32F4A",
"[  c #C62D49",
"{  c #C1324B",
"}  c #C1374A",
"|  c #CC3048",
" . c #D43949",
".. c #D73C49",
"X. c #D53F4C",
"o. c #DA3F49",
"O. c #994448",
"+. c #B56058",
"@. c #C6484F",
"#. c #DE5053",
"$. c #E0454A",
"%. c #EA695D",
"&. c #EC7464",
"*. c #ED7564",
"=. c #988932",
"-. c #B29A2F",
";. c #A89732",
":. c #C58517",
">. c #CE8B16",
",. c #C08218",
"<. c #D1BC35",
"1. c #DFC834",
"2. c #E0C732",
"3. c #E1CA33",
"4. c #E2CB35",
"5. c #E3CD3E",
"6. c #979163",
"7. c #B4AC6E",
"8. c #E0D476",
"9. c #737985",
"0. c #757B87",
"q. c #7B7A84",
"w. c #7B7F8F",
"e. c #79808B",
"r. c #7A818C",
"t. c #7A818D",
"y. c #7E8590",
"u. c #7E8691",
"i. c #7F8692",
"p. c #838897",
"a. c #848B96",
"s. c #878B99",
"d. c #878F9B",
"f. c #88909B",
"g. c #8F929B",
"h. c #8E929F",
"j. c #96949C",
"k. c #97969E",
"l. c #B09480",
"z. c #8D95A0",
"x. c #929AA6",
"c. c #9A9BA3",
"v. c #979EA8",
"b. c #9A9EAA",
"n. c #9BA2AB",
"m. c #9DA5AF",
"M. c #9BA5B0",
"N. c #9EA8B1",
"B. c #9FA9B3",
"V. c #A1A1A8",
"C. c #A4A7B2",
"Z. c #A1A9B1",
"A. c #A7ADB6",
"S. c #A7AEB6",
"D. c #A9ABB6",
"F. c #A9AFB6",
"G. c #AFAFB5",
"H. c #ADAFB6",
"J. c #A7B1BA",
"K. c #AAB0B8",
"L. c #ACB2BA",
"P. c #A9B4BD",
"I. c #AFB6BD",
"U. c #B0B5BC",
"Y. c #B8B8BE",
"T. c #D8D5B4",
"R. c #AEBAC2",
"E. c #AFBBC3",
"W. c #B7B9C2",
"Q. c #B6BBC2",
"!. c #B7BCC3",
"~. c #B0BCC4",
"^. c #B3BEC6",
"/. c #BDBDC2",
"(. c #B9BDC4",
"). c #BABEC5",
"_. c #B9C1C8",
"`. c #B8C2C9",
"'. c #BEC0C8",
"]. c #C5C5C9",
"[. c #C4C6CD",
"{. c #C1CAD0",
"}. c #C4CBD1",
"|. c #C8CBD1",
" X c #CBCDD3",
".X c #CFCFD2",
"XX c #C8D0D5",
"oX c #C9D1D7",
"OX c #CFD7DB",
"+X c #D0D7DB",
"@X c #D2D6DB",
"#X c #D5D8DC",
"$X c #D4DBDF",
"%X c #D7DADE",
"&X c #DBDCE0",
"*X c #D8DEE2",
"=X c #DAE0E3",
"-X c #DBE0E4",
";X c #DEE3E6",
":X c #DFE3E6",
">X c #E0E5E8",
",X c #E3E8EA",
"<X c #E5E9EB",
"1X c #E5E9EC",
"2X c #EAEAEB",
"3X c #EAEAEC",
"4X c #E8EBEE",
"5X c #EBEEF0",
"6X c #EDEEF0",
"7X c #EEEFF1",
"8X c #EEF0F2",
"9X c #EFF0F2",
"0X c #F0F1F3",
"qX c #F2F2F3",
"wX c #F1F3F5",
"eX c #F2F4F5",
"rX c #F3F4F5",
"tX c #F4F5F7",
"yX c #F5F6F7",
"uX c #F7F8F9",
"iX c #F8F9F9",
"pX c #F9F9F9",
"aX c #F9FAFA",
"sX c #F9FAFB",
"dX c #FBFBFB",
"fX c #FDFDFD",
"gX c #FEFEFE",
"hX c #FEFFFF",
"jX c white",
"kX c None",
/* pixels */
"kXkXkXkXkXkXkXkXkXkXkXkXkXkXkXkXkXkXkXkXkXkXkXkXkXkXkXkXkXkXkXkX",
"kXkXkXkXkXkXkXkXkXkXkXkXkXkXkXkXkXkXkXkXkXkXkXkXkXkXkXkXkXkXkXkX",
"kXkXkXkXkXkXkXkXkXkXkXkXkXkXkXkXkXkXkXkXkXkXkXkXkXkXkXkXkXkXkXkX",
"kXkXkXkXkXkXkXkXkXkXkXkXkXkXkXkXkXkXkXkXkXkXkXkXkXkXkXkXkXkXkXkX",
"kXkXkXkXkXkXkXkXkXkXkXkXkXkXkXkXkXkXkX4 a s 7 kXkXkXkXkXkXkXkXkX",
"kXkXkXkXkXkXkXkXkXkXkXkXkXkXkXkXkXkX> _ &.*.+.6 kXkXkXkXkXkXkXkX",
"kXkXkXkXkXkXkXkXkXkXkXkXkXkXkXkXc 8 Q ' o.o.#.O.kXkXkXkXkXkXkXkX",
"kXkXkXkXkXkXkXkXkXkXkXkXkXkXkXo %.$.] [ q 0 0 ) ; kXkXkXkXkXkXkX",
"kXkXkXkXkXkXkXkXkXkXkXkXkXkXkX, { ..! 9 j.k.k.b * kXkXkXkXkXkXkX",
"kXkXkXkXkXkXkXkXkXkXkXkXkXkXw } ( ^ V c.gXjXjX].y kXkXkXkXkXkXkX",
"kXkXkXkXkXkXkXkXkXkXkXkXkXx @. .` v Q.aXjXjXjXjX/.o kXkXkXkXkXkX",
"kXkXkXkXkXkXkXkXkXkXkXkXkXd X.| / m -XD.h.h.'.W.h.o kXkXkXkXkXkX",
"kXkXkXkXkXkXkXkXkXkXkXkXkX3 ~ | u I.uXs.&X[.C.b. Xo kXkXkXkXkXkX",
"kXkXkXkXkXkXkXkX  kXkXkXkXkX- : t oXjX_.w.p.x.g p o kXkXkXkXkXkX",
"kXkXkXkXkXkX+ i 3Xq.kXkXkXkXkXkXt oXjXsX0XM.6.<.8.T.  kXkXkXkXkX",
"kXkXkXkXkXkXo pXjXdXk           d.oXjXjX^.A 1.3.4.5.7.kXkXkXkXkX",
"kXkXkXkXkX& J.v.gX).P.jXjXjXjXjXz.XXgXjX~.< P P P 2.;.kXkXkXkXkX",
"kXkXkXkXkXY.hX{.<X>XjXjXjXjXjXjXrXm.;XjX`.5 :.>.,.U ;.kXkXkXkXkX",
"kXkXkXkXkXe.5XjXjXjXjXjXjXjXjX7X7XjXjXjXjXZ.r T # I =.kXkXkXkXkX",
"kXkXkXkXkXj B.fXtXjXwX.XjXjXjXK.A.6XjXjXjXeXl.2 kX    kXkXkXkXkX",
"kXkXkXkXkXH.L.:X}.eXn.Z jXyXiXjXyX(.9XjXjXjXV.kXkXkXkXkXkXkXkXkX",
"kXkXkXkXkXH G.i.S.F.n #X,X*X8XjXjX%X|.jXjXjXV.kXkXkXkXkXkXkXkXkX",
"kXkXkXkXkXkX. = t.C u.!.+X1XjXjXjX%X|.jXjXjXV.kXkXkXkXkXkXkXkXkX",
"kXkXkXkXkXkXkXkXf F J =XjXjXjXjXjX%X|.jXjX2XK kXkXkXkXkXkXkXkXkX",
"kXkXkXkXkXkXkXkXkX9.r.S $X4XjXjXqXg.@XjXjXU.O kXkXkXkXkXkXkXkXkX",
"kXkXkXkXkXkXkXkXkXl N.0.B D q.q.q.f.{.OXOXN kXkXkXkXkXkXkXkXkXkX",
"kXkXkXkXkXkXkXkXkXkXz R.y.y.y.y.a.E.E.G M kXkXkXkXkXkXkXkXkXkXkX",
"kXkXkXkXkXkXkXkXkXkXkXh h h h h h h h kXkXkXkXkXkXkXkXkXkXkXkXkX",
"kXkXkXkXkXkXkXkXkXkXkX$ R X kXo L + kXkXkXkXkXkXkXkXkXkXkXkXkXkX",
"kXkXkXkXkXkXkXkXkXkXkX% -.o kXo Y o kXkXkXkXkXkXkXkXkXkXkXkXkXkX",
"kXkXkXkXkXkXkXkXkXkXkXkXe W kXkX1 E kXkXkXkXkXkXkXkXkXkXkXkXkXkX",
"kXkXkXkXkXkXkXkXkXkXkXkXkX% o kXkX@ o kXkXkXkXkXkXkXkXkXkXkXkXkX"
};
