/* XPM */
static char *result[] = {
/* columns rows colors chars-per-pixel */
"32 32 236 2 ",
"   c #211F2F",
".  c #221F2F",
"X  c #201F30",
"o  c #211F30",
"O  c #201F31",
"+  c #211F31",
"@  c #221E30",
"#  c #221F30",
"$  c #221F31",
"%  c #3A1F37",
"&  c #26212F",
"*  c #26222F",
"=  c #29242F",
"-  c #30272E",
";  c #322E2F",
":  c #222030",
">  c #272430",
",  c #2F2132",
"<  c #2F2735",
"1  c #312533",
"2  c #342534",
"3  c #382133",
"4  c #302C30",
"5  c #302D31",
"6  c #352936",
"7  c #312F37",
"8  c #3C3630",
"9  c #31313F",
"0  c #66381F",
"q  c #723D1C",
"w  c #4E3A29",
"e  c #593422",
"r  c #553F28",
"t  c #472335",
"y  c #4E2436",
"u  c #4C2C38",
"i  c #572A37",
"p  c #522638",
"a  c #47333B",
"s  c #7D283D",
"d  c #795222",
"f  c #7F5A22",
"g  c #303040",
"h  c #353546",
"j  c #373746",
"k  c #383646",
"l  c #393746",
"z  c #383948",
"x  c #38394A",
"c  c #3E3E4D",
"v  c #3F3F4F",
"b  c #413F4E",
"n  c #5F3E43",
"m  c #41404F",
"M  c #424452",
"N  c #434654",
"B  c #4A4C5B",
"V  c #4E515F",
"C  c #4F515F",
"Z  c #5C5A5B",
"A  c #525563",
"S  c #585C69",
"D  c #5B5E6C",
"F  c #5C5F6C",
"G  c #5C606E",
"H  c #606471",
"J  c #646875",
"K  c #676C78",
"L  c #676C79",
"P  c #6A6E7A",
"I  c #6D6E7B",
"U  c #756C79",
"Y  c #73737F",
"T  c #80283D",
"R  c #82293E",
"E  c #87293E",
"W  c #89293F",
"Q  c #81313D",
"!  c #A65010",
"~  c #A45716",
"^  c #986A1E",
"/  c #9D6C1D",
"(  c #BE620F",
")  c #B0771A",
"_  c #8C6220",
"`  c #C57311",
"'  c #872343",
"]  c #912A40",
"[  c #922A40",
"{  c #A7224C",
"}  c #AF244B",
"|  c #B52E45",
" . c #B82B4B",
".. c #C52D49",
"X. c #C72E49",
"o. c #CC3048",
"O. c #D13648",
"+. c #D33749",
"@. c #D43849",
"#. c #D33F48",
"$. c #8A4D4C",
"%. c #94484E",
"&. c #82495A",
"*. c #DC4149",
"=. c #DD4349",
"-. c #E1474A",
";. c #E44A4A",
":. c #E65652",
">. c #E45B57",
",. c #E85F57",
"<. c #EC7464",
"1. c #9A862F",
"2. c #A49332",
"3. c #B9A632",
"4. c #CD8916",
"5. c #CF9420",
"6. c #D6A927",
"7. c #E1CA33",
"8. c #E2CB37",
"9. c #E2CC39",
"0. c #BCAC44",
"q. c #BDAE4A",
"w. c #C5B442",
"e. c #EF816C",
"r. c #E5D046",
"t. c #DACD6D",
"y. c #747883",
"u. c #737985",
"i. c #767A85",
"p. c #757B86",
"a. c #757C87",
"s. c #7A7984",
"d. c #7B7A84",
"f. c #747889",
"g. c #787F8A",
"h. c #7A8191",
"j. c #7E8591",
"k. c #80828C",
"l. c #878690",
"z. c #898891",
"x. c #858D99",
"c. c #878F9A",
"v. c #8A8D9B",
"b. c #8A8E9C",
"n. c #8C8F9D",
"m. c #89929C",
"M. c #8A929D",
"N. c #8B929E",
"B. c #8E929F",
"V. c #93939B",
"C. c #90959E",
"Z. c #8C94A1",
"A. c #9098A3",
"S. c #939CA6",
"D. c #959CA9",
"F. c #989FA9",
"G. c #97A0AC",
"H. c #98A1AB",
"J. c #99A2AC",
"K. c #9FA7B0",
"L. c #A2A5B0",
"P. c #A2A7B0",
"I. c #A0AAB3",
"U. c #A1ABB4",
"Y. c #A1ACB5",
"T. c #AAACB7",
"R. c #A8AEB6",
"E. c #A4AFB8",
"W. c #A8B4BC",
"Q. c #AFB6BD",
"!. c #B3B2B8",
"~. c #B4B4B9",
"^. c #B7B6BC",
"/. c #B2B8BF",
"(. c #C9C390",
"). c #ACB8C0",
"_. c #AEBAC2",
"`. c #AFBBC3",
"'. c #B0BBC3",
"]. c #B3BEC6",
"[. c #B7BDC5",
"{. c #B9BEC4",
"}. c #B7C0C7",
"|. c #BDC1C7",
" X c #C1C0C5",
".X c #C4C4C8",
"XX c #C1C8CE",
"oX c #C3CCD2",
"OX c #C5CDD3",
"+X c #C9CBD1",
"@X c #CDCED2",
"#X c #CAD2D7",
"$X c #CBD2D7",
"%X c #CBD2D8",
"&X c #D0D3D8",
"*X c #D0D7DC",
"=X c #D1D8DD",
"-X c #D5D8DC",
";X c #D6D8DC",
":X c #D4DBDF",
">X c #DCDCDF",
",X c #D9DEE2",
"<X c #D9DFE3",
"1X c #DADEE2",
"2X c #DFE3E6",
"3X c #E0E2E5",
"4X c #E1E3E6",
"5X c #E0E4E8",
"6X c #E0E5E8",
"7X c #E4E5E8",
"8X c #E5E7E9",
"9X c #E4E7EA",
"0X c #E5E9EB",
"qX c #E7E9EC",
"wX c #E7EAED",
"eX c #E9EAEC",
"rX c #E8ECEE",
"tX c #ECEFF1",
"yX c #EEEFF1",
"uX c #EFEFF1",
"iX c #EDF0F2",
"pX c #EFF1F3",
"aX c #F3F2F3",
"sX c #F3F5F6",
"dX c #F4F4F5",
"fX c #F5F7F8",
"gX c #F8F8F9",
"hX c gray98",
"jX c #FBFBFB",
"kX c #FBFCFC",
"lX c gray99",
"zX c #FCFCFD",
"xX c #FCFDFD",
"cX c #FEFEFE",
"vX c white",
"bX c None",
/* pixels */
"bXbXbXbXbXbXbXbXbXbXbXbXbXbXbXbXbXbXbXbXbXbXbXbXbXbXbXbXbXbXbXbX",
"bXbXbXbXbXbXbXbXbXbXbXbXbXbXbXbXbXbXbXbX2 6 bXbXbXbXbXbXbXbXbXbX",
"bXbXbXbXbXbXbXbXbXbXbXbXbXbXbXbXbXbXbXp ,.e.n bXbXbXbXbXbXbXbXbX",
"bXbXbXbXbXbXbXbXbXbXbXbXbXbXbXbXa u t { -.;.<.o bXbXbXbXbXbXbXbX",
"bXbXbXbXbXbXbXbXbXbXbXbXbXbXbXbX$.:.@.} +.=.=.i bXbXbXbXbXbXbXbX",
"bXbXbXbXbXbXbXbXbXbXbXbXbXbXbXbXQ *.*.o.| ] ] #.o bXbXbXbXbXbXbX",
"bXbXbXbXbXbXbXbXbXbXbXbXbXbXbX% ' X.o.E &.d.d.R o bXbXbXbXbXbXbX",
"bXbXbXbXbXbXbXbXbXbXbXbXbXbX< %. ...T P ^.vXvXz.s.bXbXbXbXbXbXbX",
"bXbXbXbXbXbXbXbXbXbXbXbXbXbX1 >.O.W I 6XvXvXvXvX@Xx bXbXbXbXbXbX",
"bXbXbXbXbXbXbXbXbXbXbXbXbXbX, +.o.y W.uXL.L.L.jXT.Y bXbXbXbXbXbX",
"bXbXbXbXbXbXbXbXbXbXbXbXbXbXbXs [ U 2X7Xb.+Xf.gXn.V.bXbXbXbXbXbX",
"bXbXbXbXbXbXbXbXbXbXbXbXbXbXbXbX3 m.kXyXD.B.G.v.v b bXbXbXbXbXbX",
"bXbXbXbXbXbXbX      bXbXbXbXbXbX@ m.kXzXqX[.h.w.0.(.Z bXbXbXbXbX",
"bXbXbXbXbXbXbXl.>X>Xo bXbXbXbXbX+ m.kXvX0XZ.q.7.8.r.t.7 bXbXbXbX",
"bXbXbXbXbX  V H.8XvX.X          A Y.kXvX5XG ~ ( ( 5.9.5 bXbXbXbX",
"bXbXbXbXbXl hX=XtXvXA.$XgXgXgXgX|.E.kXvX5XS ) 4.4.` 6.4 bXbXbXbX",
"bXbXbXbXbXg OXcXvX].vXvXvXvXvXvXvXR.'.vXvX*Xc 4./ o 2.4 bXbXbXbX",
"bXbXbXbXbXbXF ,XvXvXvXvXvXvXvXlXdXlXvXvXvXvXoX! o bX  bXbXbXbXbX",
"bXbXbXbXbXk -X&XfXvXxXeXaXvXvX3XF.;XcXvXvXvXvXo bXbXbXbXbXbXbXbX",
"bXbXbXbXbX9 Q.iX}.cX1Xi. XvXpXvXvX{.4XvXvXvXvXo bXbXbXbXbXbXbXbX",
"bXbXbXbXbXbXB c.x.wXg.k.9XrX#XvXvXvXN.vXvXvXvXo bXbXbXbXbXbXbXbX",
"bXbXbXbXbXbXbX. S _.z K.XX%XvXvXvXvXN.vXvXvXvXo bXbXbXbXbXbXbXbX",
"bXbXbXbXbXbXbXbXbXp.H P.sXvXvXvXvXvXN.vXvXvX~.: bXbXbXbXbXbXbXbX",
"bXbXbXbXbXbXbXbXbXo I.L /.<XvXvXvX!.J.vXvXrXm bXbXbXbXbXbXbXbXbX",
"bXbXbXbXbXbXbXbXbXbXu.S.K J z.z.z.y.).:X:XC.h bXbXbXbXbXbXbXbXbX",
"bXbXbXbXbXbXbXbXbXbXj j.M.a.a.a.a.I.`.U.D N bXbXbXbXbXbXbXbXbXbX",
"bXbXbXbXbXbXbXbXbXbXbXM A A A A A A A C bXbXbXbXbXbXbXbXbXbXbXbX",
"bXbXbXbXbXbXbXbXbXbXbXbXO _ o bXX q & bXbXbXbXbXbXbXbXbXbXbXbXbX",
"bXbXbXbXbXbXbXbXbXbXbXbXf r bXbX0 e bXbXbXbXbXbXbXbXbXbXbXbXbXbX",
"bXbXbXbXbXbXbXbXbXbXbXbX1.8 bXbXd w bXbXbXbXbXbXbXbXbXbXbXbXbXbX",
"bXbXbXbXbXbXbXbXbXbXbXbX; 3.# bX- ^ = bXbXbXbXbXbXbXbXbXbXbXbXbX",
"bXbXbXbXbXbXbXbXbXbXbXbXbX> o # bX* o $ bXbXbXbXbXbXbXbXbXbXbXbX"
};
