/* XPM */
static char *result[] = {
/* columns rows colors chars-per-pixel */
"32 32 219 2 ",
"   c #201E2F",
".  c #211F2F",
"X  c #211F30",
"o  c #211F31",
"O  c #26222F",
"+  c #31282F",
"@  c #212030",
"#  c #222031",
"$  c #232132",
"%  c #232233",
"&  c #242333",
"*  c #252333",
"=  c #262430",
"-  c #282532",
";  c #282635",
":  c #282636",
">  c #282637",
",  c #372133",
"<  c #3C2534",
"1  c #3D2436",
"2  c #332F30",
"3  c #3E2E39",
"4  c #353238",
"5  c #5E1D3E",
"6  c #45362B",
"7  c #563223",
"8  c #452537",
"9  c #482335",
"0  c #512437",
"q  c #5C2538",
"w  c #5D2538",
"e  c #632D39",
"r  c #612E38",
"t  c #642E39",
"y  c #722B3B",
"u  c #313040",
"i  c #323141",
"p  c #363443",
"a  c #363647",
"s  c #383948",
"d  c #3B3B4A",
"f  c #583E4F",
"g  c #404150",
"h  c #424150",
"j  c #414251",
"k  c #444451",
"l  c #454452",
"z  c #494B59",
"x  c #4A4C5B",
"c  c #4C4E5D",
"v  c #52515E",
"b  c #59575B",
"n  c #505260",
"m  c #525563",
"M  c #575967",
"N  c #5F6370",
"B  c #7B6761",
"V  c #7A7A6C",
"C  c #646975",
"Z  c #686B77",
"A  c #6D6C77",
"S  c #616678",
"D  c #666A78",
"F  c #656A7C",
"G  c #676C7E",
"H  c #686D7A",
"J  c #6A6F7B",
"K  c #6E6C78",
"L  c #6A6F7C",
"P  c #6A707C",
"I  c #6B707C",
"U  c #6C727E",
"Y  c #76747F",
"T  c #80263F",
"R  c #81293D",
"E  c #832B3E",
"W  c #8B2E3F",
"Q  c #95383F",
"!  c #844318",
"~  c #BA570B",
"^  c #95681F",
"/  c #BE620D",
"(  c #A46C1B",
")  c #AA6F19",
"_  c #A3701D",
"`  c #A9741C",
"'  c #BC7F19",
"]  c #8D7F31",
"[  c #9B2A45",
"{  c #A3234B",
"}  c #B43344",
"|  c #C72F47",
" . c #C32C49",
".. c #C52D49",
"X. c #C53648",
"o. c #CA3048",
"O. c #CC3048",
"+. c #CD3148",
"@. c #D33749",
"#. c #D43B49",
"$. c #8D4D4C",
"%. c #895551",
"&. c #905853",
"*. c #965D55",
"=. c #BF504E",
"-. c #DC424A",
";. c #D94C54",
":. c #D25056",
">. c #DB5559",
",. c #E44A4A",
"<. c #D8655F",
"1. c #B6A432",
"2. c #B9A632",
"3. c #BAA732",
"4. c #CE8B16",
"5. c #D8B02A",
"6. c #DBB82D",
"7. c #E1CA33",
"8. c #C9BE6D",
"9. c #F0E26F",
"0. c #767984",
"q. c #757B88",
"w. c #7A7D88",
"e. c #787C8C",
"r. c #7A818D",
"t. c #7F8695",
"y. c #83858F",
"u. c #818894",
"i. c #898C96",
"p. c #878F9A",
"a. c #9C8D96",
"s. c #88909A",
"d. c #8A929C",
"f. c #939CA6",
"g. c #97A1AB",
"h. c #9AA0A8",
"j. c #9BA4AE",
"k. c #9EA4AD",
"l. c #A8A7AE",
"z. c #A0A6B0",
"x. c #A1A9B2",
"c. c #A0AAB3",
"v. c #ACAEB9",
"b. c #A5B0B9",
"n. c #A9B2BB",
"m. c #ABB2BA",
"M. c #ACB1B8",
"N. c #ADB2BA",
"B. c #ADB3BA",
"V. c #AAB5BD",
"C. c #AEB6BD",
"Z. c #ACB7BF",
"A. c #B6B6BB",
"S. c #B0B5BD",
"D. c #F8F3BE",
"F. c #AFBBC3",
"G. c #B1BBC3",
"H. c #B4BBC2",
"J. c #B0BCC4",
"K. c #BABCC5",
"L. c #BFC0C5",
"P. c #BCC0C7",
"I. c #BCC1C7",
"U. c #BCC3C9",
"Y. c #BFC3CA",
"T. c #BBC6CC",
"R. c #C1C0C5",
"E. c #C2CBD1",
"W. c #C3CCD2",
"Q. c #C6CCD2",
"!. c #C9CED2",
"~. c #CECED2",
"^. c #CAD0D5",
"/. c #C9D1D7",
"(. c #CAD2D8",
"). c #CFD4D8",
"_. c #CED4D9",
"`. c #CFD6DB",
"'. c #CFD7DB",
"]. c #D4D3D7",
"[. c #D1D6DA",
"{. c #D5D7DA",
"}. c #D0D7DC",
"|. c #D5DBDF",
" X c #D6DCE0",
".X c #D8DEE2",
"XX c #D9DEE2",
"oX c #DBDFE3",
"OX c #DDDFE3",
"+X c #DCE1E5",
"@X c #DFE1E4",
"#X c #DEE3E7",
"$X c #E0E2E5",
"%X c #E2E4E7",
"&X c #E4E4E6",
"*X c #E4E5E8",
"=X c #E4E6E8",
"-X c #E7EBED",
";X c #E8ECEE",
":X c #EBECEE",
">X c #ECECEE",
",X c #EFEFF0",
"<X c #EEF0F2",
"1X c #F2F2F3",
"2X c #F2F4F6",
"3X c #F3F5F6",
"4X c #F5F5F6",
"5X c #F5F7F8",
"6X c #F7F9F9",
"7X c #F9F9F9",
"8X c #F8F9FA",
"9X c #F9FAFB",
"0X c #FAFBFB",
"qX c #FDFDFD",
"wX c #FDFDFE",
"eX c #FEFEFE",
"rX c #FEFEFF",
"tX c white",
"yX c None",
/* pixels */
"yXyXyXyXyXyXyXyXyXyXyXyXyXyXyXyXyXyXyXyXyXyXyXyXyXyXyXyXyXyXyXyX",
"yXyXyXyXyXyXyXyXyXyXyXyXyXyXyXyXyXyXyXyXyXyXyXyXyXyXyXyXyXyXyXyX",
"yXyXyXyXyXyXyXyXyXyXyXyXyXyXyXyXyXyXyXyXyXyXyXyXyXyXyXyXyXyXyXyX",
"yXyXyXyXyXyXyXyXyXyXyXyXyXyXyXyXyXyXyXyXyXyXyXyXyXyXyXyXyXyXyXyX",
"yXyXyXyXyXyXyXyXyXyXyXyXyXyXyXyXyXyXyXyXyXyXyXyXyXyXyXyXyXyXyXyX",
"yXyXyXyXyXyXyXyXyXyXyXyXyXyXyXyXyXyXyXyXyXyXyXyXyXyXyXyXyXyXyXyX",
"yXyXyXyXyXyXyXyXyXyXyXyXyXyXyXyXyXyXyXyXyXyXyXyXyXyXyXyXyXyXyXyX",
"yXyXyXyXyXyXyXyXyXyXyXyXyXyXyXyXyXyXyXyXyXyXyXyXyXyXyXyXyXyXyXyX",
"yXyXyXyXyXyXyXyXyXyXyXyXyXyXyXyX    r $.&.%.  yXyXyXyXyXyXyXyXyX",
"yXyXyXyXyXyXyXyXyXyXyXyXyXyXyXyXQ T [ ;.>.:.W t yXyXyXyXyXyXyXyX",
"yXyXyXyXyXyXyXyXyXyXyXyXyXyXyX*.,.#. .R q q E y yXyXyXyXyXyXyXyX",
"yXyXyXyXyXyXyXyXyXyXyXyXyXyXo =.@.} 0 a.R.R.a., yXyXyXyXyXyXyXyX",
"yXyXyXyXyXyXyXyXyXyXyXyXyXyX5 { o.f M.,XtXtX,X~.v yXyXyXyXyXyXyX",
"yXyXyXyXyXyXyXyXyXyXyXyXyXe X...1 C.8XtXtXtXtXtX&X% yXyXyXyXyXyX",
"yXyXyXyXyXyXyXyXyXyXyXyX3 <.+.O.$ E.tXtXtXtXtXtXtX& yXyXyXyXyXyX",
"yXyXyXyXyX. . X yXyXyXyX< -.O.9 Z.wXK.G G e.tXv.G # yXyXyXyXyXyX",
"yXyXyXyXyXl.eX4X: yXyXyXyXw | 8 J.tX+Xt.F b.D k - ; yXyXyXyXyXyX",
"yXyXyX* Z j.:XrXL.i p p p p p q.J.tXtX0XG.V 7.7.9.D.4 yXyXyXyXyX",
"yXyXyXl 6X X3X<Xx.+XtXtXtXtXtXN.V.5XtX/.S 6.6.6.6.7.8.X yXyXyXyX",
"yXyXyXs H.8XtXW.tXtXtXtXtXtXtXtXz.`.tX/.u / / / / 5.3.yXyXyXyXyX",
"yXyXyXyXw.oXtXtX9X{.>XtXtXtXtX*XOXtXtX.XM _ 4.4.` ~ 3.yXyXyXyXyX",
"yXyXyXh ).$X;XeX!.0.].tX-XtXtXY.S.@XtXtX}.b ( ) 6 ! ] yXyXyXyXyX",
"yXyXyXa k.#Xn.7XJ i.XX#X XtXtXtXeXP.=XtXtXQ.B 7 yXX yXyXyXyXyXyX",
"yXyXyXyXx U u.[.j m._.|.tXtXtXtXtX%XI.tXtXtXA.yXyXyXyXyXyXyXyXyX",
"yXyXyXyXyXyXc C L h.2XtXtXtXtXtXtX%XI.tXtX1XY yXyXyXyXyXyXyXyXyX",
"yXyXyXyXyXyXyX> c.H B.'.tXtXtXtXqXy.^.tXtXU.X yXyXyXyXyXyXyXyXyX",
"yXyXyXyXyXyXyXyXI g.N m A A A A K d.T.(.(.n yXyXyXyXyXyXyXyXyXyX",
"yXyXyXyXyXyXyXyXyXr.f.p.p.p.p.p.s.F.F.P z yXyXyXyXyXyXyXyXyXyXyX",
"yXyXyXyXyXyXyXyXyXd g g g g g g g g g yXyXyXyXyXyXyXyXyXyXyXyXyX",
"yXyXyXyXyXyXyXyXyXyXX 1.X yXX ^ X yXyXyXyXyXyXyXyXyXyXyXyXyXyXyX",
"yXyXyXyXyXyXyXyXyXyXyX2 2.X yX+ ' @ yXyXyXyXyXyXyXyXyXyXyXyXyXyX",
"yXyXyXyXyXyXyXyXyXyXyXyX= X yXyXO X   yXyXyXyXyXyXyXyXyXyXyXyXyX"
};
