/* XPM */
static char *result[] = {
/* columns rows colors chars-per-pixel */
"32 32 236 2 ",
"   c #201E2F",
".  c #211F2F",
"X  c #211F30",
"o  c #211E31",
"O  c #211F31",
"+  c #221E30",
"@  c #221F30",
"#  c #2C1F34",
"$  c #24212F",
"%  c #26222F",
"&  c #28252F",
"*  c #30252C",
"=  c #3F2A28",
"-  c #392E2C",
";  c #272031",
":  c #242230",
">  c #272232",
",  c #282232",
"<  c #2A2730",
"1  c #3E2434",
"2  c #332936",
"3  c #67391F",
"4  c #4A1E3A",
"5  c #40332B",
"6  c #42342B",
"7  c #45352B",
"8  c #49372A",
"9  c #533124",
"0  c #462335",
"q  c #412E39",
"w  c #5A2538",
"e  c #5C2438",
"r  c #5F2B38",
"t  c #4E3932",
"y  c #5C5431",
"u  c #614726",
"i  c #725224",
"p  c #716631",
"a  c #786C31",
"s  c #7F7331",
"d  c #313040",
"f  c #353343",
"g  c #353545",
"h  c #731E42",
"j  c #693245",
"k  c #733F51",
"l  c #474552",
"z  c #4A4C5B",
"x  c #4D4E5D",
"c  c #684446",
"v  c #6D4859",
"b  c #7E4E5E",
"n  c #525563",
"m  c #545765",
"M  c #555765",
"N  c #545666",
"B  c #565966",
"V  c #5A5865",
"C  c #575868",
"Z  c #585C69",
"A  c #5A5E6B",
"S  c #5B5F6B",
"D  c #676672",
"F  c #646875",
"G  c #656A76",
"H  c #6D6C77",
"J  c #6C717D",
"K  c #6C717E",
"L  c #72717B",
"P  c #75747F",
"I  c #8C4616",
"U  c #B37518",
"Y  c #896020",
"T  c #8E6320",
"R  c #C06911",
"E  c #C47416",
"W  c #912A40",
"Q  c #9C2B41",
"!  c #9C3841",
"~  c #AA2D43",
"^  c #B32E44",
"/  c #B42E45",
"(  c #B4254B",
")  c #B9294A",
"_  c #BE2A49",
"`  c #A13442",
"'  c #BA3645",
"]  c #B4304C",
"[  c #C12F46",
"{  c #C42F47",
"}  c #C42D49",
"|  c #CC3048",
" . c #CD3148",
".. c #D33849",
"X. c #D23D4A",
"o. c #925551",
"O. c #BF4145",
"+. c #AF5651",
"@. c #DA414B",
"#. c #DD4349",
"$. c #DF444A",
"%. c #E44A4A",
"&. c #E75752",
"*. c #C46F61",
"=. c #ED7665",
"-. c #AC952F",
";. c #B1A139",
":. c #CB8214",
">. c #CC8615",
",. c #CE8B16",
"<. c #C9841B",
"1. c #D2BE3B",
"2. c #D9C53C",
"3. c #E1CA33",
"4. c #9A9363",
"5. c #97946E",
"6. c #868779",
"7. c #B38E71",
"8. c #B9B06A",
"9. c #F0856E",
"0. c #E5D144",
"q. c #E3D258",
"w. c #717682",
"e. c #717783",
"r. c #727783",
"t. c #767883",
"y. c #757C87",
"u. c #797882",
"i. c #7B7A84",
"p. c #777E8A",
"a. c #787E8A",
"s. c #7D8590",
"d. c #85858E",
"f. c #808793",
"g. c #828695",
"h. c #808893",
"j. c #838B96",
"k. c #848B96",
"l. c #848C97",
"z. c #898891",
"x. c #878F99",
"c. c #878F9A",
"v. c #8B939F",
"b. c #8C939D",
"n. c #B0AE98",
"m. c #919BA7",
"M. c #9699A6",
"N. c #9A9AA1",
"B. c #989BA3",
"V. c #979CA8",
"C. c #969DA9",
"Z. c #989BA8",
"A. c #97A1AB",
"S. c #9BA1AA",
"D. c #9CA3AD",
"F. c #9CA6B0",
"G. c #A0A6B0",
"H. c #A0A8B0",
"J. c #A3A9B2",
"K. c #A5AAB2",
"L. c #A4AAB3",
"P. c #A2ADB6",
"I. c #A9ACB6",
"U. c #ACAEB8",
"Y. c #A5B0B9",
"T. c #A6B1B9",
"R. c #AAB2BB",
"E. c #AEB2B9",
"W. c #ACB2BA",
"Q. c #ADB3BB",
"!. c #B0B6BD",
"~. c #ACB8C0",
"^. c #ADB9C1",
"/. c #AFBBC3",
"(. c #B4B7C0",
"). c #B7BCC3",
"_. c #BBBCC1",
"`. c #BFBEC3",
"'. c #B8BDC4",
"]. c #BDBFC7",
"[. c #BFC1C9",
"{. c #BCC5CC",
"}. c #BFC9CF",
"|. c #C3C3C7",
" X c #C7C9D0",
".X c #C5CDD3",
"XX c #C9CFD5",
"oX c #CCCFD4",
"OX c #CBD2D8",
"+X c #CCD3D9",
"@X c #D1D3D8",
"#X c #D2D3D9",
"$X c #D3D6DA",
"%X c #D3D9DD",
"&X c #D4D8DC",
"*X c #D4DBDF",
"=X c #DCDCDF",
"-X c #D8DDE1",
";X c #D9DFE3",
":X c #DEDEE0",
">X c #DDE0E3",
",X c #DDE2E6",
"<X c #DEE3E6",
"1X c #E0E5E8",
"2X c #E1E5E8",
"3X c #E4E8EB",
"4X c #EAEAEB",
"5X c #E8ECEE",
"6X c #E9ECEE",
"7X c #ECEFF0",
"8X c #EEEEF0",
"9X c #EEEFF1",
"0X c #EDF0F1",
"qX c #EDF0F2",
"wX c #EEF0F2",
"eX c #F0F0F1",
"rX c #F2F2F3",
"tX c #F1F3F5",
"yX c #F2F2F4",
"uX c #F3F4F5",
"iX c #F4F4F6",
"pX c #F4F5F6",
"aX c #F4F6F7",
"sX c #F5F6F7",
"dX c #F6F8F9",
"fX c #F7F8F9",
"gX c #F7F9F9",
"hX c #F8F8F9",
"jX c #F9FAFA",
"kX c #FAFBFB",
"lX c #FBFCFC",
"zX c #FCFDFD",
"xX c #FDFDFD",
"cX c #FEFFFF",
"vX c white",
"bX c None",
/* pixels */
"bXbXbXbXbXbXbXbXbXbXbXbXbXbXbXbXbXbXbX; , > bXbXbXbXbXbXbXbXbXbX",
"bXbXbXbXbXbXbXbXbXbXbXbXbXbXbXbXbXbX# O.9.*.2 bXbXbXbXbXbXbXbXbX",
"bXbXbXbXbXbXbXbXbXbXbXbXbXbXbXbXq 1 h X.%.&.o.bXbXbXbXbXbXbXbXbX",
"bXbXbXbXbXbXbXbXbXbXbXbXbXbXbXX =.#.) } $.$.! bXbXbXbXbXbXbXbXbX",
"bXbXbXbXbXbXbXbXbXbXbXbXbXbXbXX #.#...| Q Q ' r bXbXbXbXbXbXbXbX",
"bXbXbXbXbXbXbXbXbXbXbXbXbXbXbX4 _ | ~ W H H b 0 bXbXbXbXbXbXbXbX",
"bXbXbXbXbXbXbXbXbXbXbXbXbXbXc ] ( ^ v P vXvX|.i.bXbXbXbXbXbXbXbX",
"bXbXbXbXbXbXbXbXbXbXbXbXbXbX+.@.[ k K.dXvXvXvXvXN bXbXbXbXbXbXbX",
"bXbXbXbXbXbXbXbXbXbXbXbXbXbX`  ./ m ,X].U.U.@X X(.X bXbXbXbXbXbX",
"bXbXbXbXbXbXbXbXbXbXbXbXbXbXe { j S.tXg.[.I.I.M.8XX bXbXbXbXbXbX",
"bXbXbXbXbXbXbXbXbXbXbXbXbXbXbXw g +XvXR.Z.V.C.C D X bXbXbXbXbXbX",
"bXbXbXbXbXbXbXbXbXbXbXbXbXbXbXbXg +XvXqX#Xm.5.;.8.n.bXbXbXbXbXbX",
"bXbXbXbXbXbX@ . . bXbXbXbXbXbXbXg +XvXvX}.6.1.3.0.q.4.bXbXbXbXbX",
"bXbXbXbXbXbXX =X=XL bXbXbXbXbXbXg +XvXvX^.t R R R E 2.p bXbXbXbX",
"bXbXbXbXbX. F.J.vXrXl . . . . . j.+XvXvX^.8 >.>.>.:.<.a bXbXbXbX",
"bXbXbXbXO `.zX{.vX).Y.hXhXhXhXhXv.+XvXvXlXb.i ,.- % % bXbXbXbXbX",
"bXbXbXbXbXx.jXvX2X2XvXvXvXvXvXvX9XA.<XvXvX0X7.9 bXbXbXbXbXbXbXbX",
"bXbXbXbXbXf T.vXvXvXvXvXvXvXvXpXsXvXvXvXvXvXN.bXbXbXbXbXbXbXbXbX",
"bXbXbXbXO _.D.xXgXvXsX:XvXvXvXG.L.uXvXvXvXvXN.bXbXbXbXbXbXbXbXbX",
"bXbXbXbXbXp.6X2XXXaXH.V vXfXkXvXyX'.iXvXvXvXN.bXbXbXbXbXbXbXbXbX",
"bXbXbXbXbX  k.c.W.Q.z >X5X-XwXvXvX$XoXvXvXvXN.bXbXbXbXbXbXbXbXbX",
"bXbXbXbXbXbX+ d h.Z f.!.OX3XvXvXvX$XoXvXvXvXN.bXbXbXbXbXbXbXbXbX",
"bXbXbXbXbXbXbXbXx G e.1XvXvXvXvXvX$XoXvXvX4Xu.bXbXbXbXbXbXbXbXbX",
"bXbXbXbXbXbXbXbXbXa.w.r.;X7XvXvXeXB.&XvXcXE.X bXbXbXbXbXbXbXbXbX",
"bXbXbXbXbXbXbXbXbXM P.K F t.z.z.d.l..X*X%XS bXbXbXbXbXbXbXbXbXbX",
"bXbXbXbXbXbXbXbXbXbXB ~.y.y.y.y.s././.J A bXbXbXbXbXbXbXbXbXbXbX",
"bXbXbXbXbXbXbXbXbXbXbXn n n n n n n n bXbXbXbXbXbXbXbXbXbXbXbXbX",
"bXbXbXbXbXbXbXbXbXbXbXbX6 u bXbX* 3 X bXbXbXbXbXbXbXbXbXbXbXbXbX",
"bXbXbXbXbXbXbXbXbXbXbX& T 5 bXo I = bXbXbXbXbXbXbXbXbXbXbXbXbXbX",
"bXbXbXbXbXbXbXbXbXbXbX< -.O bXX U X bXbXbXbXbXbXbXbXbXbXbXbXbXbX",
"bXbXbXbXbXbXbXbXbXbXbXbXy s bXbX7 Y bXbXbXbXbXbXbXbXbXbXbXbXbXbX",
"bXbXbXbXbXbXbXbXbXbXbXbXbX: X bXbX$ X bXbXbXbXbXbXbXbXbXbXbXbXbX"
};
