/* XPM */
static char *result[] = {
/* columns rows colors chars-per-pixel */
"32 32 237 2 ",
"   c #211F2F",
".  c #221F2F",
"X  c #201F30",
"o  c #211F30",
"O  c #211E31",
"+  c #261F31",
"@  c #341D34",
"#  c #28222E",
"$  c #3E2A29",
"%  c #3E312C",
"&  c #222030",
"*  c #232030",
"=  c #232132",
"-  c #272430",
";  c #2A2131",
":  c #332433",
">  c #332736",
",  c #352936",
"<  c #743D1C",
"1  c #681F3F",
"2  c #492D26",
"3  c #4F3025",
"4  c #44332A",
"5  c #553F28",
"6  c #472335",
"7  c #472635",
"8  c #482535",
"9  c #5B2538",
"0  c #4B313B",
"q  c #4D313B",
"w  c #57383F",
"e  c #7B313C",
"r  c #5D4427",
"t  c #5F542F",
"y  c #4D4631",
"u  c #654926",
"i  c #6D4E25",
"p  c #754522",
"a  c #735224",
"s  c #7A5622",
"d  c #77682F",
"f  c #6A6031",
"g  c #6B6131",
"h  c #6C6231",
"j  c #6D6334",
"k  c #313040",
"l  c #353545",
"z  c #393646",
"x  c #383849",
"c  c #404153",
"v  c #454452",
"b  c #464756",
"n  c #504F5C",
"m  c #4D505E",
"M  c #4F505E",
"N  c #53515F",
"B  c #6A4E5D",
"V  c #6F6A51",
"C  c #555360",
"Z  c #525563",
"A  c #535564",
"S  c #5C5B67",
"D  c #5B5E6C",
"F  c #6E5766",
"G  c #675F6D",
"H  c #5D616E",
"J  c #5E626F",
"K  c #606471",
"L  c #626775",
"P  c #646875",
"I  c #646975",
"U  c #656976",
"Y  c #696E7A",
"T  c #6A6F7B",
"R  c #84293E",
"E  c #BE620F",
"W  c #A16E1E",
"Q  c #835920",
"!  c #887B32",
"~  c #C47415",
"^  c #901C4A",
"/  c #862F44",
"(  c #902A40",
")  c #912A40",
"_  c #992B41",
"`  c #843F51",
"'  c #A62C43",
"]  c #AF244B",
"[  c #B52E45",
"{  c #BD2A4A",
"}  c #BB2F4B",
"|  c #C12B49",
" . c #C73047",
".. c #C83B47",
"X. c #CC3048",
"o. c #CD3148",
"O. c #CE3248",
"+. c #D33A48",
"@. c #D53A49",
"#. c #D93E49",
"$. c #82514F",
"%. c #965752",
"&. c #AF6F40",
"*. c #DC4149",
"=. c #DD4349",
"-. c #DF454A",
";. c #E44A4A",
":. c #E54E4D",
">. c #E7675C",
",. c #E9645A",
"<. c #E9655B",
"1. c #B8A533",
"2. c #CA8114",
"3. c #C98817",
"4. c #CD8916",
"5. c #CA861B",
"6. c #DCC636",
"7. c #E1CA33",
"8. c #E2CB36",
"9. c #AFA556",
"0. c #9F9861",
"q. c #EF816C",
"w. c #DFCF5E",
"e. c #E5D042",
"r. c #C9C17F",
"t. c #696E80",
"y. c #6A6F81",
"u. c #757C87",
"i. c #7B7A84",
"p. c #7A7C87",
"a. c #7E7D87",
"s. c #7D7F89",
"d. c #7C838E",
"f. c #80818A",
"g. c #928F82",
"h. c #818792",
"j. c #858D97",
"k. c #898891",
"l. c #8A8992",
"z. c #868E99",
"x. c #878F99",
"c. c #878F9A",
"v. c #89919B",
"b. c #88909E",
"n. c #8E929F",
"m. c #92919A",
"M. c #90969F",
"N. c #8E96A0",
"B. c #9196A3",
"V. c #9497A4",
"C. c #9299A3",
"Z. c #919AA5",
"A. c #949BA7",
"S. c #969DA7",
"D. c #989EA7",
"F. c #969FA9",
"G. c #969FAA",
"H. c #989FA9",
"J. c #97A1AA",
"K. c #97A0AB",
"L. c #98A2AD",
"P. c #9CA6AF",
"I. c #9FAAB3",
"U. c #A4A5AF",
"Y. c #A8A8AE",
"T. c #A2A5B0",
"R. c #A6A9B4",
"E. c #A3ADB6",
"W. c #A3AEB6",
"Q. c #A5ACB5",
"!. c #A5ADB7",
"~. c #A8B3BB",
"^. c #B1B6BE",
"/. c #AFBBC3",
"(. c #B3B9C0",
"). c #B3BDC5",
"_. c #B8BEC5",
"`. c #BBC0C7",
"'. c #BEC3C9",
"]. c #BFC4CA",
"[. c #BDC5CC",
"{. c #C9CBD1",
"}. c #C8CDD2",
"|. c #CACED4",
" X c #CCCFD4",
".X c #CAD0D5",
"XX c #CDD0D5",
"oX c #CBD2D8",
"OX c #CBD3D8",
"+X c #CDD3D8",
"@X c #CED5DA",
"#X c #CFD6DB",
"$X c #D0D0D4",
"%X c #D3D3D6",
"&X c #D5D7DC",
"*X c #D7D9DD",
"=X c #D4DBDF",
"-X c #D5DBDF",
";X c #D9D9DB",
":X c #DCDCDF",
">X c #D9DFE3",
",X c #DADFE3",
"<X c #E1E2E5",
"1X c #E1E3E6",
"2X c #E2E5E8",
"3X c #E2E7E9",
"4X c #E6E7EA",
"5X c #E8E7E9",
"6X c #E8EBEE",
"7X c #E8ECEE",
"8X c #E9ECEF",
"9X c #ECECEE",
"0X c #ECEFF1",
"qX c #EEEFF1",
"wX c #EDF0F1",
"eX c #EFF2F3",
"rX c #F0F2F3",
"tX c #F1F2F3",
"yX c #F2F4F5",
"uX c #F3F5F6",
"iX c #F4F4F4",
"pX c #F4F4F5",
"aX c #F4F5F7",
"sX c #F4F6F7",
"dX c #F6F8F8",
"fX c #F7F8F9",
"gX c #F8F8F9",
"hX c #F8F9F9",
"jX c #F9FAFA",
"kX c #F9FAFB",
"lX c #FAFBFB",
"zX c #FBFBFC",
"xX c #FBFCFC",
"cX c #FDFDFD",
"vX c #FEFEFE",
"bX c white",
"nX c None",
/* pixels */
"nXnXnXnXnXnXnXnXnXnXnXnXnXnXnXnXnXnXnXnXnXnXnXnXnXnXnXnXnXnXnXnX",
"nXnXnXnXnXnXnXnXnXnXnXnXnXnXnXnXnXnXnX: , > nXnXnXnXnXnXnXnXnXnX",
"nXnXnXnXnXnXnXnXnXnXnXnXnXnXnXnXnXnX@ :.q.%.nXnXnXnXnXnXnXnXnXnX",
"nXnXnXnXnXnXnXnXnXnXnXnXnXnXnXnXq 8 ^ -.;.,.w nXnXnXnXnXnXnXnXnX",
"nXnXnXnXnXnXnXnXnXnXnXnXnXnXnX0 <.#.] o.=.=.e nXnXnXnXnXnXnXnXnX",
"nXnXnXnXnXnXnXnXnXnXnXnXnXnXnX7 *.*.O. .) ) ..; nXnXnXnXnXnXnXnX",
"nXnXnXnXnXnXnXnXnXnXnXnXnXnXnX1 | X.( / i.i.` + nXnXnXnXnXnXnXnX",
"nXnXnXnXnXnXnXnXnXnXnXnXnXnX$.} { _ G m.bXbXY.k.nXnXnXnXnXnXnXnX",
"nXnXnXnXnXnXnXnXnXnXnXnXnXo >.@.' F .XbXbXbXbXbXc nXnXnXnXnXnXnX",
"nXnXnXnXnXnXnXnXnXnXnXnXnXo +.X.R d.aXT.T.T.4XR.U.o nXnXnXnXnXnX",
"nXnXnXnXnXnXnXnXnXnXnXnXnXnX9 [ B ].xXy.{.V.&Xt.;Xo nXnXnXnXnXnX",
"nXnXnXnXnXnXnXnXnXnXnXnXnXnXnX6 H 3XbXL.n.A.B.x C o nXnXnXnXnXnX",
"nXnXnXnXnXnXnXnX  nXnXnXnXnXnXnXH 3XbX0X|.b.9.1.r.g.nXnXnXnXnXnX",
"nXnXnXnXnXnX  a.:Xz nXnXnXnXnXnXH 3XbXlX!.0.6.7.e.w.V nXnXnXnXnX",
"nXnXnXnXnXnXn iXbX9X          l Z.3XbXjXx.p E E ~ 8.j nXnXnXnXnX",
"nXnXnXnXX = E.'.bXS.).gXgXgXgX<XK.3XbXjXj.s 4.4.2.5.h nXnXnXnXnX",
"nXnXnXnXo cXwX-XOXfXbXbXbXbXbXbXXXE.sXbX6XY W 3.o f g nXnXnXnXnX",
"nXnXnXnXO W.kXbXbXbXbXbXbXbXbXpXhXbXbXbXbX,X&.# nX  nXnXnXnXnXnX",
"nXnXnXnXnXv [.kXxXbXrX5XbXbXbXH.`.hXbXbXbXbXS nXnXnXnXnXnXnXnXnX",
"nXnXnXnXo 0XQ.+X2XeXv.l.bXyXbXbX*X XzXbXbXbXS nXnXnXnXnXnXnXnXnX",
"nXnXnXnX  c.c.z.}.C.M 1X7X@XvXbXbX^.qXbXbXbXS nXnXnXnXnXnXnXnXnX",
"nXnXnXnXnX. . b F.k G._.oXuXbXbXbX^.qXbXbXbXS nXnXnXnXnXnXnXnXnX",
"nXnXnXnXnXnXnXnXL J h.8XbXbXbXbXbX^.qXbXbX$XN nXnXnXnXnXnXnXnXnX",
"nXnXnXnXnXnXnXnXo I.U M.>XdXbXbX%XD.tXbXsXp.nXnXnXnXnXnXnXnXnXnX",
"nXnXnXnXnXnXnXnXnXK ~.T P f.k.k.s.J.#X=X(.m nXnXnXnXnXnXnXnXnXnX",
"nXnXnXnXnXnXnXnXnXnXI P.u.u.u.u.N././.D A nXnXnXnXnXnXnXnXnXnXnX",
"nXnXnXnXnXnXnXnXnXnXnXZ Z Z Z Z Z Z Z nXnXnXnXnXnXnXnXnXnXnXnXnX",
"nXnXnXnXnXnXnXnXnXnXnXo u % nXnX3 2 nXnXnXnXnXnXnXnXnXnXnXnXnXnX",
"nXnXnXnXnXnXnXnXnXnXnX5 a nXnX$ < nXnXnXnXnXnXnXnXnXnXnXnXnXnXnX",
"nXnXnXnXnXnXnXnXnXnXnXt d nXnX4 Q nXnXnXnXnXnXnXnXnXnXnXnXnXnXnX",
"nXnXnXnXnXnXnXnXnXnXnXnX! y nXnXi r nXnXnXnXnXnXnXnXnXnXnXnXnXnX",
"nXnXnXnXnXnXnXnXnXnXnXnX- &   nXnX* o nXnXnXnXnXnXnXnXnXnXnXnXnX"
};
