/* XPM */
static char *result[] = {
/* columns rows colors chars-per-pixel */
"32 32 239 2 ",
"   c #211F2F",
".  c #221F2F",
"X  c #211E30",
"o  c #201F30",
"O  c #211F30",
"+  c #201F31",
"@  c #221F30",
"#  c #241F30",
"$  c #381E34",
"%  c #26222F",
"&  c #2D232D",
"*  c #2F282D",
"=  c #36272B",
"-  c #342A2D",
";  c #212031",
":  c #222030",
">  c #232230",
",  c #242031",
"<  c #242333",
"1  c #272431",
"2  c #252134",
"3  c #282637",
"4  c #282638",
"5  c #2B2939",
"6  c #352133",
"7  c #342534",
"8  c #322F30",
"9  c #352936",
"0  c #6B3A1E",
"q  c #5E3621",
"w  c #5F3621",
"e  c #472335",
"r  c #472337",
"t  c #482734",
"y  c #592538",
"u  c #5A2C38",
"i  c #4D363F",
"p  c #6E273B",
"a  c #752E3B",
"s  c #7B283D",
"d  c #7C283D",
"f  c #7C2A3E",
"g  c #594027",
"h  c #5B4327",
"j  c #474030",
"k  c #6E4C23",
"l  c #775523",
"z  c #313141",
"x  c #363646",
"c  c #3D3B4A",
"v  c #3B3D4A",
"b  c #3C3C4F",
"n  c #40404F",
"m  c #434553",
"M  c #464756",
"N  c #494A57",
"B  c #4C4C5A",
"V  c #4C4F5D",
"C  c #4E505E",
"Z  c #6A4346",
"A  c #7D4648",
"S  c #505260",
"D  c #525563",
"F  c #555764",
"G  c #545866",
"H  c #5B5E6C",
"J  c #5E6270",
"K  c #6A6865",
"L  c #626774",
"P  c #646875",
"I  c #656976",
"U  c #676C78",
"Y  c #676C79",
"T  c #756C79",
"R  c #74727F",
"E  c #87293E",
"W  c #88293E",
"Q  c #984D15",
"!  c #BB5B0C",
"~  c #A25014",
"^  c #90641F",
"/  c #A06F1D",
"(  c #BC6710",
")  c #A2701E",
"_  c #845D21",
"`  c #8E7C2F",
"'  c #A31F4D",
"]  c #842143",
"[  c #942A40",
"{  c #A4204D",
"}  c #B52E45",
"|  c #B0244B",
" . c #BC2E4B",
".. c #C52D49",
"X. c #CC3048",
"o. c #CF3348",
"O. c #D13648",
"+. c #D23749",
"@. c #D63B49",
"#. c #D93F49",
"$. c #DA3F49",
"%. c #804858",
"&. c #9B5051",
"*. c #B74648",
"=. c #DC4149",
"-. c #DF454A",
";. c #E44A4A",
":. c #E75853",
">. c #E55B56",
",. c #E85C55",
"<. c #EC7162",
"1. c #AF9E32",
"2. c #CA8516",
"3. c #C98817",
"4. c #CD8A16",
"5. c #CE8B16",
"6. c #D4A327",
"7. c #CCB93F",
"8. c #D2BE3E",
"9. c #E1CA33",
"0. c #E1CB35",
"q. c #E3CE3E",
"w. c #BCAE4A",
"e. c #C7B541",
"r. c #EF816C",
"t. c #E3D56B",
"y. c #6E7480",
"u. c #717682",
"i. c #717783",
"p. c #767883",
"a. c #767984",
"s. c #757C87",
"d. c #7C7B85",
"f. c #7A7F8A",
"g. c #79808B",
"h. c #7D848F",
"j. c #7A8291",
"k. c #7C8190",
"l. c #82828D",
"z. c #828695",
"x. c #808893",
"c. c #848897",
"v. c #898891",
"b. c #858998",
"n. c #878B99",
"m. c #868E99",
"M. c #878F9A",
"N. c #99989F",
"B. c #8C94A1",
"V. c #8E96A0",
"C. c #8E96A1",
"Z. c #9299A4",
"A. c #979CA5",
"S. c #969EAA",
"D. c #989BA8",
"F. c #989FA9",
"G. c #97A1AA",
"H. c #98A1AB",
"J. c #9BA1AA",
"K. c #98A1AC",
"L. c #99A2AC",
"P. c #9DA5AF",
"I. c #9CA6AF",
"U. c #9EA9B2",
"Y. c #9FAAB3",
"T. c #A1A1A8",
"R. c #A2A5B0",
"E. c #A1ACB5",
"W. c #A4AFB8",
"Q. c #A6B1B9",
"!. c #A9B0B8",
"~. c #ABB1B8",
"^. c #A8B3BB",
"/. c #A9B4BD",
"(. c #B6B5BB",
"). c #B0B5BD",
"_. c #B9B8BE",
"`. c #BAB9BF",
"'. c #D7D094",
"]. c #ADB8C0",
"[. c #AFBBC3",
"{. c #B8C2C9",
"}. c #BFC3C9",
"|. c #BBC4CA",
" X c #BFC6CC",
".X c #C0C9CF",
"XX c #C2C8CF",
"oX c #C4C8CD",
"OX c #C6CED3",
"+X c #C6CFD5",
"@X c #CACDD3",
"#X c #CBD2D8",
"$X c #CBD3D8",
"%X c #D0D0D3",
"&X c #D0D3D8",
"*X c #D3D4DA",
"=X c #D4DADE",
"-X c #D4DBDF",
";X c #DADADE",
":X c #DCDCDF",
">X c #D6DCE0",
",X c #D7DDE1",
"<X c #DADEE1",
"1X c #D9DFE3",
"2X c #DDDFE2",
"3X c #DEE0E4",
"4X c #DEE2E5",
"5X c #E0E4E7",
"6X c #E1E4E7",
"7X c #E2E6E9",
"8X c #E4E6E9",
"9X c #E5E9EB",
"0X c #E7E8EB",
"qX c #E6E9EC",
"wX c #E7EAED",
"eX c #E7EBED",
"rX c #EBECED",
"tX c #E8ECEE",
"yX c #EAEEF0",
"uX c #EEEEF0",
"iX c #EDF0F2",
"pX c #EEF0F2",
"aX c #EFF0F2",
"sX c #F0F0F1",
"dX c #F1F3F5",
"fX c #F4F4F5",
"gX c #F4F6F7",
"hX c #F6F8F8",
"jX c #F8F8F9",
"kX c #F8F9FA",
"lX c #F9F9FA",
"zX c #FBFBFC",
"xX c #FCFCFD",
"cX c #FDFDFD",
"vX c #FDFDFE",
"bX c #FDFEFE",
"nX c #FEFEFE",
"mX c white",
"MX c None",
/* pixels */
"MXMXMXMXMXMXMXMXMXMXMXMXMXMXMXMXMXMXMXMXMXMXMXMXMXMXMXMXMXMXMXMX",
"MXMXMXMXMXMXMXMXMXMXMXMXMXMXMXMXMXMXMX7 9 MXMXMXMXMXMXMXMXMXMXMX",
"MXMXMXMXMXMXMXMXMXMXMXMXMXMXMXMXMXMXr ,.r.Z MXMXMXMXMXMXMXMXMXMX",
"MXMXMXMXMXMXMXMXMXMXMXMXMXMXMXMXt e { ;.;.<., MXMXMXMXMXMXMXMXMX",
"MXMXMXMXMXMXMXMXMXMXMXMXMXMXMXi *.o.' -.;.;.u MXMXMXMXMXMXMXMXMX",
"MXMXMXMXMXMXMXMXMXMXMXMXMXMXMXA :.@.| O.=.=.;.O MXMXMXMXMXMXMXMX",
"MXMXMXMXMXMXMXMXMXMXMXMXMXMXMXa $.$.X.} E E #.O MXMXMXMXMXMXMXMX",
"MXMXMXMXMXMXMXMXMXMXMXMXMXMX$ ] ..X.d %.v.v.f O MXMXMXMXMXMXMXMX",
"MXMXMXMXMXMXMXMXMXMXMXMXMX> &. ...s u._.mXmXN.v.MXMXMXMXMXMXMXMX",
"MXMXMXMXMXMXMXMXMXMXMXMXMX, >.O.W R 7XmXmXmXmX;Xb MXMXMXMXMXMXMX",
"MXMXMXMXMXMXMXMXMXMXMXMXMX# +.X.y Y.fXD.D.D.vXR.l.MXMXMXMXMXMXMX",
"MXMXMXMXMXMXMXMXMXMXMXMXMXMXp [ T 4XuXn.*Xk.cXz.T.MXMXMXMXMXMXMX",
"MXMXMXMXMXMX      MXMXMXMXMXMX6 x.hXgXS.c.K.b.x c MXMXMXMXMXMXMX",
"MXMXMXMXMXMXd.:X:XX MXMXMXMXMX: x.hXnXaXXXj.7.e.'.K   MXMXMXMXMX",
"MXMXMXMX  M L.3XmX%X          V U.hXmXeXB.w.9.0.q.t.8.@ MXMXMXMX",
"MXMXMXMX5 lX>XwXmXC.OXjXjXjXjXoXE.hXmX9XL Q ! ! ! 6.9.O MXMXMXMX",
"MXMXMXMX3 .XnXmX{.mXmXmXmXmXmXmX).].mXqXI ) 5.4.3.( = MXMXMXMXMX",
"MXMXMXMXMXF =XmXmXmXmXmXmXmXxXfXzXmXmXmX,XC 2./     MXMXMXMXMXMX",
"MXMXMXMX5 <X@XhXnXbXrXsXmXmX0XF.&XcXmXmXmX$X~ O MXMXMXMXMXMXMXMX",
"MXMXMXMX4 !.iX|.kX5Xf.(.mXpXmXmX}.2XmXmXmXmX< MXMXMXMXMXMXMXMXMX",
"MXMXMXMXMXm M.m.6Xh.p.8XtX+XmXmXmXZ.mXmXmXmX< MXMXMXMXMXMXMXMXMX",
"MXMXMXMXMXMX. G /.z P. X#XmXmXmXmXZ.mXmXmXmX< MXMXMXMXMXMXMXMXMX",
"MXMXMXMXMXMXMXMXi.J J.dXmXmXmXmXmXZ.mXmXmX`.2 MXMXMXMXMXMXMXMXMX",
"MXMXMXMXMXMXMXMXO W.U ~.1XmXmXmX_.H.mXmXyXB MXMXMXMXMXMXMXMXMXMX",
"MXMXMXMXMXMXMXMXMXy.G.Y P v.v.v.a.^.-X-XA.v MXMXMXMXMXMXMXMXMXMX",
"MXMXMXMXMXMXMXMXMXMXg.V.s.s.s.s.I.[.Q.H N MXMXMXMXMXMXMXMXMXMXMX",
"MXMXMXMXMXMXMXMXMXMXn D D D D D D D S MXMXMXMXMXMXMXMXMXMXMXMXMX",
"MXMXMXMXMXMXMXMXMXMXMX; _ O MXO 0 & MXMXMXMXMXMXMXMXMXMXMXMXMXMX",
"MXMXMXMXMXMXMXMXMXMXMXl h MXMXq w MXMXMXMXMXMXMXMXMXMXMXMXMXMXMX",
"MXMXMXMXMXMXMXMXMXMXMX` j MXMXk g MXMXMXMXMXMXMXMXMXMXMXMXMXMXMX",
"MXMXMXMXMXMXMXMXMXMXMX8 1.O MX* ^ - MXMXMXMXMXMXMXMXMXMXMXMXMXMX",
"MXMXMXMXMXMXMXMXMXMXMXMX1 O + MX% @ o MXMXMXMXMXMXMXMXMXMXMXMXMX"
};
