/* XPM */
static char *result[] = {
/* columns rows colors chars-per-pixel */
"32 32 244 2 ",
"   c #211F2F",
".  c #221E2F",
"X  c #211E30",
"o  c #201F30",
"O  c #211F30",
"+  c #211E31",
"@  c #211F31",
"#  c #221E30",
"$  c #241F30",
"%  c #26222F",
"&  c #31292E",
"*  c #232030",
"=  c #232232",
"-  c #242130",
";  c #272031",
":  c #262430",
">  c #2B2937",
",  c #2A2839",
"<  c #3A2533",
"1  c #382034",
"2  c #332F30",
"3  c #4D1E3C",
"4  c #412C38",
"5  c #582B37",
"6  c #592538",
"7  c #5B2738",
"8  c #5E2538",
"9  c #5C2C38",
"0  c #42303A",
"q  c #4E363E",
"w  c #60223B",
"e  c #66263A",
"r  c #71273B",
"t  c #7C283D",
"y  c #62343D",
"u  c #7B401A",
"i  c #7D401A",
"p  c #6E4E24",
"a  c #353545",
"s  c #383646",
"d  c #3B3B49",
"f  c #3E3D4E",
"g  c #433D43",
"h  c #5A3D42",
"j  c #693749",
"k  c #414251",
"l  c #424352",
"z  c #424452",
"x  c #434554",
"c  c #444754",
"v  c #494B59",
"b  c #4F525F",
"n  c #53525F",
"m  c #624144",
"M  c #555360",
"N  c #525563",
"B  c #535664",
"V  c #565967",
"C  c #5E616E",
"Z  c #5E626F",
"A  c #5E6270",
"S  c #636676",
"D  c #646875",
"F  c #646975",
"G  c #6C6C77",
"H  c #666B78",
"J  c #686D79",
"K  c #6B6F7B",
"L  c #6E6D78",
"P  c #6C6E7A",
"I  c #6A707C",
"U  c #6C717E",
"Y  c #72707A",
"T  c #72757B",
"R  c #832A3E",
"E  c #83313F",
"W  c #AD540F",
"Q  c #BB590B",
"!  c #996A1E",
"~  c #A36B1B",
"^  c #8F2A40",
"/  c #992B41",
"(  c #A02348",
")  c #BA2E45",
"_  c #B72B4B",
"`  c #BC294A",
"'  c #BC2B4A",
"]  c #BA2F4C",
"[  c #A23542",
"{  c #AE3743",
"}  c #AA3D42",
"|  c #C22C49",
" . c #CC3048",
".. c #CE3248",
"X. c #CF3348",
"o. c #CE3649",
"O. c #D53A49",
"+. c #D63B49",
"@. c #D93E49",
"#. c #DA3F49",
"$. c #B44951",
"%. c #BC5D56",
"&. c #896E7A",
"*. c #DB4049",
"=. c #DA4849",
"-. c #DD4B50",
";. c #E1474A",
":. c #E24A4A",
">. c #E44A4A",
",. c #E44B4A",
"<. c #EB6B5E",
"1. c #DD7262",
"2. c #EE7D69",
"3. c #BC8019",
"4. c #BE8118",
"5. c #BF8218",
"6. c #BCA932",
"7. c #BEAA32",
"8. c #C48016",
"9. c #C68617",
"0. c #CE8B16",
"q. c #C9AF2F",
"w. c #D3BF38",
"e. c #DEC130",
"r. c #DDC735",
"t. c #E1CA33",
"y. c #E1CB34",
"u. c #E2CB37",
"i. c #D9CA5B",
"p. c #6E7480",
"a. c #6E7384",
"s. c #6F7586",
"d. c #717783",
"f. c #757C87",
"g. c #7B7A84",
"h. c #7B7F8F",
"j. c #7A808B",
"k. c #7E8590",
"l. c #818893",
"z. c #848B96",
"x. c #8B8A93",
"c. c #898D96",
"v. c #868E9A",
"b. c #948D96",
"n. c #88909A",
"m. c #88909B",
"M. c #89909D",
"N. c #8E929F",
"B. c #929199",
"V. c #97969E",
"C. c #8E96A1",
"Z. c #8F97A1",
"A. c #9897A0",
"S. c #9099A3",
"D. c #9399A3",
"F. c #9299A4",
"G. c #919AA4",
"H. c #979AA7",
"J. c #949CA6",
"K. c #9BA5AF",
"L. c #9EA4AE",
"P. c #A5A4AB",
"I. c #A0A6AF",
"U. c #A5A8AF",
"Y. c #A1A4B0",
"T. c #A5AAB3",
"R. c #A0AAB4",
"E. c #A9AEB7",
"W. c #A5AFB8",
"Q. c #ACB2BA",
"!. c #B6B6BB",
"~. c #B1B3BD",
"^. c #B0B8BF",
"/. c #F0E483",
"(. c #E5E0AE",
"). c #ADB9C1",
"_. c #AEBAC2",
"`. c #AFBBC3",
"'. c #B6BBC2",
"]. c #B2BCC4",
"[. c #BEBEC3",
"{. c #BDBFC7",
"}. c #BDC0C1",
"|. c #B6C1C8",
" X c #BCC2C8",
".X c #BEC3C9",
"XX c #BEC7CE",
"oX c #BFC9CF",
"OX c #C6CBD1",
"+X c #C5CED3",
"@X c #C5CED4",
"#X c #CBCED3",
"$X c #C8CED4",
"%X c #C7D0D5",
"&X c #CCD1D5",
"*X c #CFD1D7",
"=X c #CCD3D9",
"-X c #CDD4D9",
";X c #CDD5DA",
":X c #CFD7DB",
">X c #D0D2D8",
",X c #D8D7DA",
"<X c #D1D8DC",
"1X c #D5D9DD",
"2X c #D5DBDF",
"3X c #D9D9DC",
"4X c #DADADC",
"5X c #D8DDE1",
"6X c #D9DFE3",
"7X c #DADFE3",
"8X c #DFDEE1",
"9X c #DDDEE2",
"0X c #DDDFE3",
"qX c #DAE0E4",
"wX c #DCE1E5",
"eX c #E1E3E6",
"rX c #E1E5E8",
"tX c #E3E5E8",
"yX c #E2E6E9",
"uX c #E4E5E8",
"iX c #E6E9EC",
"pX c #EAEBEE",
"aX c #ECEDEF",
"sX c #EEEDEF",
"dX c #EEEEEF",
"fX c #EEF0F2",
"gX c #EFF1F3",
"hX c #F0F2F4",
"jX c #F1F3F5",
"kX c #F3F4F5",
"lX c #F5F5F6",
"zX c #F7F8F9",
"xX c #F8F8F8",
"cX c gray98",
"vX c #FAFBFB",
"bX c #FBFBFB",
"nX c #FBFCFC",
"mX c #FCFCFD",
"MX c #FDFDFD",
"NX c #FDFDFE",
"BX c #FEFEFE",
"VX c #FEFFFF",
"CX c white",
"ZX c None",
/* pixels */
"ZXZXZXZXZXZXZXZXZXZXZXZXZXZXZXZXZXZXZXZXZXZXZXZXZXZXZXZXZXZXZXZX",
"ZXZXZXZXZXZXZXZXZXZXZXZXZXZXZXZXZXZXZXZXZXZXZXZXZXZXZXZXZXZXZXZX",
"ZXZXZXZXZXZXZXZXZXZXZXZXZXZXZXZXZXZX< 4 0 ZXZXZXZXZXZXZXZXZXZXZX",
"ZXZXZXZXZXZXZXZXZXZXZXZXZXZXZXZXZXZXE <.2.q ZXZXZXZXZXZXZXZXZXZX",
"ZXZXZXZXZXZXZXZXZXZXZXZXZXZXZXZX5 w ] >.>.1.O ZXZXZXZXZXZXZXZXZX",
"ZXZXZXZXZXZXZXZXZXZXZXZXZXZXZXm :.| _ ;.>.=.9 ZXZXZXZXZXZXZXZXZX",
"ZXZXZXZXZXZXZXZXZXZXZXZXZXZXO %.,.o.` O.#.*.} ZXZXZXZXZXZXZXZXZX",
"ZXZXZXZXZXZXZXZXZXZXZXZXZXZXO { @.+. ./ t R [ ZXZXZXZXZXZXZXZXZX",
"ZXZXZXZXZXZXZXZXZXZXZXZXZXZX3 (  .) r &.V.b.6 ZXZXZXZXZXZXZXZXZX",
"ZXZXZXZXZXZXZXZXZXZXZXZXZXh $.'  .j c.8XCXxXP.Y ZXZXZXZXZXZXZXZX",
"ZXZXZXZXZXZXZXZXZXZXZXZXZXy -...8 D.gXCXCXCXCX,XM ZXZXZXZXZXZXZX",
"ZXZXZXZXZXZXZXZXZXZXZXZXZX7 X. .$ oX*XN.N.H.0XN.f ZXZXZXZXZXZXZX",
"ZXZXZXZXZXZX  O ZXZXZXZXZXZX^ e Z.jX{.~.9Xa.>XY.n ZXZXZXZXZXZXZX",
"ZXZXZXZXZX@ !.4Xo ZXZXZXZXZX1 ; ).CX5XM.h.R.S s , ZXZXZXZXZXZXZX",
"ZXZXZXZX  p.J.CX[.ZXZXZXZXZXZXX ).CXmXkX].T w.i.(.> O ZXZXZXZXZX",
"ZXZXZXZXL bXXXCXMXA.          U _.CXCX;Xs.r.t.y.u./.6.. ZXZXZXZX",
"ZXZXZXZXB 7XVXCXeXK.iXCXCXCXCXT.).NXCX=Xa Q Q Q Q e.6.. ZXZXZXZX",
"ZXZXZXZXZXj.fXBX%XCXCXCXCXCXCXCXF.@XCX<Xk 5.0.9.4.W O ZXZXZXZXZX",
"ZXZXZXZXG .XpXCXCXCXCXCXCXCXlXaXCXCXCXCX+Xg 8.p     ZXZXZXZXZXZX",
"ZXZXZXZXb OXnXfXCXzX3XcXCXCX#XI.tXCXCXCXCX}.u ZXZXZXZXZXZXZXZXZX",
"ZXZXZXZXZXF 1XW.vX XP sXMXhXCXCXE.uXCXCXCXdXO ZXZXZXZXZXZXZXZXZX",
"ZXZXZXZXZXZXd.v.&XD U.yXrXwXCXCXCXL.CXCXCXdXO ZXZXZXZXZXZXZXZXZX",
"ZXZXZXZXZXZXZXA C.V Q.-X2XCXCXCXCXL.CXCXCXdXO ZXZXZXZXZXZXZXZXZX",
"ZXZXZXZXZXZXZX= I J '.nXCXCXCXCXCXL.CXCXCXB.ZXZXZXZXZXZXZXZXZXZX",
"ZXZXZXZXZXZXZXZXz G.H $X6XCXCXCXx.^.CXCXqXO ZXZXZXZXZXZXZXZXZXZX",
"ZXZXZXZXZXZXZXZXd l.m.Z C g.g.g.f.|.:X:XK ZXZXZXZXZXZXZXZXZXZXZX",
"ZXZXZXZXZXZXZXZXZXx S.z.k.k.k.k._.`.n.N ZXZXZXZXZXZXZXZXZXZXZXZX",
"ZXZXZXZXZXZXZXZXZXZXc v v v v v v v l ZXZXZXZXZXZXZXZXZXZXZXZXZX",
"ZXZXZXZXZXZXZXZXZXZXO ! O ZXo i * ZXZXZXZXZXZXZXZXZXZXZXZXZXZXZX",
"ZXZXZXZXZXZXZXZXZXZXO q.O ZXO ~ - ZXZXZXZXZXZXZXZXZXZXZXZXZXZXZX",
"ZXZXZXZXZXZXZXZXZXZXZX2 7.O ZX& 3.+ ZXZXZXZXZXZXZXZXZXZXZXZXZXZX",
"ZXZXZXZXZXZXZXZXZXZXZXZX: O ZXZX% O # ZXZXZXZXZXZXZXZXZXZXZXZXZX"
};
