/* XPM */
static char *result[] = {
/* columns rows colors chars-per-pixel */
"32 32 232 2 ",
"   c #211F2F",
".  c #221F2F",
"X  c #201F30",
"o  c #211F30",
"O  c #221F30",
"+  c #25212F",
"@  c #39292A",
"#  c #3C2B2A",
"$  c #3C302C",
"%  c #262031",
"&  c #242230",
"*  c #242233",
"=  c #292031",
"-  c #2F2131",
";  c #282533",
":  c #282635",
">  c #2F2E3F",
",  c #3F2633",
"<  c #312B3C",
"1  c #343134",
"2  c #32303C",
"3  c #491E39",
"4  c #402334",
"5  c #512437",
"6  c #5C2538",
"7  c #633620",
"8  c #612539",
"9  c #662E39",
"0  c #534B31",
"q  c #564E32",
"w  c #5A5231",
"e  c #343342",
"r  c #363443",
"t  c #3E3E4E",
"y  c #3F3F4E",
"u  c #701C43",
"i  c #593B43",
"p  c #703C41",
"a  c #57514F",
"s  c #404150",
"d  c #414352",
"f  c #484654",
"g  c #474857",
"h  c #484B59",
"j  c #4B4D5C",
"k  c #574857",
"l  c #4E505E",
"z  c #644245",
"x  c #754A4A",
"c  c #764B4B",
"v  c #6B5B48",
"b  c #7C5743",
"n  c #505260",
"m  c #525563",
"M  c #535563",
"N  c #555766",
"B  c #575967",
"V  c #5D5C68",
"C  c #5C606D",
"Z  c #5D616F",
"A  c #6E6C63",
"S  c #6C606E",
"D  c #7D616E",
"F  c #616572",
"G  c #626774",
"H  c #626775",
"J  c #6D6C77",
"K  c #666A78",
"L  c #666B78",
"P  c #64687A",
"I  c #676C7E",
"U  c #686D79",
"Y  c #71727D",
"T  c #72747F",
"R  c #8D2A3F",
"E  c #902B3F",
"W  c #85323D",
"Q  c #92661F",
"!  c #9A631B",
"~  c #9C691D",
"^  c #9D6D1D",
"/  c #BE620D",
"(  c #A8731C",
")  c #B37217",
"_  c #B0781A",
"`  c #8A7C32",
"'  c #C57715",
"]  c #8C2145",
"[  c #A42C42",
"{  c #AC224B",
"}  c #B52E45",
"|  c #BF2F46",
" . c #A53142",
".. c #AE3943",
"X. c #C12F46",
"o. c #C22C49",
"O. c #C72E49",
"+. c #C03E47",
"@. c #C8334A",
"#. c #C9334A",
"$. c #CC3048",
"%. c #D03448",
"&. c #D33949",
"*. c #D43949",
"=. c #D53A49",
"-. c #D63B49",
";. c #9F4145",
":. c #925A54",
">. c #A25D56",
",. c #D2474E",
"<. c #D84E55",
"1. c #E1474A",
"2. c #E3494A",
"3. c #E44A4A",
"4. c #E65651",
"5. c #C26259",
"6. c #EB6B5E",
"7. c #EB6D5F",
"8. c #A29232",
"9. c #CE8B16",
"0. c #C8AB2E",
"q. c #DBB82D",
"w. c #E1CA33",
"e. c #9B935A",
"r. c #E1C442",
"t. c #EBD959",
"y. c #6A7081",
"u. c #787781",
"i. c #7B7C86",
"p. c #717788",
"a. c #82828B",
"s. c #818594",
"d. c #848C96",
"f. c #858D97",
"g. c #888891",
"h. c #878F9A",
"j. c #8B8F98",
"k. c #88909A",
"l. c #8A919B",
"z. c #88919C",
"x. c #8A929C",
"c. c #8D929C",
"v. c #8B949F",
"b. c #8F93A0",
"n. c #8E96A1",
"m. c #8F98A2",
"M. c #919AA4",
"N. c #939CA6",
"B. c #97A1AA",
"V. c #97A1AB",
"C. c #99A0AA",
"Z. c #9DA0A8",
"A. c #9EA8B0",
"S. c #A2A5B0",
"D. c #A9B1B9",
"F. c #A9B2BA",
"G. c #ACB2B9",
"H. c #AFB2B9",
"J. c #ABB4BC",
"K. c #AFB4BC",
"L. c #B8B8BD",
"P. c #BBB9BE",
"I. c #C4C09B",
"U. c #F5E985",
"Y. c #AFBBC3",
"T. c #B5BBC2",
"R. c #B6BDC3",
"E. c #B3BEC6",
"W. c #BABFC6",
"Q. c #BAC0C6",
"!. c #BEC0C5",
"~. c #BDC2C8",
"^. c #BEC7CD",
"/. c #BEC8CF",
"(. c #C1C0C5",
"). c #C0C4CA",
"_. c #C2C6CC",
"`. c #C2C7CD",
"'. c #CACACE",
"]. c #C3CBD1",
"[. c #C3CCD2",
"{. c #C7CDD2",
"}. c #C6CFD4",
"|. c #C7CFD5",
" X c #CECED2",
".X c #C8D0D6",
"XX c #CAD2D8",
"oX c #CED5DA",
"OX c #D1D1D4",
"+X c #D2D4D8",
"@X c #D5D4D8",
"#X c #D3D8DC",
"$X c #D5D8DC",
"%X c #D5DADD",
"&X c #D4DADF",
"*X c #D8D8DB",
"=X c #D5DBE0",
"-X c #D8DEE2",
";X c #D9DFE3",
":X c #DDDFE2",
">X c #DBE1E4",
",X c #DFE1E4",
"<X c #DDE2E6",
"1X c #DEE3E6",
"2X c #E1E0E3",
"3X c #E1E1E3",
"4X c #E1E5E8",
"5X c #E4E8EA",
"6X c #E5E8EB",
"7X c #E7E8EB",
"8X c #E7EAED",
"9X c #E9EBED",
"0X c #EBECEE",
"qX c #EFF1F3",
"wX c #EFF2F3",
"eX c #F2F3F4",
"rX c #F3F5F6",
"tX c gray96",
"yX c #F5F6F7",
"uX c #F6F7F8",
"iX c #F7F8F9",
"pX c #F8F8F9",
"aX c #F8F9FA",
"sX c #F9FAFA",
"dX c #F9FAFB",
"fX c #FBFBFC",
"gX c #FCFCFD",
"hX c #FDFDFD",
"jX c #FEFEFE",
"kX c #FEFEFF",
"lX c white",
"zX c None",
/* pixels */
"zXzXzXzXzXzXzXzXzXzXzXzXzXzXzXzXzXzXzXzXzXzXzXzXzXzXzXzXzXzXzXzX",
"zXzXzXzXzXzXzXzXzXzXzXzXzXzXzXzXzXzXzXzXzXzXzXzXzXzXzXzXzXzXzXzX",
"zXzXzXzXzXzXzXzXzXzXzXzXzXzXzXzXzXzXzXzXzXzXzXzXzXzXzXzXzXzXzXzX",
"zXzXzXzXzXzXzXzXzXzXzXzXzXzXzXzXzXzXzXzXzXzXzXzXzXzXzXzXzXzXzXzX",
"zXzXzXzXzXzXzXzXzXzXzXzXzXzXzXzXzXzXzXzXzXzXzXzXzXzXzXzXzXzXzXzX",
"zXzXzXzXzXzXzXzXzXzXzXzXzXzXzXzXzXzXzXzXzXzXzXzXzXzXzXzXzXzXzXzX",
"zXzXzXzXzXzXzXzXzXzXzXzXzXzXzXzXzXzXzX9 x c z zXzXzXzXzXzXzXzXzX",
"zXzXzXzXzXzXzXzXzXzXzXzXzXzXzXzXzXzX3 +.6.7.5.i zXzXzXzXzXzXzXzX",
"zXzXzXzXzXzXzXzXzXzXzXzXzXzXzXzX- W ] @.2.3.4.p zXzXzXzXzXzXzXzX",
"zXzXzXzXzXzXzXzXzXzXzXzXzXzXzX  >.1.#.O.=.-.-..., zXzXzXzXzXzXzX",
"zXzXzXzXzXzXzXzXzXzXzXzXzXzXzXo <.*.%.$.8 6 6  .4 zXzXzXzXzXzXzX",
"zXzXzXzXzXzXzXzXzXzXzXzXzXzXzXu { $.R 5 P.(.(.D = zXzXzXzXzXzXzX",
"zXzXzXzXzXzXzXzXzXzXzXzXzXzX:.,.o.[ S !.hXlXlX3X XO zXzXzXzXzXzX",
"zXzXzXzXzXzXzXzXzXzXzXzXzXzX;.&.X.k {.gXlXlXlXlXlX@XX zXzXzXzXzX",
"zXzXzXzXzXo   o zXzXzXzXzXzXE $.| j -XlXlXlXlXlXlXtXo zXzXzXzXzX",
"zXzXzXzXzXo 2X3XX zXzXzXzXzX% } < ].jXb.I I S.lXs.P o zXzXzXzXzX",
"zXzXzXzX* d.v.lXL.zXzXzXzXzXzXX > |.lX}.y.p.M.K 2 ; : zXzXzXzXzX",
"zXzXzXzXa.hX/.lXfXg.e r r r r r z.|.lXlXaXA.e.w.w.U.I.1 zXzXzXzX",
"zXzXzXzXC %XjXjX$XJ.wXlXlXlXlXlXC.^.sXlXE.A q.q.q.q.r.t.w zXzXzX",
"zXzXzXzXf l.yXaX=XlXlXlXlXlXlXlXpXD.4XlXE.# / / / / ' 0.q zXzXzX",
"zXzXzXzXi.~.yXlXlXrX'.jXlXlXlXlX:X7XlXlX.Xa _ 9.9.^ ! 7 zXzXzXzX",
"zXzXzXzXN `.gX8XuXG.Y hXdXqXlXlXK.W.0XlXlXR.v ) ~ . . zXzXzXzXzX",
"zXzXzXzXzXH #XF.+XZ H.1X>X5XlXlXlX9X_.eXlXiXH.b @ zXzXzXzXzXzXzX",
"zXzXzXzXzXzXU n.Z.G T.&X<XlXlXlXlXlX).,XlXlXlXu.zXzXzXzXzXzXzXzX",
"zXzXzXzXzXzXzXm L U Q.kXlXlXlXlXlXlX).,XlXlXOXV zXzXzXzXzXzXzXzX",
"zXzXzXzXzXzXzXzXn m.F oX;XlXlXlXlX*Xc.6XlXiXj.zXzXzXzXzXzXzXzXzX",
"zXzXzXzXzXzXzXzXt f.x.M B J J J J T V.[.XXR.h zXzXzXzXzXzXzXzXzX",
"zXzXzXzXzXzXzXzXzXd B.k.h.h.h.h.h.N.Y.Y.l g zXzXzXzXzXzXzXzXzXzX",
"zXzXzXzXzXzXzXzXzXzXy s s s s s s s s s zXzXzXzXzXzXzXzXzXzXzXzX",
"zXzXzXzXzXzXzXzXzXzXzXo 8.o zXo ( o zXzXzXzXzXzXzXzXzXzXzXzXzXzX",
"zXzXzXzXzXzXzXzXzXzXzXzX0 ` zXzX$ Q zXzXzXzXzXzXzXzXzXzXzXzXzXzX",
"zXzXzXzXzXzXzXzXzXzXzXzXzX& o zXzX+ o zXzXzXzXzXzXzXzXzXzXzXzXzX"
};
