/* XPM */
static char *result[] = {
/* columns rows colors chars-per-pixel */
"32 32 231 2 ",
"   c #211F2F",
".  c #221F2F",
"X  c #211F30",
"o  c #211F31",
"O  c #26212F",
"+  c #26222F",
"@  c #312A2E",
"#  c #3E312C",
"$  c #212030",
"%  c #222030",
"&  c #262330",
"*  c #272232",
"=  c #272430",
"-  c #2B2031",
";  c #282032",
":  c #282232",
">  c #282637",
",  c #2B2B3B",
"<  c #2C2B3B",
"1  c #2B2B3D",
"2  c #3F2634",
"3  c #332F30",
"4  c #332936",
"5  c #312F3E",
"6  c #441E38",
"7  c #422A28",
"8  c #45362B",
"9  c #472735",
"0  c #4D2237",
"q  c #402F3A",
"w  c #512437",
"e  c #55203A",
"r  c #69263A",
"t  c #682A3A",
"y  c #78283C",
"u  c #7B2B3F",
"i  c #6D4F25",
"p  c #353646",
"a  c #3F3E4D",
"s  c #543A40",
"d  c #703D42",
"f  c #7B374A",
"g  c #414151",
"h  c #464856",
"j  c #4C4D5B",
"k  c #4E4D5A",
"l  c #4B4D5C",
"z  c #4C4F5D",
"x  c #525563",
"c  c #575664",
"v  c #575A67",
"b  c #5C5966",
"n  c #5B5E6C",
"m  c #785867",
"M  c #5C606D",
"N  c #5C606E",
"B  c #72636F",
"V  c #626370",
"C  c #616572",
"Z  c #646975",
"A  c #6D6C77",
"S  c #6A6C78",
"D  c #686D7A",
"F  c #696E7B",
"G  c #6A6E7A",
"H  c #6A6F7A",
"J  c #6A6F7C",
"K  c #6C717D",
"L  c #6D737F",
"P  c #85343E",
"I  c #884517",
"U  c #8A4517",
"Y  c #814219",
"T  c #BE630F",
"R  c #A3701C",
"E  c #AE7219",
"W  c #B77D19",
"Q  c #885F21",
"!  c #C06911",
"~  c #912A40",
"^  c #9C2B41",
"/  c #9A3640",
"(  c #9F394B",
")  c #A82747",
"_  c #A42C42",
"`  c #A52F42",
"'  c #AA2D43",
"]  c #BC2E46",
"[  c #B1254B",
"{  c #B9284A",
"}  c #BD3D45",
"|  c #BD304B",
" . c #C63049",
".. c #C93048",
"X. c #CC3048",
"o. c #CE3248",
"O. c #D03548",
"+. c #D93E49",
"@. c #CA4047",
"#. c #DD4349",
"$. c #DF444A",
"%. c #E3494A",
"&. c #E44A4A",
"*. c #E05052",
"=. c #CB6D5F",
"-. c #D27363",
";. c #EC7363",
":. c #A29232",
">. c #B3A132",
",. c #B4A232",
"<. c #B7A73F",
"1. c #CC8615",
"2. c #CE8B16",
"3. c #D5B92F",
"4. c #E1CA33",
"5. c #E4CE3E",
"6. c #B4A856",
"7. c #C9B740",
"8. c #F0856E",
"9. c #C6BD75",
"0. c #E4CF40",
"q. c #E6D352",
"w. c #6D7380",
"e. c #707581",
"r. c #757786",
"t. c #757C87",
"y. c #797983",
"u. c #7B7A84",
"i. c #7C7B85",
"p. c #767D88",
"a. c #787F8A",
"s. c #787C8D",
"d. c #7A808C",
"f. c #79808F",
"g. c #7E8590",
"h. c #818584",
"j. c #87868F",
"k. c #828791",
"l. c #818893",
"z. c #858D97",
"x. c #898891",
"c. c #868E99",
"v. c #878F9A",
"b. c #88909B",
"n. c #8A939D",
"m. c #8B939E",
"M. c #90919B",
"N. c #97979F",
"B. c #BDB997",
"V. c #8D94A0",
"C. c #939BA5",
"Z. c #9998A0",
"A. c #979CA8",
"S. c #959EAA",
"D. c #989BA8",
"F. c #989FA9",
"G. c #999FA9",
"H. c #99A2AC",
"J. c #9AA4AE",
"K. c #9EA7B2",
"L. c #B2AFAB",
"P. c #A4A6B2",
"I. c #A3A9B2",
"U. c #A5ABB4",
"Y. c #ABAAB1",
"T. c #A8AEB7",
"R. c #ACAEB8",
"E. c #ADB7BF",
"W. c #B2B4BB",
"Q. c #B1B4BD",
"!. c #B3B5BF",
"~. c #AFBBC3",
"^. c #B4BBC3",
"/. c #B7BAC2",
"(. c #B1BCC3",
"). c #B3BEC6",
"_. c #B9BEC4",
"`. c #BDBFC7",
"'. c #B9C3CA",
"]. c #BFC1C9",
"[. c #BDC3C9",
"{. c #C2C1C6",
"}. c #C0C4CB",
"|. c #C3C8CD",
" X c #C7C8CF",
".X c #C4CDD3",
"XX c #C6CFD4",
"oX c #C7CFD5",
"OX c #C9D1D6",
"+X c #CBD0D6",
"@X c #CCD0D5",
"#X c #CCD1D5",
"$X c #D3DADE",
"%X c #D7D8DD",
"&X c #D4DADE",
"*X c #D4DBDF",
"=X c #D8D8DB",
"-X c #DCDCDF",
";X c #D9DBE0",
":X c #DCDEE2",
">X c #DCE1E5",
",X c #DCE2E5",
"<X c #DFE3E7",
"1X c #E0E0E2",
"2X c #E2E2E5",
"3X c #E1E2E6",
"4X c #E0E5E8",
"5X c #E3E7E9",
"6X c #E2E7EA",
"7X c #E7EBED",
"8X c #E8EBEE",
"9X c #E9ECEF",
"0X c #EBEDEF",
"qX c #ECECEE",
"wX c #EDEEF0",
"eX c #EDF0F2",
"rX c #F1F1F3",
"tX c #F3F5F6",
"yX c #F4F4F5",
"uX c #F4F6F7",
"iX c gray97",
"pX c #F8F8F9",
"aX c #F9F9F9",
"sX c #F9FAFA",
"dX c #FAFBFB",
"fX c #FBFBFB",
"gX c #FCFCFD",
"hX c #FDFDFD",
"jX c #FDFEFE",
"kX c white",
"lX c None",
/* pixels */
"lXlXlXlXlXlXlXlXlXlXlXlXlXlXlXlXlXlXlX; * : lXlXlXlXlXlXlXlXlXlX",
"lXlXlXlXlXlXlXlXlXlXlXlXlXlXlXlXlXlXlXP ;.8.4 lXlXlXlXlXlXlXlXlX",
"lXlXlXlXlXlXlXlXlXlXlXlXlXlXlXlXq 2 e | %.&.-.X lXlXlXlXlXlXlXlX",
"lXlXlXlXlXlXlXlXlXlXlXlXlXlXlXX =.%. .{ +.$.@.9 lXlXlXlXlXlXlXlX",
"lXlXlXlXlXlXlXlXlXlXlXlXlXlXlXX } #.+.X.' ^ ` / lXlXlXlXlXlXlXlX",
"lXlXlXlXlXlXlXlXlXlXlXlXlXlXlX6 ) X.] ~ m A B r lXlXlXlXlXlXlXlX",
"lXlXlXlXlXlXlXlXlXlXlXlXlXlXs ( [ ..f S =XkXqXu.b lXlXlXlXlXlXlX",
"lXlXlXlXlXlXlXlXlXlXlXlXlXlXd *.o.u k.9XkXkXkXkXM.1 lXlXlXlXlXlX",
"lXlXlXlXlXlXlXlXlXlXlXlXlXlXt O.X.> .X%XR.R./.3XQ.a lXlXlXlXlXlX",
"lXlXlXlXlXlXlXlXlXlXlXlXlXlX0 _ y d.7X!.P.].s. X`.k lXlXlXlXlXlX",
"lXlXlXlXlXlXlXlXlXlXlXlXlXlXlXw - ).kX+XA.D.S.r.c 5 lXlXlXlXlXlX",
"lXlXlXlXlXlXlXlXlXlXlXlXlXlXlXlXX ).kXuX;XK.h.<.6.B.X lXlXlXlXlX",
"lXlXlXlXlXlX%       lXlXlXlXlXlXX ).kXkX$Xf.7.4.5.q.9.$ lXlXlXlX",
"lXlXlXlXlXlXX {.-XY.lXlXlXlXlXlXX ).kXkXoXp ! ! ! ! 0.:.lXlXlXlX",
"lXlXlXlXlX  p.C.kXaXj.          w.).kXkXoX< 1.1.1.1.T ,.X lXlXlX",
"lXlXlXlXlXi.fX'.kX:XJ.5XpXpXpXpXG.).kXkXjX(.# 2.i + O = lXlXlXlX",
"lXlXlXlXlXM <XkXsXOXkXkXkXkXkXkXkXm.XXkXkXkXL.Y lXlXlXlXlXlXlXlX",
"lXlXlXlXlXlXl.tXkXkXkXkXkXkXkXpXyXkXkXkXkXkX1XX lXlXlXlXlXlXlXlX",
"lXlXlXlXlXy._.rXtXkXsX2XhXkXkX}.F.wXkXkXkXkX1XX lXlXlXlXlXlXlXlX",
"lXlXlXlXlXv #XeXE.dX[.V iXgXuXkXkXI.0XkXkXkX1XX lXlXlXlXlXlXlXlX",
"lXlXlXlXlXlXH v.V.@XC W.8X6X>XkXkXsXU.kXkXkX1XX lXlXlXlXlXlXlXlX",
"lXlXlXlXlXlXlX. F z.N T.OX&XkXkXkXsXU.kXkXkX1XX lXlXlXlXlXlXlXlX",
"lXlXlXlXlXlXlXlX, L D |.jXkXkXkXkXsXU.kXkXkXZ.lXlXlXlXlXlXlXlXlX",
"lXlXlXlXlXlXlXlXlXl b.J &X4XkXkXkXN.^.kXkX,XX lXlXlXlXlXlXlXlXlX",
"lXlXlXlXlXlXlXlXlXg n.g.Z G x.x.x.e.'.*X*XK lXlXlXlXlXlXlXlXlXlX",
"lXlXlXlXlXlXlXlXlXlXj H.a.t.t.t.t.~.~.c.n lXlXlXlXlXlXlXlXlXlXlX",
"lXlXlXlXlXlXlXlXlXlXlXz x x x x x x x h lXlXlXlXlXlXlXlXlXlXlXlX",
"lXlXlXlXlXlXlXlXlXlXlXlXX Q   lXX U X lXlXlXlXlXlXlXlXlXlXlXlXlX",
"lXlXlXlXlXlXlXlXlXlXlX  R 8 lXlXI 7 lXlXlXlXlXlXlXlXlXlXlXlXlXlX",
"lXlXlXlXlXlXlXlXlXlXlXX 3.X lXX E X lXlXlXlXlXlXlXlXlXlXlXlXlXlX",
"lXlXlXlXlXlXlXlXlXlXlXlX3 >.o lX@ W X lXlXlXlXlXlXlXlXlXlXlXlXlX",
"lXlXlXlXlXlXlXlXlXlXlXlXlX& X lXlX+ X lXlXlXlXlXlXlXlXlXlXlXlXlX"
};
