/* XPM */
static char *result[] = {
/* columns rows colors chars-per-pixel */
"32 32 6 1 ",
"  c #A22633",
". c #BE4A2F",
"X c #D77643",
"o c #E4A672",
"O c #EAD4AA",
"+ c None",
/* pixels */
"++++++++++++++++++++++++++++++++",
"++++++++++++++++++++++++++++++++",
"++++++++++++++++++++++++++++++++",
"++++++++++++++++++++++++++++++++",
"++++++++++++++++++++++++OO++++++",
"++++++++++++++++++++++++OO++++++",
"++++++++++++++++++++++++OO++++++",
"++++++++++++++.....+++OOOOOOO+++",
"++++++++++++.....X...oOOOOooo+++",
"++++++++++++.....X...oOOOOooo+++",
"+++++++++++....XX.....ooOo++++++",
"++++++++++....XXXX......o+++++++",
"++++++++++....XXXX......o+++++++",
"++++++++....XXXXX.... .. +++++++",
"+++++++....X..X.......    ++++++",
"++++++ ...X....... .. ..  ++++++",
"++++++ ...X....... .. ..  ++++++",
"++++++ ....X.......       ++++++",
"++++++  ..........        ++++++",
"++++++  ..........        ++++++",
"++++++    .......        +++++++",
"+++++++    .  .  .      ++++++++",
"+++++++o    ..        ++++++++++",
"+++++++o    ..        ++++++++++",
"++++++oooo           +++++++++++",
"+++OOOOoooo        +++++++++++++",
"+++OOOOOoo++      ++++++++++++++",
"+++OOOOOoo++      ++++++++++++++",
"++++++Oo++++++++++++++++++++++++",
"++++++oo++++++++++++++++++++++++",
"++++++oo++++++++++++++++++++++++",
"++++++++++++++++++++++++++++++++"
};
