/* XPM */
static char *result[] = {
/* columns rows colors chars-per-pixel */
"32 32 5 1 ",
"  c #0C9C06",
". c #0CC005",
"X c #A0EB14",
"o c #F0F9B6",
"O c None",
/* pixels */
"OOOOOOOOOOOOOOOOOOOOOOOOOOOOOOOO",
"OOOOOOOOOOOOOOO  OOOOOOOOOOOOOOO",
"OOOOOOOO.OOOOO ... OOOOOOOOOOOOO",
"OOOOOOOOOOOOOO .X. OOOOOOOOOOOOO",
"OOOOOOOOOOOOO .X X. OOOOOOOOOOOO",
"OOOOOOOOOOOOO . ... OOOOOOOOOOOO",
"OOOOOOOOOOOO   .. X.OOOOOOOOOOOO",
"OOOOOOOOOOOO   .. XXOOOOOOOOOOOO",
"OOOOOOOOOOOO   ... oOOOOOOOOOOOO",
"OOOOOOOOOOOO   .X. XOOOOOOOOOOOO",
"OOOOOOOOOOOO   .X. XOOOOOOOOOOOO",
"OOOOOOOOOOO  Xo X .  OOOOOOOOOOO",
"OOOOOOOOOOO  .o . .  OOOOOOOOOOO",
"OOOOOOOOOOO    .. .  OOOOOOOOOOO",
"OOOOOOO.OOO    XX .  OOOOOOOOOOO",
"OOOOOOOOOOO  . X  .  OOOOOOOOOOO",
"OOOOOOOOOOO  X.X  X  OOOOOOOOOOO",
"OOOOOOOOOOO  oX . X  OOOOOOOOOOO",
"OOOOOOOOOOO  o.. oX  OOOOOOOOOOO",
"OOOOOOOOOOO  . .XXX  OOOOOOOOOOO",
"OOOOOOOOOOO  . ..X.  OOOOOOOOOOO",
"OOOOOOOOOOO  X X.. . OOOOOOOOOOO",
"OOOOOOOOOOOO  . X X.OOOOOOOOOOOO",
"OOOOOOOOOOOO  X X X.OOOOOOOOOOOO",
"OOOOOOOOOOOO   XX.. OOOOOOOOOOOO",
"OOOOOOOOOOOO   .X. .OOOOOOOOOOOO",
"OOOOOOOOOOOO  . .. XOOOOOOOOOOOO",
"OOOOOOOOOOOOO XX XX OOOOOOOOOOOO",
"OOOOOOOOOOOOO .XoX. OOOOOOOOOOOO",
"OOOOOOOOOOOXXO .X. OOOOOOOOOOOOO",
"OOOOOOOOOOOOOO  . OOOOOOOOOOOOOO",
"OOOOOOOOOOOOOOO  OOOOOOOOOOOOOOO"
};
