/* XPM */
static char *result[] = {
/* columns rows colors chars-per-pixel */
"32 32 5 1 ",
"  c #0C9C06",
". c #0CC005",
"X c #A0EB14",
"o c #F0F9B6",
"O c None",
/* pixels */
"OOOOOOOOOOOOOOOOOOOOOOOOOOOOOOOO",
"OOOOOOOOOOOOOO  OOOOOOOOOOOOOOOO",
"OOOOOOOOOOOOO ... OOOOOOOOOOOOOO",
"OOOOOOOOOOOOO .X. OOOOOOOOOOOOOO",
"OOOOOOOOOOOO .X X. OOOOOOOOOOOOO",
"OOOOOOOOOOOO . ... OOOOOOOOOOOOO",
"OOOOOOOOOOO   .. X.OOOOOOOOOOOOO",
"OOOOOOOOOOO   .. XXOOOOOOOOOOOOO",
"OOOOOOOOOOO   ... oOOOOOOOOOOOOO",
"OOOOOOOOOOO   .X. XOOOOOOOOOOOOO",
"OOOOOOOOOOO   .X. XOOOOOOOOOOOOO",
"OOOOOOOOOO  Xo X .  OOOOOXOOOOOO",
"OOOOOOOOOO  .o . .  OOOOOOOOOOOO",
"OOOOOOOOOO    .. .  OOOOOOOOOOOO",
"OOOOOOOOOO    .. .  OOOOOOOOOOOO",
"OOOOOOOOOO  . X  .  OOOOOOOOOOOO",
"OOOOOOOOOO  X.X  X  OOOOOOOOOOOO",
"OOOOOOOOOO  XX X X  OOOOOOOXOOOO",
"OOOOOOO  O  o.. oX  OOOOOOOOOOOO",
"OOOOOOO  O  . .XXX  OOOOOOOOOOOO",
"OOOOOOOOOO  . ..X.  OOOOOOOOOOOO",
"OOOOOOOOOO  X X.. . OOoOOOOOOOOO",
"OOOOOOOOOOO  . X X.OOOOOOOOOOOOO",
"OOOOOOOOOOO  X X X.OOOOOOOOOOOOO",
"OOOOOOOOOOO   XX.. OOOOOOOOOOOOO",
"OOOOOOOOOOO   .X. .OOOOOOOOOOOOO",
"OOOOOOOOOOO  . .. XOOOOOOOOOOOOO",
"OOOOOOOOOOOO XX XX OOOOOOOOOOOOO",
"OOOOOOOOOOOO .XoX. OOOOOOOOOOOOO",
"OOOOOOOOOOOOO .X. OOOOOOOOOOOOOO",
"OOOOOOOOOOOOO  . OOOOOOOOOOOOOOO",
"OOOOOOOOOOOOOO  OOOOOOOOOOOOOOOO"
};
