/* XPM */
static char *result[] = {
/* columns rows colors chars-per-pixel */
"32 32 5 1 ",
"  c #0C9C06",
". c #0CC005",
"X c #A0EB14",
"o c #F0F9B6",
"O c None",
/* pixels */
"OOOOOOOOOOOOOOOOOOOOOOOOOOOOOOOO",
"OOOOOOOOOOOOOO  OOOOOOOOOOOOOOOO",
"OOOOOOOOOOOO  XXX OOOO OOOOOOOOO",
"OOOOOOOOOOOO  X.X OOOOOOOOOOOOOO",
"OOOOOOOOOOOO X. .XOOOOOOOOOOOOOO",
"OOOOOOOOOOOO XXX XOOOOOOOOOOOOOO",
"OOOOOOOOOOO X. XX  OOOOOOOOOOOOO",
"OOOOOOOOOOO .. XX  OOOOOOOOOOOOO",
"OOOOOOOOOOO o XXX  OOOOOOOOOOOOO",
"OOOOOOOOOOO . X.X  OOOOOOOOOOOOO",
"OOOOOOOOOOO . X.X  OOOOOOOOOOOOO",
"OOOOOOOOOO   X . o. OOOOOOOOOOOO",
"OOOOOOOOOO   X X oX OOOOOOOOOOOO",
"OOOOOOOOOO   X XX   OOOOOOOOOOOO",
"OOOOOOOOOO   X ..   O.OOOOOOOOOO",
"OOOOOOOOOO   .  .XX O.OOOOOOOOOO",
"OOOOOOOOOO   .  .X. OOOOOOOOOOOO",
"OOOOOOOOOO   . X .o OO.OOOOOOOOO",
"OOOOOOOOOO   .o XXo OOOOOOOOOOOO",
"OOOOOOOOOO   ...X X OOOOOOOOOOOO",
"OOOOOOOOOO  X XXX . OOOOOOOOOOOO",
"OOOOOOOOOO  X XX. . OOOOOOOOOOOO",
"OOOOOOOOOOO X. . X OOOOOOOOOOOOO",
"OOOOOOOOOOO  X. .. OOOOOOOOOOOOO",
"OOOOOOOOOOO  XX..  OOOOOOOOOOOOO",
"OOOOOOOOOOO X X.X  OOOOOOOOOOOOO",
"OOOOOOOOOOOOX. X XOOOOOOOOOOOOOO",
"OOOOOOOOOOOO .. ..OOOOOOOOOOOOOO",
"OOOOOOOOOOOO X.o.XOOOOOOOOOOOOOO",
"OOOOOOOOOOOO  X.X OOOOOOOOOOOOOO",
"OOOOOOOOOOOOO  X OOOOOOOOOOOOOOO",
"OOOOOOOOOOOOOO  OOOOOOOOOOOOOOOO"
};
