/* XPM */
static char *result[] = {
/* columns rows colors chars-per-pixel */
"32 32 5 1 ",
"  c #0C9C06",
". c #0CC005",
"X c #A0EB14",
"o c #F0F9B6",
"O c None",
/* pixels */
"OOOOOOOOOOOOOO  OOOOOOOOOOOOOOOO",
"OOOOOOOOOOOOO  . OOOOOOOOOOOOOOO",
"OOOOOOOOOOOO  .oX OOOOOOOOOOOOOO",
"OOOOOOOOOOOO .X .XOOOOOOOOOOOOOO",
"OOOOOOOOOOOO .X. XOOOOOOOOOOOOOO",
"OOOOOOOOOOO .. ..  OOOOOOOOOOOOO",
"OOOOOOOOOOO . .... OOOOOOOOOOOOO",
"OOOOOOOOOOO X .X.. OOOOOOOOOOOOO",
"OOOOOOOOOOO X ...X OOOOOOOOOOOOO",
"OOOOOOOOOOO X o  . OOOOOOOOOOOOO",
"OOOOOOOOOO   o... . OOOOOOOOOOOO",
"OOOOOOOOOO   o ...X OOOOOOOOOOOO",
"OOOOOOOOOO   . XX.X OOOOOOOOOOOO",
"OOOOOOOOOO   . oXXX OOOOOOOOOOOO",
"OOOOOOOOOO   . ...o OOOOOOOOOOOO",
"OOOOOOOOOO   . . .  OOOOOOOOOOOO",
"OOOOOOOOOO   .  .   OOOOOOOOOOOO",
"OOOOOOOOOO   X  X   OOOOOOOOOOOO",
"OOOOOOOOOO   X  X   OOOOOOOOOOOO",
"OOOOOOOOOO   X .X   OOOOOOOOOOOO",
"OOOOOOOOOO   XXXX   OOOOOOOOOOOO",
"OOOOOOOOOO  X X. .. OOOOOOOOOOOO",
"OOOOOOOOOOO X X. X OOOOOOOOOOOOO",
"OOOOOO OOOO X .. o OOOOOOOOOOOOO",
"OOOOOOOOOOO o .ooX OOOOOOOOOOOOO",
"OOOOOOOOOOO .o X.  OOOOOOOOOOOOO",
"OOOOOOOOOOO .X ..  OOOOOOOOOOOOO",
"OOOOOOOOOOOO .X .XOO.OOOOOOOOOOO",
"OOOOOOOOOOOO ...XoOOOOOOOOOOOOOO",
"OOOOOOOOOOOO  .Xo OOOOOOOOOOOOOO",
"OOOOOOOOOOOOO  . OOOOOOOOOOOOOOO",
"OOOOOOOOOOOOOO  OOOOOOOOOOOOOOOO"
};
