/* XPM */
static char *result[] = {
/* columns rows colors chars-per-pixel */
"32 32 5 1 ",
"  c #0C9C06",
". c #0CC005",
"X c #A0EB14",
"o c #F0F9B6",
"O c None",
/* pixels */
"OOOOOOOOOOOOOOOOOOOOOOOOOO OOOOO",
"OOOOOOOOOOOOOOOOOOOOOOOOOOOOOOOO",
"OOOOOOOOOOOOO  . OOOOOOOOOOOOOOO",
"OOOOOOOOOOOO  ... OOOOOOOOOOOOOO",
"OOOOOOOOOOOO  .Xo OOOOOOOOOOOOOO",
"OOOOOOOOOOOO .X .XOOOOOOOOOOOOOO",
"OOOOOOOOOOOO XX. .OOOOOOOOOOOOOO",
"OOOOOOOOOOO .X ..  OOOOOOOOOOOOO",
"OOOOOOOOOOO o . .o OOOOOOOOOOOOO",
"OOOOOOOOOOO X .. o OOOOOOOOOOOOO",
"OOOOOOOOOOO X X. X OOOOOOOOOOOOO",
"OOOOOOOOOO   XXX .  OOOOOOOOOOOO",
"OOOOOOOOOO   XXXX   OOOOOOOOOOOO",
"OOOOOOOOOO   X .X   OOOOOOOOOOOO",
"OOOOOOOOOO   X  X   OOOOOOOOOOOO",
"OOOOOOOOOO   .  .   OOOOOOOOOOOO",
"OOOOOOOOOO   .  .   OOOOOOOOOOOO",
"OOOOOOOOOO   . ...o OOOOXOOOOOOO",
"OOOOOOOOOO   . X.Xo OOOOOOOOOOOO",
"OOOOOOOOOO   . oXXX OOOOOOOOOOOO",
"OOOOOOOOOO   o ...X OOOOOOOOOOOO",
"OOOOOOOOOO   o... . OOOOOOOOOOOO",
"OOOOOOOOOO   o... . OOOOOOOOOOOO",
"OOOOOOOOOOO X ...X OOOOOOOOOOOOO",
"OOOOOOOOOOO X .X.. OOOOOOOOOOOOO",
"OOOOOOOOOOO . .... OOOOOOOOOOOOO",
"OOOOOOOOOOOO . .. OOOOOOOOOOOOOO",
"OOOOOOOOOOOO .X. XOOOOOOOOOOOOOO",
"OOOOOOOOOOOO .X .XOOOOOOOOOOOOOO",
"OOOOOOOOOOOO  .oX OOOOOOOOOOOOOO",
"OOOOOOOOOOOOO  . OOOOOOOOOOOOOOO",
"OOOOOOOOOOOOOO  OOOOOOOOOOOOOOOO"
};
