/* XPM */
static char *result[] = {
/* columns rows colors chars-per-pixel */
"32 32 5 1 ",
"  c #0C9C06",
". c #0CC005",
"X c #A0EB14",
"o c #F0F9B6",
"O c None",
/* pixels */
"OOOOOOOOOOOOOOO  OOOOOOOOOOOOOOO",
"OOOOOOOOOOOOOO  . OOOOOOOOOOOOOO",
"OOOOOOOOOOOOO  .oX OOOOOOOOOOOOO",
"OOOOOOOOOOOOO .X .XO  OOOOOOOOOO",
"OOOOOOOOOOOOO .X. XO  OOOOOOOOOO",
"OOOOOOOOOOOOO . ..  OOOOOOOOOOOO",
"OOOOOOOOOOOO . .... OOOOOOOOOOOO",
"OOOOOOOOOOOO X .X.. OOOOOOOOOOOO",
"OOOOOOOOOOOO X .XX. OOOOOOOOOOOO",
"OOOOOOOOOOOO X o  . OOOOOOOOOOOO",
"OOOOOOOOOOO   o... . OOOOOOOOOOO",
"O OOOOOOOOO   o... . OOOOOOOOOOO",
"OOOOOOOOOOO   . XX.X OOOOOOOOOOO",
"OOOOOOOOOOO   . oXXX OOOOOOOOOOO",
"OOOOOOOOOOO   . X.Xo OOOOOOOOOOO",
"OOOOOOOOOOO   . . .  OOOOOOOOOOO",
"OOOOOOOOOOO   .  .   OOOOOOOOOOO",
"OOOOOOOOOOO   .  .   OOOOOOOOOOO",
"OOOO OOOOOO   X  X   OOOOOOOOOOO",
"OOOOOOOOOOO   X .X   OOOOOOOOOOO",
"OOOOOOOOOOO   XXXX   OOOOOOOOOOO",
"OOOOOOOOOOO  X X. .. OOOOOOOOOOO",
"OOOOOOOOOOOO X X. X OOOOOOOOOOOO",
"OOOOOOOOOOOO X .. o OOOOOOOOOOOO",
"OOOOOOOOOOOO o .ooX OOOOOOOOOOOO",
"OOOOOOOOOOOO .o X.  OOOOOOOOOOOO",
"OOOOOOOOOOOO .X ..  OOOOOOOOOOOO",
"OOOOOOOOOOOOO .X .XOOOOOOOOOOOOO",
"OOOOOOOOOOOOO ...XoOOOOOOOOOOOOO",
"OOOOOOOOOOOOO  .Xo OOOOOOOOOOOOO",
"OOOOOOOOoOOOOO  . OOOOOOOOOOOOOO",
"OOOOOOOOOOOOOOO  OOOOOOOOOOOOOOO"
};
