/* XPM */
static char *result[] = {
/* columns rows colors chars-per-pixel */
"32 32 5 1 ",
"  c #0C9C06",
". c #0CC005",
"X c #A0EB14",
"o c #F0F9B6",
"O c None",
/* pixels */
"OOOOOOOOOOOOOOOOOOOOOOOOOOOOOOOO",
"OOOOOOOOOOOOOOOOOOOOOOOOOOOOOOOO",
"OOOOOOOOOOOOOO  . OOOOOOOOOOOOOO",
"OOOOOOOOOOOOOO ... OOOOOOOOOOOOO",
"OOOOOOOOOOOOOO ..o OOOOOOOOOOOOO",
"OOOOOOOOOO.OO .XX.X OOOOOOOOOOOO",
"OOOOOOOOOOOOO XX  . OOOOOOOOOOOO",
"OOOOOOOOOOOO  X .. .OOOOOOOOOOOO",
"OOOOOOOO..OO   .XoX OOOOOOOOOOOO",
"OOOOOOOO..OO   .  o OOOOOOOOOOOO",
"OOOOOOOOOOOO   X  X OOOOOOOOOOOO",
"OOOOOOOOOOO  XXX  .. OOOOOOOOOOO",
"OOOOOOOOOOO  XXX X X OOOOOOOOOOO",
"OOOOOOOOO.O  XX .X X OOOOOOOOOOO",
"OOOOOOOOOOO  .X .X . OOOOOOOOOOO",
"OOOOOOOOOOO  .. X. . OOOOOOOOOOO",
"OOOOOOOOOOO  .. X. . OOOOOOOOOOO",
"OOOOOOOOOOO  .. o..  OOOOOOOOOOO",
"OOOOOOOOOOO  .. o.X  OOOOOOOOOOO",
"OOOOOOOOOOO  X. .XX  OOOOOOOOOOO",
"OOOOOOOOOOO  X. .X.  OOOOOOOOOOO",
"OOOOOOOOOOO  Xo. . X OOOOOOOOOOO",
"OOOOOOOOOOO  Xo. . X OOOOOOOOOOO",
"OOOOOOOOOOOO   o. ..OOOOOOOOOOOO",
"OOOOOOOOOOOO   .XX. OOOOOOOOOOOO",
"OOOOOOOOOOOO   .... OOOOOOOOOOOO",
"OOOOOOOOOOOO  . .. XOOOOOOOOOOOO",
"OOOOOOOOOOOOo .X  X OOOOOOOOOOOO",
"OOOOOOOOOOOOO .Xo.X OOOOOOOOOOOO",
"OOOOOOOOOOOOOO .XX OOOOOOOOOOOOO",
"OOOOOOOOOOOOOO  . OOOOOOOOOOOOOO",
"OOOOOOOOOOOOOOO  OOOOOOOOOOOOOOO"
};
