/* XPM */
static char *result[] = {
/* columns rows colors chars-per-pixel */
"32 32 3 1 ",
"  c #F8C984",
". c #F8D49F",
"X c #F1B183",
/* pixels */
"                                ",
"            .                   ",
"                                ",
"    XXX             ..          ",
"    XXX                         ",
"     X                          ",
"                                ",
"                         .      ",
"                                ",
"                                ",
"                                ",
"   .                        ... ",
"                             .  ",
"                                ",
"                                ",
"              .                 ",
"              .                 ",
"                                ",
"  XX                            ",
"  XX                            ",
"                        XXX     ",
"                       XXXXX    ",
"                       XXXXX    ",
"                .       XXX     ",
"                                ",
"                                ",
"                                ",
"                                ",
"  ....             XX           ",
"   ..              XX           ",
"                                ",
"                                "
};
