/* XPM */
static char *result[] = {
/* columns rows colors chars-per-pixel */
"32 32 65 1 ",
"  c #4D463F",
". c #554A3F",
"X c #474445",
"o c #4B4542",
"O c #4F4844",
"+ c #46464D",
"@ c #48474C",
"# c #49484E",
"$ c #534B44",
"% c #584E45",
"& c #554E49",
"* c #5B5146",
"= c #5B524B",
"- c #4B4A53",
"; c #4E4F58",
": c #5B5552",
"> c #5F5856",
", c #52525C",
"< c #5B5759",
"1 c #5D595B",
"2 c #625544",
"3 c #615648",
"4 c #64594E",
"5 c #6A5E4E",
"6 c #635B54",
"7 c #695F55",
"8 c #645D5A",
"9 c #6B6157",
"0 c #67605E",
"q c #6A625C",
"w c #71665C",
"e c #756A5D",
"r c #565661",
"t c #5A5A65",
"y c #5E5E6A",
"u c #676160",
"i c #6B6463",
"p c #62616D",
"a c #6E696C",
"s c #716760",
"d c #756B64",
"f c #796E63",
"g c #736B6B",
"h c #7B716B",
"j c #676774",
"k c #686774",
"l c #676875",
"z c #696976",
"x c #6C6C7B",
"c c #726D73",
"v c #767072",
"b c #7B7373",
"n c #76727C",
"m c #7A757C",
"M c #807878",
"N c #6F6F80",
"B c #6F7081",
"V c #737383",
"C c #7A7681",
"Z c #7D7984",
"A c #767689",
"S c #7C7A8B",
"D c #7B7B90",
"F c #817E8C",
"G c #828091",
/* pixels */
"jjkjljlkjt,+=*@++++++-#+-+++#7zk",
"ljjjkjjp,-@&ed886:=&&$&&$#OO$6jk",
"pjjjjpr;+o=dCAAAAAACCmVnnmmmb9ty",
"rrrrr;+o*qcxzzzzjkzkzlxzxzxNN8<r",
"---#+X.6cxllllljjjkkkkjjjjjpp8=;",
" O&%.28typpjjpjjpjpjjpjyt,;;#$3o",
"bZFFm9---;;;-;;;;,,;,;-#Xoo.=7hh",
"VNxVx9=.     O$O$oO $$=6igcnCVVV",
"kjjzxwhmmmmmmCZZCZmZhgGDANxzzzjj",
"kjjkxqcVVVVVVxxBNVVAgaBzzjjzzzjj",
"jkjkxizVxljjjjjjkzxV8uNzjjjjzzjz",
"jjjjxicxljjjjjjjjklNuuzjjjkjlzzz",
"ljkjj8alllklkjjjljjj86ypjjjjjzjj",
"yytt,=pjjlkkjjjjjptr:&;,,rtttyyy",
"-###+*1ttyyyytttr,;+&*X#+++#-+-+",
"&$$$%5<,,,r,,--#++O&wd4%%&O$&=&&",
"FZZZZf=#--#Xo$&>ucmFDSSSSZSbbFGF",
"xxxxxg9$$*6qqwSSSAVxxzzzzxNgiVxN",
"ljjkjlebFZAAa9nxzzkkzjjjzjxuixzj",
"jkjjjj9mNzzxiqxkzjkkjjjjjjxuizjj",
"jjjjlp5zjjjziqlkjjjzjjjzkkx8uzjz",
"jjjjkt4zjjjzq8kjjjjjjjjzkkkuuzjj",
"jjjjj<8zjljzi6ypjjjjjjzzjjj8uzjj",
"jjjjy>8jjzzju=-,rrrrttttttt:uzjj",
"pptt;=:tjjjl04OoooXXX+++-##&8jpp",
"--#@ 3*+-,rt8hbbgdsiq7766=*7:-;;",
":8qigvvu&OX+*vSASASSSSSDFFFM4$O&",
"VVVVVNNZmci65iVxzzzzzzxxxxxCebnV",
"xzzzjjjjlxVmfaNjlkjjjjjjjzzzfnVx",
"jjjzjjjjjkjjqizjlljkjlzljjzjwaxj",
"jjjzzjjjjjlp:8jjklljjzzzjjjt8izz",
"jjjzzzjjjkj,:>rttyyyppypptt;=uzj"
};
