/* XPM */
static char *result[] = {
/* columns rows colors chars-per-pixel */
"32 32 5 1 ",
"  c #0C9C06",
". c #0CC005",
"X c #A0EB14",
"o c #F0F9B6",
"O c None",
/* pixels */
"OOOOOOOOOOOOOO  . OOOOOOOOOOOOOO",
"OOOOOOOOOOOOOO ... OOOOOOOOOOOOO",
"OOOOOOOOOOOOO .XXX. OOOOOOOOOOOO",
"OOOOOOOOOOOOO .X  . OOOOOOOOOOOO",
"OOOOOOOOOOOOO ..  . OOOOOOOOOOOO",
"OOOOOOOOOOOO  X .. .OOOOOOOOOOOO",
"OOOOOOOOOOOO   ... XOOOOOOOOOOOO",
"OOOOOOOOOOOO   ... XOOOOOOOOOOOO",
"OOOOOOOOOOOO   .X. XOOOOOOOOOOOO",
"OOOOOOOOOOOO   .X. .OOOOOOOOOOOO",
"OOOOOOOOOOO  ..X o.  OOOOOOOOOOO",
"OOOOOOOOOOO  .. . o  OOOOOOOOOOO",
"OOOOOOOOOOO  .. .. . OOOOOOOOOOO",
"OOOOOOOOOOO  .. .. . OOOOOOOOOOO",
"OOOOOOOOOOO  X. XX . OOOOOOOOOOO",
"OOOOOOOOOOO  XX .X.  OOOOOOOOOOO",
"OOOOOOOOOOO  XX . X  OOOOOOOOOOO",
"OOOOOOOOOOO  XXo ..  OOOOOOOOOOO",
"OOOOOOOOOOO  .XXo. o OOOOOOOOOOO",
"OOOOOOOOOOO  ..XX. o OOOOOOOOOOO",
"OOOOOOOOOOO  . ..X . OOOOOOOOOOO",
"OOOOOOOOOOOO  X . .XOOOOOOOOOOOO",
"OOOOOOOOOOOO  X X X OOOOOOOOOOOO",
"OOOOOOOOOOOO  .X XX OOOOOOOOOOOO",
"OOOOOOOOOOOO  ..XX XOOOOOOOOOOOO",
"OOOOOOOOOOOO   .X. .OOOOOOOOOOOO",
"OOOOOOOOOOOOO X . . OOOOOOOOOOOO",
"OOOOOOOOOOOOO XX XX OOOOOOOOOOOO",
"OOOOOOOOOOOOO .XoX. OOOOOOOOOOOO",
"OOOOOOOOOOOOOO ... OOOOOOOOOOOOO",
"OOOOOOOOOOOOOO  . OOOOOOOOOOOOOO",
"OOOOOOOOOOOOOOO  OOOOOOOOOOOOOOO"
};
