/* XPM */
static char *result[] = {
/* columns rows colors chars-per-pixel */
"32 32 5 1 ",
"  c #0C9C06",
". c #0CC005",
"X c #A0EB14",
"o c #F0F9B6",
"O c None",
/* pixels */
"OOOOOOOOOOOOOOOOOOOOOOOOOOOOOOOO",
"OOOOOOOOOOOOOOOOOOOOOOOOOOOOOOOO",
"OOOOOOOOOOOOOOOOOOOOOOOOOOOOOOOO",
"OOOOOOOOOOOOOOOOOOOOOOOOOOOOOOOO",
"OOOOOOOOOOOOOOOOOOOOOOOOOOOOOOOO",
"OOOOOOOOOOOOOO .X. OOOOOOOOOOOOO",
"OOOOOOOOOOOOOO .XX OOOOOOOOOOOOO",
"OOOOOOOOOOOOO .Xo.X OOOOOOOOOOOO",
"OOOOOOOOOOOOO . ..  OOOOOOOOOOOO",
"OOOOOOOOOOOO   .... OOOOOOOOOOOO",
"OOOOOOOOOOOO   .... OOOOOOOOOOOO",
"OOOOOOOOOOOO   .X.X OOOOOOOOOOOO",
"OOOOOOOOOOO  Xo. . X OOOOOOOOOOO",
"OOOOOOOOOOO  Xo. . X OOOOOOOOOOO",
"OOOOOOOOOOO  X. .X.  OOOOOOOOOOO",
"OOOOOOOOOOO  .. o.X  OOOOOOOOOOO",
"OOOOOOOOOOO  .. o..  OOOOOOOOOOO",
"OOOOOOOOOOO  .. X. . OOOOOOOOOOO",
"OOOOOOOOOOO  .. X. . OOOOOOOOOOO",
"OOOOOOOOOOO  .X .X X OOOOOOOOOOO",
"OOOOOOOOOOO  XXX X X OOOOOOOOOOO",
"OOOOOOOOOOO  XXX  .. OOOOOOOOOOO",
"OOOOOOOOOOOO   X  X OOOOOOOOOOOO",
"OOOOOOOOOOOO   .o.o OOOOOOOOOOOO",
"OOOOOOOOOOOO   .XoX OOOOOOOOOOOO",
"OOOOOOOOOOOO  X .. .OOOOOOOOOOOO",
"OOOOOOOOOOOOO .XX.X OOOOOOOOOOOO",
"OOOOOOOOOOOOO ...Xo OOOOOOOOOOOO",
"OOOOOOOOOOOOOO ..o OOOOOOOOOOOOO",
"OOOOOOOOOOOOOOO  OOOOOOOOOOOOOOO",
"OOOOOOOOOOOOOOOOOOOOOOOOOOOOOOOO",
"OOOOOOOOOOOOOOOOOOOOOOOOOOOOOOOO"
};
