/* XPM */
static char *result[] = {
/* columns rows colors chars-per-pixel */
"32 32 5 1 ",
"  c #0C9C06",
". c #0CC005",
"X c #A0EB14",
"o c #F0F9B6",
"O c None",
/* pixels */
"OOOOOOOOOOOOOOOOOOOOOOOOOOOOOOOO",
"OOOOOOOOOOOOOOOOOOOOOOOOOOOOOOOO",
"OOOOOOOOOOOOOOOOOOOOOOOOOOOOOOOO",
"OOOOOOOOOOOOOOOOOOOOOOOOOOOOOOOO",
"OOOOOOOOOOOOOOOOOOOOOOOOOOOOOOOO",
"OOOOOOOOOOOOOOOOOOOOOOOOOOOOOOOO",
"OOOOOOOOOOOOOOOOOOOOOOOOOOOOOOOO",
"OOOOOOOOOOOOOOOOOOOOOOOOOOOOOOOO",
"OOOOOOOOOOOOOOOOOOOOOOOOOOOOOOOO",
"OOOOOOOOOOOOOOOOOOOOOOOOOOOOOOOO",
"OOOOOOOOOOOOOOOOOOOOOOOOOOOOOOOO",
"OOOOOOOOOOOOO  .. OOOOOOOOOOOOOO",
"OOOOOOOOOOO   .XX. OOOOOOOOOOOOO",
"OOOOOOOOOOO  .. . . OOOOOOOOOOOO",
"OOOOOOOOOO .o .... X OOOOOOOOOOO",
"OOOOOOOOO  . .X  o. X OOOOOOOOOO",
"OOOOOOOOO  . . .. o . OOOOOOOOOO",
"OOOOOOOOO  X X . X. X OOOOOOOOOO",
"OOOOOOOOO  X X .. X o OOOOOOOOOO",
"OOOOOOOOO  . .XX.. o. OOOOOOOOOO",
"OOOOOOOOOO   .X  XX  OOOOOOOOOOO",
"OOOOOOOOOO .. .XX. . OOOOOOOOOOO",
"OOOOOOOOOOO .X .. . OOOOOOOOOOOO",
"OOOOOOOOOOOOO  .. OOOOOOOOOOOOOO",
"OOOOOOOOOOOOOOOOOOOOOOOOOOOOOOOO",
"OOOOOOOOOOOOOOOOOOOOOOOOOOOOOOOO",
"OOOOOOOOOOOOOOOOOOOOOOOOOOOOOOOO",
"OOOOOOOOOOOOOOOOOOOOOOOOOOOOOOOO",
"OOOOOOOOOOOOOOOOOOOOOOOOOOOOOOOO",
"OOOOOOOOOOOOOOOOOOOOOOOOOOOOOOOO",
"OOOOOOOOOOOOOOOOOOOOOOOOOOOOOOOO",
"OOOOOOOOOOOOOOOOOOOOOOOOOOOOOOOO"
};
